<svg id="svg" version="1.1" xmlns="http://www.w3.org/2000/svg" xmlns:xlink="http://www.w3.org/1999/xlink" width="400" height="400" viewBox="0, 0, 400,400"><g id="svgg"><path id="path0" d="M123.788 108.403 C 121.498 108.566,119.264 108.953,118.583 109.305 C 117.927 109.645,116.497 110.056,115.405 110.220 C 114.314 110.384,112.624 110.941,111.651 111.459 C 110.677 111.976,109.619 112.400,109.298 112.400 C 108.978 112.400,108.181 112.850,107.527 113.400 C 106.873 113.950,106.064 114.400,105.727 114.400 C 104.278 114.400,94.400 124.107,94.400 125.531 C 94.400 125.730,94.034 126.358,93.586 126.927 C 93.138 127.497,92.567 128.556,92.317 129.281 C 92.067 130.007,91.551 131.050,91.171 131.600 C 90.791 132.150,90.363 133.410,90.220 134.400 C 90.077 135.390,89.663 136.650,89.301 137.200 C 86.787 141.020,86.800 255.471,89.316 260.258 C 89.680 260.950,90.090 262.300,90.228 263.258 C 90.367 264.216,90.796 265.453,91.184 266.008 C 91.571 266.562,92.021 267.462,92.184 268.008 C 92.465 268.949,93.045 269.942,95.434 273.570 C 97.664 276.958,105.117 283.600,106.687 283.600 C 106.910 283.600,107.528 283.943,108.060 284.361 C 108.593 284.780,109.832 285.337,110.814 285.599 C 111.796 285.860,112.889 286.332,113.243 286.647 C 113.596 286.962,115.421 287.469,117.299 287.773 C 119.177 288.077,121.137 288.567,121.656 288.863 C 122.439 289.308,138.549 289.400,216.000 289.400 L 309.400 289.400 309.400 270.800 L 309.400 252.200 223.961 252.000 C 161.110 251.853,138.374 251.680,137.961 251.346 C 137.653 251.097,136.815 250.767,136.099 250.614 C 134.799 250.336,131.600 247.722,131.600 246.938 C 131.600 246.709,131.248 246.117,130.819 245.621 C 129.570 244.182,129.555 243.553,129.681 197.390 L 129.800 153.380 130.700 152.236 C 131.195 151.607,131.600 150.911,131.600 150.689 C 131.600 150.135,134.094 147.610,134.646 147.604 C 134.891 147.602,135.607 147.195,136.236 146.700 L 137.380 145.800 197.390 145.679 C 257.075 145.559,261.956 145.623,262.904 146.549 C 263.177 146.816,263.944 147.256,264.608 147.527 C 266.251 148.199,267.918 150.392,268.698 152.910 C 269.654 155.993,269.901 173.958,269.014 175.827 C 268.676 176.539,268.400 177.416,268.400 177.778 C 268.400 178.520,264.929 182.393,264.245 182.414 C 264.000 182.421,263.080 182.775,262.200 183.200 C 260.644 183.952,259.137 183.973,206.874 183.986 C 170.509 183.996,152.897 184.134,152.371 184.416 C 151.619 184.818,151.595 185.410,151.621 203.014 L 151.647 221.197 152.524 221.411 C 155.170 222.058,279.818 221.391,281.233 220.723 C 282.021 220.350,283.641 219.916,284.833 219.758 C 286.025 219.600,287.792 219.050,288.760 218.535 C 289.727 218.021,290.828 217.600,291.206 217.600 C 291.583 217.600,292.345 217.244,292.899 216.808 C 293.453 216.372,294.332 215.828,294.853 215.598 C 295.923 215.125,298.086 213.636,299.646 212.297 C 300.221 211.804,301.342 210.860,302.137 210.200 C 302.932 209.540,303.587 208.785,303.591 208.523 C 303.596 208.260,303.916 207.810,304.302 207.523 C 306.482 205.899,311.296 196.186,311.767 192.461 C 311.916 191.284,312.344 189.574,312.719 188.661 C 313.625 186.452,313.772 142.852,312.879 141.287 C 312.593 140.785,312.101 138.913,311.787 137.128 C 311.473 135.342,310.960 133.593,310.645 133.241 C 310.331 132.888,309.864 131.809,309.606 130.842 C 309.349 129.875,308.830 128.615,308.453 128.042 C 308.076 127.469,307.595 126.712,307.384 126.360 C 305.427 123.097,299.464 116.400,298.516 116.400 C 298.286 116.400,297.851 116.101,297.549 115.735 C 297.247 115.369,296.235 114.731,295.300 114.316 C 294.365 113.902,293.600 113.419,293.600 113.245 C 293.600 113.070,292.835 112.703,291.900 112.429 C 290.965 112.155,289.791 111.670,289.291 111.350 C 288.791 111.031,287.351 110.582,286.091 110.354 C 284.831 110.126,283.382 109.669,282.870 109.341 C 282.292 108.969,280.172 108.605,277.270 108.381 C 271.828 107.959,129.750 107.980,123.788 108.403 " stroke="none" fill="#fafbfb" fill-rule="evenodd"></path><path id="path1" d="M0.000 200.000 L 0.000 400.000 200.000 400.000 L 400.000 400.000 400.000 200.000 L 400.000 0.000 200.000 0.000 L 0.000 0.000 0.000 200.000 M276.018 106.439 C 276.666 106.860,278.349 107.157,280.964 107.310 C 283.970 107.487,285.177 107.728,285.964 108.306 C 286.534 108.726,287.900 109.188,289.000 109.333 C 290.218 109.494,291.244 109.891,291.625 110.350 C 291.969 110.765,292.832 111.231,293.543 111.387 C 294.254 111.544,295.304 112.105,295.876 112.636 C 296.449 113.166,297.159 113.600,297.455 113.600 C 297.751 113.600,298.218 113.960,298.493 114.400 C 298.768 114.840,299.213 115.200,299.483 115.200 C 300.230 115.200,306.800 121.769,306.800 122.516 C 306.800 122.877,307.160 123.365,307.600 123.600 C 308.040 123.835,308.400 124.278,308.400 124.583 C 308.400 124.889,308.851 125.675,309.402 126.329 C 309.953 126.984,310.521 128.106,310.665 128.823 C 310.808 129.539,311.244 130.444,311.634 130.834 C 312.023 131.223,312.454 132.410,312.591 133.471 C 312.728 134.532,313.012 135.670,313.221 136.000 C 314.820 138.519,315.306 145.411,315.223 164.400 C 315.143 182.797,314.669 191.433,313.666 192.800 C 313.262 193.350,312.810 194.700,312.663 195.800 C 312.515 196.900,312.043 198.277,311.615 198.860 C 311.186 199.443,310.714 200.433,310.565 201.060 C 310.417 201.687,309.988 202.560,309.612 203.000 C 309.237 203.440,308.699 204.385,308.416 205.100 C 308.134 205.815,307.694 206.400,307.439 206.400 C 307.184 206.400,306.772 206.940,306.522 207.600 C 306.273 208.260,305.803 208.800,305.478 208.800 C 305.153 208.800,304.774 209.250,304.636 209.800 C 304.498 210.350,304.101 210.800,303.755 210.800 C 303.409 210.800,303.030 211.162,302.915 211.604 C 302.799 212.047,302.276 212.516,301.752 212.648 C 301.228 212.779,300.800 213.141,300.800 213.452 C 300.800 213.763,300.314 214.238,299.719 214.509 C 299.124 214.779,298.233 215.405,297.737 215.900 C 297.242 216.395,296.586 216.800,296.280 216.800 C 295.974 216.800,295.401 217.156,295.007 217.592 C 294.613 218.028,293.640 218.498,292.845 218.637 C 292.050 218.776,291.220 219.110,291.000 219.379 C 290.293 220.245,288.891 220.800,287.410 220.800 C 286.584 220.800,285.495 221.150,284.861 221.618 C 282.801 223.141,276.153 223.313,213.000 223.477 C 152.253 223.635,151.173 223.613,150.008 222.210 C 149.780 221.935,149.610 214.140,149.584 202.814 L 149.541 183.877 150.580 182.838 L 151.618 181.800 205.509 181.709 C 267.147 181.606,262.554 181.808,265.284 179.078 L 267.324 177.038 267.362 164.764 L 267.400 152.490 266.484 151.745 C 265.981 151.335,265.351 150.562,265.084 150.026 C 263.968 147.780,265.877 147.853,201.696 147.617 C 137.334 147.380,135.285 147.441,134.590 149.630 C 134.463 150.031,134.042 150.460,133.654 150.583 C 131.649 151.219,131.557 153.528,131.695 199.600 C 131.830 244.388,131.941 247.200,133.579 247.200 C 133.906 247.200,134.600 247.695,135.120 248.300 L 136.065 249.400 222.732 249.498 L 309.400 249.596 310.100 250.442 C 310.745 251.223,310.800 252.799,310.800 270.629 L 310.800 289.969 309.914 290.794 C 309.427 291.248,308.760 291.517,308.432 291.391 C 308.103 291.265,272.097 291.156,228.418 291.150 C 132.318 291.135,119.225 290.969,117.153 289.745 C 116.357 289.275,114.786 288.763,113.661 288.608 C 112.536 288.454,111.207 288.007,110.708 287.616 C 110.208 287.224,109.215 286.777,108.500 286.620 C 107.786 286.464,106.960 285.992,106.665 285.571 C 106.370 285.150,105.536 284.687,104.811 284.542 C 104.011 284.382,103.417 283.988,103.300 283.539 C 103.194 283.133,102.806 282.800,102.438 282.800 C 101.276 282.800,93.817 275.064,93.086 273.100 C 92.942 272.715,92.647 272.400,92.429 272.400 C 92.211 272.400,91.812 271.635,91.543 270.700 C 91.275 269.765,90.745 268.694,90.366 268.320 C 89.987 267.947,89.551 266.867,89.396 265.920 C 89.242 264.974,88.762 263.815,88.330 263.345 C 87.744 262.707,87.488 261.693,87.320 259.345 C 87.173 257.286,86.872 255.944,86.448 255.458 C 85.349 254.200,85.254 145.394,86.349 143.043 C 86.771 142.140,87.217 140.059,87.341 138.421 C 87.495 136.388,87.811 135.112,88.334 134.403 C 88.756 133.832,89.229 132.613,89.384 131.694 C 89.539 130.775,90.011 129.585,90.433 129.049 C 90.855 128.513,91.200 127.779,91.200 127.419 C 91.200 127.058,91.636 126.328,92.169 125.795 C 92.702 125.262,93.256 124.454,93.400 124.000 C 93.544 123.546,94.098 122.704,94.631 122.129 C 95.164 121.554,95.600 120.852,95.600 120.569 C 95.600 120.285,95.970 119.936,96.423 119.793 C 96.876 119.649,97.411 119.097,97.613 118.566 C 97.815 118.035,98.182 117.600,98.430 117.600 C 98.677 117.600,99.374 117.105,99.979 116.500 C 102.246 114.234,103.638 113.200,104.419 113.200 C 104.863 113.200,105.328 112.932,105.454 112.604 C 105.580 112.276,106.429 111.786,107.341 111.515 C 108.254 111.244,109.270 110.701,109.600 110.309 C 109.948 109.896,111.040 109.486,112.200 109.333 C 113.300 109.188,114.654 108.735,115.209 108.327 C 115.922 107.802,117.387 107.479,120.209 107.224 C 122.404 107.026,125.100 106.590,126.200 106.255 C 129.315 105.306,274.550 105.484,276.018 106.439 " stroke="none" fill="#045363" fill-rule="evenodd"></path><path id="path2" d="M123.800 107.665 C 121.600 107.860,118.394 108.466,116.675 109.010 C 114.957 109.555,113.268 110.000,112.923 110.000 C 112.577 110.000,111.733 110.339,111.047 110.754 C 110.361 111.169,109.353 111.645,108.808 111.811 C 108.262 111.977,107.362 112.420,106.808 112.797 C 106.253 113.173,104.768 114.165,103.507 115.002 C 99.584 117.605,94.541 122.866,93.834 125.093 C 93.694 125.534,93.224 126.216,92.790 126.609 C 92.355 127.002,92.000 127.523,92.000 127.765 C 92.000 128.008,91.577 129.015,91.059 130.003 C 90.542 130.991,89.899 132.698,89.630 133.795 C 89.361 134.892,88.958 136.010,88.735 136.279 C 88.511 136.548,88.069 138.710,87.751 141.084 C 87.434 143.458,87.005 146.660,86.799 148.200 C 86.585 149.805,86.421 171.403,86.417 198.800 L 86.409 246.600 87.380 253.730 C 87.915 257.652,88.525 261.072,88.737 261.330 C 88.949 261.589,89.328 262.610,89.580 263.600 C 91.309 270.401,102.102 284.000,105.770 284.000 C 106.057 284.000,106.721 284.336,107.246 284.746 C 108.627 285.828,112.995 287.577,115.975 288.243 C 117.391 288.560,119.371 289.130,120.375 289.510 C 123.122 290.549,308.737 290.806,309.771 289.772 C 310.675 288.868,310.557 252.552,309.646 251.455 C 309.132 250.836,302.996 250.789,224.351 250.806 C 146.417 250.824,139.425 250.772,137.305 250.159 C 134.287 249.286,132.842 248.025,131.500 245.093 L 130.400 242.691 130.400 198.721 L 130.400 154.750 131.385 152.668 C 132.613 150.073,134.394 148.381,137.074 147.264 L 139.148 146.400 199.719 146.400 L 260.289 146.400 262.845 147.572 C 267.907 149.893,268.377 151.342,268.390 164.680 C 268.404 178.490,267.787 180.212,262.082 182.285 L 259.564 183.200 206.036 183.200 C 154.054 183.200,152.480 183.222,151.542 183.960 L 150.576 184.720 150.621 203.014 L 150.667 221.308 151.738 221.869 C 152.647 222.345,162.421 222.412,216.304 222.307 L 279.800 222.185 283.170 221.092 C 285.024 220.492,286.805 220.000,287.127 220.000 C 287.449 220.000,288.452 219.646,289.356 219.214 C 290.260 218.782,291.630 218.151,292.400 217.811 C 299.480 214.691,306.623 207.540,309.793 200.400 C 310.134 199.630,310.699 198.433,311.048 197.741 C 311.397 197.048,311.920 195.428,312.211 194.141 C 312.502 192.853,313.069 190.720,313.470 189.400 C 314.691 185.386,314.552 142.889,313.307 139.311 C 312.830 137.942,312.317 136.142,312.166 135.311 C 312.015 134.480,311.466 132.991,310.946 132.003 C 310.426 131.015,310.000 129.945,310.000 129.625 C 310.000 129.305,309.591 128.403,309.090 127.622 C 308.590 126.840,308.005 125.912,307.790 125.560 C 303.518 118.548,293.437 110.842,287.174 109.800 C 286.198 109.638,284.887 109.243,284.261 108.922 C 281.129 107.319,275.818 107.214,200.200 107.263 C 160.380 107.289,126.000 107.470,123.800 107.665 M277.270 108.381 C 280.172 108.605,282.292 108.969,282.870 109.341 C 283.382 109.669,284.831 110.126,286.091 110.354 C 287.351 110.582,288.791 111.031,289.291 111.350 C 289.791 111.670,290.965 112.155,291.900 112.429 C 292.835 112.703,293.600 113.070,293.600 113.245 C 293.600 113.419,294.365 113.902,295.300 114.316 C 296.235 114.731,297.247 115.369,297.549 115.735 C 297.851 116.101,298.286 116.400,298.516 116.400 C 299.464 116.400,305.427 123.097,307.384 126.360 C 307.595 126.712,308.076 127.469,308.453 128.042 C 308.830 128.615,309.349 129.875,309.606 130.842 C 309.864 131.809,310.331 132.888,310.645 133.241 C 310.960 133.593,311.473 135.342,311.787 137.128 C 312.101 138.913,312.593 140.785,312.879 141.287 C 313.772 142.852,313.625 186.452,312.719 188.661 C 312.344 189.574,311.916 191.284,311.767 192.461 C 311.296 196.186,306.482 205.899,304.302 207.523 C 303.916 207.810,303.596 208.260,303.591 208.523 C 303.587 208.785,302.932 209.540,302.137 210.200 C 301.342 210.860,300.221 211.804,299.646 212.297 C 298.086 213.636,295.923 215.125,294.853 215.598 C 294.332 215.828,293.453 216.372,292.899 216.808 C 292.345 217.244,291.583 217.600,291.206 217.600 C 290.828 217.600,289.727 218.021,288.760 218.535 C 287.792 219.050,286.025 219.600,284.833 219.758 C 283.641 219.916,282.021 220.350,281.233 220.723 C 279.818 221.391,155.170 222.058,152.524 221.411 L 151.647 221.197 151.621 203.014 C 151.595 185.410,151.619 184.818,152.371 184.416 C 152.897 184.134,170.509 183.996,206.874 183.986 C 259.137 183.973,260.644 183.952,262.200 183.200 C 263.080 182.775,264.000 182.421,264.245 182.414 C 264.929 182.393,268.400 178.520,268.400 177.778 C 268.400 177.416,268.676 176.539,269.014 175.827 C 269.901 173.958,269.654 155.993,268.698 152.910 C 267.918 150.392,266.251 148.199,264.608 147.527 C 263.944 147.256,263.177 146.816,262.904 146.549 C 261.956 145.623,257.075 145.559,197.390 145.679 L 137.380 145.800 136.236 146.700 C 135.607 147.195,134.891 147.602,134.646 147.604 C 134.094 147.610,131.600 150.135,131.600 150.689 C 131.600 150.911,131.195 151.607,130.700 152.236 L 129.800 153.380 129.681 197.390 C 129.555 243.553,129.570 244.182,130.819 245.621 C 131.248 246.117,131.600 246.709,131.600 246.938 C 131.600 247.722,134.799 250.336,136.099 250.614 C 136.815 250.767,137.653 251.097,137.961 251.346 C 138.374 251.680,161.110 251.853,223.961 252.000 L 309.400 252.200 309.400 270.800 L 309.400 289.400 216.000 289.400 C 138.549 289.400,122.439 289.308,121.656 288.863 C 121.137 288.567,119.177 288.077,117.299 287.773 C 115.421 287.469,113.596 286.962,113.243 286.647 C 112.889 286.332,111.796 285.860,110.814 285.599 C 109.832 285.337,108.593 284.780,108.060 284.361 C 107.528 283.943,106.910 283.600,106.687 283.600 C 105.117 283.600,97.664 276.958,95.434 273.570 C 93.045 269.942,92.465 268.949,92.184 268.008 C 92.021 267.462,91.571 266.562,91.184 266.008 C 90.796 265.453,90.367 264.216,90.228 263.258 C 90.090 262.300,89.680 260.950,89.316 260.258 C 86.800 255.471,86.787 141.020,89.301 137.200 C 89.663 136.650,90.077 135.390,90.220 134.400 C 90.363 133.410,90.791 132.150,91.171 131.600 C 91.551 131.050,92.067 130.007,92.317 129.281 C 92.567 128.556,93.138 127.497,93.586 126.927 C 94.034 126.358,94.400 125.730,94.400 125.531 C 94.400 124.107,104.278 114.400,105.727 114.400 C 106.064 114.400,106.873 113.950,107.527 113.400 C 108.181 112.850,108.978 112.400,109.298 112.400 C 109.619 112.400,110.677 111.976,111.651 111.459 C 112.624 110.941,114.314 110.384,115.405 110.220 C 116.497 110.056,117.927 109.645,118.583 109.305 C 119.264 108.953,121.498 108.566,123.788 108.403 C 129.750 107.980,271.828 107.959,277.270 108.381 " stroke="none" fill="#749cab" fill-rule="evenodd"></path><path id="path3" d="M131.400 106.807 C 129.640 106.942,160.870 107.056,200.800 107.058 C 240.730 107.061,270.610 106.932,267.200 106.772 C 259.762 106.423,135.975 106.454,131.400 106.807 M125.505 107.483 C 126.002 107.579,126.722 107.575,127.105 107.475 C 127.487 107.375,127.080 107.296,126.200 107.301 C 125.320 107.305,125.007 107.387,125.505 107.483 M274.500 107.476 C 274.885 107.576,275.515 107.576,275.900 107.476 C 276.285 107.375,275.970 107.293,275.200 107.293 C 274.430 107.293,274.115 107.375,274.500 107.476 M120.705 107.883 C 121.202 107.979,121.922 107.975,122.305 107.875 C 122.687 107.775,122.280 107.696,121.400 107.701 C 120.520 107.705,120.207 107.787,120.705 107.883 M278.700 107.882 C 279.195 107.978,280.005 107.978,280.500 107.882 C 280.995 107.787,280.590 107.709,279.600 107.709 C 278.610 107.709,278.205 107.787,278.700 107.882 M116.842 108.434 C 115.263 109.066,116.104 109.209,117.815 108.600 C 118.687 108.289,119.040 108.039,118.600 108.043 C 118.160 108.047,117.369 108.223,116.842 108.434 M282.869 108.391 C 283.456 108.569,284.176 108.837,284.469 108.987 C 284.761 109.137,284.651 108.976,284.224 108.630 C 283.796 108.283,283.076 108.015,282.624 108.034 C 281.963 108.062,282.011 108.133,282.869 108.391 M103.777 114.167 C 103.350 114.479,103.091 114.824,103.201 114.933 C 103.310 115.042,103.825 114.787,104.344 114.366 C 105.431 113.485,104.943 113.315,103.777 114.167 M101.076 116.500 C 99.830 117.733,99.825 117.749,100.981 116.803 C 101.652 116.255,102.371 115.670,102.580 115.503 C 102.789 115.336,102.831 115.200,102.674 115.200 C 102.517 115.200,101.798 115.785,101.076 116.500 M299.800 116.455 C 300.680 117.190,302.473 118.874,303.785 120.196 C 305.097 121.518,305.734 122.060,305.201 121.400 C 303.829 119.701,299.951 116.034,299.000 115.536 C 298.560 115.306,298.920 115.719,299.800 116.455 M93.400 125.200 C 93.260 125.640,92.997 126.000,92.816 126.000 C 92.634 126.000,92.376 126.315,92.241 126.700 C 92.095 127.117,92.401 126.947,92.998 126.278 C 93.549 125.660,94.000 124.985,94.000 124.778 C 94.000 124.129,93.665 124.364,93.400 125.200 M90.679 129.974 C 90.306 130.606,90.001 131.276,90.001 131.462 C 90.002 131.648,90.372 131.195,90.823 130.455 C 91.274 129.715,91.579 129.046,91.501 128.967 C 91.422 128.889,91.052 129.342,90.679 129.974 M310.403 130.890 C 310.401 131.050,310.759 131.770,311.199 132.490 C 311.638 133.211,311.996 133.620,311.996 133.400 C 311.995 133.180,311.637 132.460,311.200 131.800 C 310.763 131.140,310.404 130.731,310.403 130.890 M88.432 135.939 C 88.195 136.384,88.001 136.984,88.002 137.274 C 88.004 137.563,88.277 137.278,88.610 136.640 C 88.942 136.003,89.136 135.402,89.040 135.306 C 88.943 135.210,88.670 135.495,88.432 135.939 M312.839 137.800 C 312.824 138.020,313.071 138.920,313.388 139.800 C 313.705 140.680,313.965 141.040,313.964 140.600 C 313.964 139.772,312.885 137.090,312.839 137.800 M87.693 139.600 C 87.693 140.370,87.775 140.685,87.876 140.300 C 87.976 139.915,87.976 139.285,87.876 138.900 C 87.775 138.515,87.693 138.830,87.693 139.600 M314.114 144.600 C 314.117 145.700,314.195 146.103,314.287 145.495 C 314.379 144.886,314.377 143.986,314.282 143.495 C 314.187 143.003,314.111 143.500,314.114 144.600 M86.526 145.859 C 85.959 148.538,86.127 250.401,86.700 251.800 L 87.192 253.000 86.933 251.600 C 86.456 249.019,86.321 152.514,86.789 148.444 C 87.236 144.554,87.095 143.167,86.526 145.859 M139.705 146.687 C 140.314 146.779,141.214 146.777,141.705 146.682 C 142.197 146.587,141.700 146.511,140.600 146.514 C 139.500 146.517,139.097 146.595,139.705 146.687 M172.931 146.700 C 189.174 146.758,215.634 146.758,231.731 146.700 C 247.829 146.642,234.540 146.595,202.200 146.595 C 169.860 146.595,156.689 146.642,172.931 146.700 M136.800 147.400 C 136.250 147.714,135.980 147.972,136.200 147.972 C 136.420 147.972,137.050 147.714,137.600 147.400 C 138.150 147.086,138.420 146.828,138.200 146.828 C 137.980 146.828,137.350 147.086,136.800 147.400 M265.232 149.000 C 266.281 150.528,267.600 152.059,267.585 151.731 C 267.577 151.549,266.920 150.680,266.127 149.800 C 265.333 148.920,264.930 148.560,265.232 149.000 M132.801 150.198 C 132.286 150.748,131.939 151.264,132.032 151.346 C 132.124 151.428,132.619 150.978,133.130 150.347 C 134.276 148.935,134.074 148.844,132.801 150.198 M314.551 154.800 C 314.551 157.330,314.616 158.365,314.696 157.100 C 314.775 155.835,314.775 153.765,314.696 152.500 C 314.616 151.235,314.551 152.270,314.551 154.800 M131.257 152.857 C 130.975 153.309,130.832 153.766,130.940 153.873 C 131.047 153.981,131.344 153.678,131.600 153.200 C 131.856 152.722,131.998 152.265,131.917 152.184 C 131.836 152.103,131.539 152.406,131.257 152.857 M130.593 198.800 C 130.593 223.330,130.641 233.365,130.700 221.100 C 130.759 208.835,130.759 188.765,130.700 176.500 C 130.641 164.235,130.593 174.270,130.593 198.800 M268.175 164.800 C 268.175 170.630,268.231 173.015,268.299 170.100 C 268.367 167.185,268.367 162.415,268.299 159.500 C 268.231 156.585,268.175 158.970,268.175 164.800 M314.501 177.000 C 314.505 177.880,314.587 178.193,314.683 177.695 C 314.779 177.198,314.775 176.478,314.675 176.095 C 314.575 175.713,314.496 176.120,314.501 177.000 M265.643 179.641 C 264.677 180.718,263.981 181.600,264.096 181.600 C 264.455 181.600,267.600 178.326,267.600 177.953 C 267.600 177.459,267.599 177.460,265.643 179.641 M260.400 182.400 C 259.850 182.576,235.406 182.738,206.080 182.760 C 148.929 182.803,150.855 182.736,150.229 184.709 C 150.103 185.104,150.028 193.431,150.061 203.214 C 150.124 222.029,150.163 222.426,151.962 222.386 C 152.392 222.376,152.285 222.197,151.633 221.836 L 150.667 221.301 150.621 203.010 L 150.576 184.720 151.542 183.960 C 152.480 183.222,154.081 183.199,206.154 183.170 C 250.133 183.145,260.052 183.042,261.200 182.600 C 262.697 182.023,262.068 181.866,260.400 182.400 M314.114 185.000 C 314.117 186.100,314.195 186.503,314.287 185.895 C 314.379 185.286,314.377 184.386,314.282 183.895 C 314.187 183.403,314.111 183.900,314.114 185.000 M313.316 189.832 C 313.085 190.839,313.041 191.514,313.217 191.332 C 313.574 190.963,314.192 188.000,313.912 188.000 C 313.814 188.000,313.546 188.824,313.316 189.832 M306.258 206.300 C 305.479 207.345,304.457 208.695,303.987 209.300 C 303.517 209.905,303.207 210.400,303.297 210.400 C 303.479 210.400,307.305 205.683,307.758 204.900 C 308.430 203.738,307.570 204.540,306.258 206.300 M300.800 212.284 L 299.000 214.115 300.675 212.810 C 301.597 212.093,302.446 211.257,302.563 210.953 C 302.851 210.201,302.842 210.208,300.800 212.284 M297.322 215.029 L 296.200 216.058 297.500 215.154 C 298.215 214.657,298.800 214.193,298.800 214.125 C 298.800 213.809,298.358 214.080,297.322 215.029 M293.656 217.213 C 292.416 218.246,292.975 218.235,294.291 217.200 C 294.850 216.760,295.149 216.406,294.954 216.413 C 294.759 216.421,294.175 216.781,293.656 217.213 M281.800 221.411 C 280.548 221.824,280.417 221.942,281.200 221.955 C 281.750 221.964,282.650 221.714,283.200 221.400 C 284.417 220.704,283.933 220.708,281.800 221.411 M276.100 222.287 C 276.705 222.378,277.695 222.378,278.300 222.287 C 278.905 222.195,278.410 222.120,277.200 222.120 C 275.990 222.120,275.495 222.195,276.100 222.287 M182.469 222.700 C 198.896 222.758,225.896 222.758,242.469 222.700 C 259.041 222.642,245.600 222.595,212.600 222.595 C 179.600 222.595,166.041 222.642,182.469 222.700 M132.600 247.457 C 134.637 249.264,135.387 249.791,134.602 248.863 C 134.166 248.348,133.447 247.741,133.004 247.514 C 132.562 247.287,132.380 247.262,132.600 247.457 M138.369 250.402 C 139.040 250.695,165.339 250.819,224.120 250.806 C 287.732 250.792,309.043 250.903,309.461 251.251 C 309.907 251.620,309.968 251.581,309.766 251.057 C 309.534 250.451,302.978 250.400,224.807 250.400 C 178.218 250.400,139.493 250.305,138.750 250.189 C 137.532 249.999,137.495 250.020,138.369 250.402 M87.693 258.000 C 87.693 258.770,87.775 259.085,87.876 258.700 C 87.976 258.315,87.976 257.685,87.876 257.300 C 87.775 256.915,87.693 257.230,87.693 258.000 M88.002 260.424 C 88.001 260.766,88.264 261.396,88.587 261.824 C 89.351 262.834,89.359 262.396,88.602 260.946 C 88.274 260.316,88.004 260.081,88.002 260.424 M91.625 269.256 C 91.611 269.616,91.915 270.255,92.300 270.675 C 92.685 271.094,92.872 271.240,92.716 270.997 C 92.560 270.755,92.256 270.117,92.041 269.578 C 91.794 268.960,91.641 268.841,91.625 269.256 M93.800 273.200 C 94.141 273.860,94.511 274.400,94.621 274.400 C 94.731 274.400,94.541 273.860,94.200 273.200 C 93.859 272.540,93.489 272.000,93.379 272.000 C 93.269 272.000,93.459 272.540,93.800 273.200 M95.525 275.404 C 95.777 275.842,96.656 276.830,97.479 277.600 C 99.059 279.076,98.215 277.867,96.234 275.815 C 95.593 275.151,95.274 274.965,95.525 275.404 M100.768 280.748 C 101.740 281.657,102.606 282.400,102.691 282.400 C 103.084 282.400,102.244 281.549,100.694 280.377 L 99.000 279.096 100.768 280.748 M118.800 289.400 C 119.350 289.714,120.250 289.970,120.800 289.968 C 121.593 289.966,121.468 289.845,120.200 289.388 C 118.167 288.656,117.508 288.661,118.800 289.400 M123.491 290.289 C 124.201 290.377,125.461 290.379,126.291 290.292 C 127.121 290.205,126.540 290.133,125.000 290.131 C 123.460 290.129,122.781 290.200,123.491 290.289 M308.200 290.400 C 307.093 290.682,307.077 290.709,308.000 290.747 C 308.550 290.769,309.270 290.613,309.600 290.400 C 310.281 289.960,309.929 289.960,308.200 290.400 " stroke="none" fill="#6694a4" fill-rule="evenodd"></path><path id="path4" d="M126.200 106.255 C 125.100 106.590,122.404 107.026,120.209 107.224 C 117.387 107.479,115.922 107.802,115.209 108.327 C 114.654 108.735,113.300 109.188,112.200 109.333 C 111.040 109.486,109.948 109.896,109.600 110.309 C 109.270 110.701,108.254 111.244,107.341 111.515 C 106.429 111.786,105.580 112.276,105.454 112.604 C 105.328 112.932,104.863 113.200,104.419 113.200 C 103.638 113.200,102.246 114.234,99.979 116.500 C 99.374 117.105,98.677 117.600,98.430 117.600 C 98.182 117.600,97.815 118.035,97.613 118.566 C 97.411 119.097,96.876 119.649,96.423 119.793 C 95.970 119.936,95.600 120.285,95.600 120.569 C 95.600 120.852,95.164 121.554,94.631 122.129 C 94.098 122.704,93.544 123.546,93.400 124.000 C 93.256 124.454,92.702 125.262,92.169 125.795 C 91.636 126.328,91.200 127.058,91.200 127.419 C 91.200 127.779,90.855 128.513,90.433 129.049 C 90.011 129.585,89.539 130.775,89.384 131.694 C 89.229 132.613,88.756 133.832,88.334 134.403 C 87.811 135.112,87.495 136.388,87.341 138.421 C 87.217 140.059,86.771 142.140,86.349 143.043 C 85.254 145.394,85.349 254.200,86.448 255.458 C 86.872 255.944,87.173 257.286,87.320 259.345 C 87.488 261.693,87.744 262.707,88.330 263.345 C 88.762 263.815,89.242 264.974,89.396 265.920 C 89.551 266.867,89.987 267.947,90.366 268.320 C 90.745 268.694,91.275 269.765,91.543 270.700 C 91.812 271.635,92.211 272.400,92.429 272.400 C 92.647 272.400,92.942 272.715,93.086 273.100 C 93.817 275.064,101.276 282.800,102.438 282.800 C 102.806 282.800,103.194 283.133,103.300 283.539 C 103.417 283.988,104.011 284.382,104.811 284.542 C 105.536 284.687,106.370 285.150,106.665 285.571 C 106.960 285.992,107.786 286.464,108.500 286.620 C 109.215 286.777,110.208 287.224,110.708 287.616 C 111.207 288.007,112.536 288.454,113.661 288.608 C 114.786 288.763,116.357 289.275,117.153 289.745 C 119.225 290.969,132.318 291.135,228.418 291.150 C 272.097 291.156,308.103 291.265,308.432 291.391 C 308.760 291.517,309.427 291.248,309.914 290.794 L 310.800 289.969 310.800 270.629 C 310.800 252.799,310.745 251.223,310.100 250.442 L 309.400 249.596 222.732 249.498 L 136.065 249.400 135.120 248.300 C 134.600 247.695,133.906 247.200,133.579 247.200 C 131.941 247.200,131.830 244.388,131.695 199.600 C 131.557 153.528,131.649 151.219,133.654 150.583 C 134.042 150.460,134.463 150.031,134.590 149.630 C 135.285 147.441,137.334 147.380,201.696 147.617 C 265.877 147.853,263.968 147.780,265.084 150.026 C 265.351 150.562,265.981 151.335,266.484 151.745 L 267.400 152.490 267.362 164.764 L 267.324 177.038 265.284 179.078 C 262.554 181.808,267.147 181.606,205.509 181.709 L 151.618 181.800 150.580 182.838 L 149.541 183.877 149.584 202.814 C 149.610 214.140,149.780 221.935,150.008 222.210 C 151.173 223.613,152.253 223.635,213.000 223.477 C 276.153 223.313,282.801 223.141,284.861 221.618 C 285.495 221.150,286.584 220.800,287.410 220.800 C 288.891 220.800,290.293 220.245,291.000 219.379 C 291.220 219.110,292.050 218.776,292.845 218.637 C 293.640 218.498,294.613 218.028,295.007 217.592 C 295.401 217.156,295.974 216.800,296.280 216.800 C 296.586 216.800,297.242 216.395,297.737 215.900 C 298.233 215.405,299.124 214.779,299.719 214.509 C 300.314 214.238,300.800 213.763,300.800 213.452 C 300.800 213.141,301.228 212.779,301.752 212.648 C 302.276 212.516,302.799 212.047,302.915 211.604 C 303.030 211.162,303.409 210.800,303.755 210.800 C 304.101 210.800,304.498 210.350,304.636 209.800 C 304.774 209.250,305.153 208.800,305.478 208.800 C 305.803 208.800,306.273 208.260,306.522 207.600 C 306.772 206.940,307.184 206.400,307.439 206.400 C 307.694 206.400,308.134 205.815,308.416 205.100 C 308.699 204.385,309.237 203.440,309.612 203.000 C 309.988 202.560,310.417 201.687,310.565 201.060 C 310.714 200.433,311.186 199.443,311.615 198.860 C 312.043 198.277,312.515 196.900,312.663 195.800 C 312.810 194.700,313.262 193.350,313.666 192.800 C 314.669 191.433,315.143 182.797,315.223 164.400 C 315.306 145.411,314.820 138.519,313.221 136.000 C 313.012 135.670,312.728 134.532,312.591 133.471 C 312.454 132.410,312.023 131.223,311.634 130.834 C 311.244 130.444,310.808 129.539,310.665 128.823 C 310.521 128.106,309.953 126.984,309.402 126.329 C 308.851 125.675,308.400 124.889,308.400 124.583 C 308.400 124.278,308.040 123.835,307.600 123.600 C 307.160 123.365,306.800 122.877,306.800 122.516 C 306.800 121.769,300.230 115.200,299.483 115.200 C 299.213 115.200,298.768 114.840,298.493 114.400 C 298.218 113.960,297.751 113.600,297.455 113.600 C 297.159 113.600,296.449 113.166,295.876 112.636 C 295.304 112.105,294.254 111.544,293.543 111.387 C 292.832 111.231,291.969 110.765,291.625 110.350 C 291.244 109.891,290.218 109.494,289.000 109.333 C 287.900 109.188,286.534 108.726,285.964 108.306 C 285.177 107.728,283.970 107.487,280.964 107.310 C 278.349 107.157,276.666 106.860,276.018 106.439 C 274.550 105.484,129.315 105.306,126.200 106.255 M267.600 106.798 C 277.614 107.296,283.202 107.909,284.304 108.631 C 284.807 108.961,286.249 109.419,287.509 109.650 C 288.769 109.881,290.070 110.295,290.400 110.569 C 290.730 110.844,291.630 111.308,292.400 111.600 C 293.170 111.892,294.070 112.350,294.400 112.618 C 294.730 112.885,295.621 113.419,296.380 113.804 C 297.140 114.189,298.008 114.750,298.309 115.052 C 298.610 115.353,298.995 115.600,299.164 115.600 C 300.274 115.600,306.157 122.255,308.063 125.668 C 308.428 126.321,308.999 127.158,309.332 127.528 C 309.665 127.897,310.072 128.740,310.235 129.400 C 310.399 130.060,310.953 131.392,311.467 132.360 C 311.980 133.327,312.400 134.457,312.400 134.870 C 312.400 135.282,312.763 136.650,313.206 137.910 C 315.312 143.894,315.151 187.734,313.007 191.845 C 312.676 192.480,312.404 193.537,312.402 194.194 C 312.399 196.046,308.395 204.250,306.055 207.200 C 303.873 209.951,300.366 213.229,297.754 214.960 C 296.459 215.817,294.931 216.838,294.358 217.228 C 293.785 217.619,292.591 218.133,291.705 218.372 C 290.818 218.610,289.886 219.055,289.634 219.359 C 289.381 219.664,288.325 220.037,287.287 220.190 C 286.249 220.342,284.611 220.812,283.647 221.234 C 280.372 222.668,271.765 222.842,210.142 222.718 C 155.315 222.607,151.636 222.557,150.917 221.906 C 150.156 221.217,149.523 186.932,150.230 184.704 C 150.855 182.735,148.952 182.800,205.822 182.800 C 265.693 182.800,262.338 182.964,265.506 179.882 C 266.444 178.969,267.388 177.587,267.604 176.811 C 268.121 174.947,268.120 153.968,267.602 152.605 C 267.085 151.244,264.795 148.400,264.218 148.400 C 263.971 148.400,263.067 148.042,262.209 147.605 C 260.672 146.821,259.736 146.809,199.824 146.801 L 139.000 146.793 136.739 147.720 C 134.280 148.727,133.013 150.003,131.669 152.826 L 130.800 154.653 130.800 198.842 C 130.800 242.241,130.814 243.059,131.600 244.600 C 132.040 245.463,132.403 246.356,132.407 246.585 C 132.425 247.603,135.527 249.546,137.808 249.968 C 139.437 250.269,165.851 250.400,224.809 250.400 L 309.472 250.400 309.936 251.419 C 310.479 252.611,310.600 289.065,310.064 289.910 C 309.720 290.453,125.824 290.676,121.720 290.139 C 120.664 290.001,119.350 289.663,118.800 289.389 C 118.250 289.115,116.720 288.673,115.400 288.405 C 114.080 288.138,112.460 287.600,111.800 287.211 C 111.140 286.821,110.060 286.376,109.400 286.222 C 108.740 286.067,107.840 285.615,107.400 285.216 C 106.960 284.818,106.150 284.356,105.600 284.190 C 103.911 283.679,96.830 277.315,94.684 274.379 C 92.919 271.963,91.614 269.748,91.607 269.154 C 91.603 268.799,91.246 268.058,90.814 267.509 C 90.382 266.959,89.838 265.663,89.607 264.629 C 89.375 263.595,88.928 262.356,88.615 261.875 C 88.301 261.394,87.847 259.380,87.606 257.400 C 87.365 255.420,86.898 252.450,86.569 250.800 C 85.758 246.739,85.880 146.920,86.699 145.078 C 86.973 144.460,87.380 142.340,87.604 140.366 C 87.844 138.250,88.336 136.169,88.805 135.295 C 89.242 134.479,89.600 133.468,89.600 133.048 C 89.600 132.266,92.282 126.361,92.801 126.000 C 92.959 125.890,93.388 125.215,93.754 124.500 C 94.121 123.785,94.584 123.200,94.783 123.200 C 94.983 123.200,95.262 122.836,95.403 122.391 C 95.720 121.393,101.451 115.701,102.463 115.380 C 102.868 115.251,103.200 114.972,103.200 114.759 C 103.200 114.546,103.990 114.033,104.956 113.619 C 105.922 113.205,106.824 112.684,106.962 112.462 C 107.099 112.240,107.884 111.842,108.706 111.579 C 109.528 111.315,110.470 110.867,110.800 110.583 C 111.130 110.300,112.120 109.940,113.000 109.783 C 113.880 109.627,115.343 109.167,116.252 108.762 C 117.818 108.062,121.623 107.557,130.800 106.831 C 136.332 106.393,258.859 106.364,267.600 106.798 " stroke="none" fill="#4c7680" fill-rule="evenodd"></path></g></svg>