<svg id="svg" version="1.1" xmlns="http://www.w3.org/2000/svg" xmlns:xlink="http://www.w3.org/1999/xlink" width="400" height="318.7250996015936" viewBox="0, 0, 400,318.7250996015936"><g id="svgg"><path id="path0" d="M0.000 159.363 L 0.000 318.725 32.510 318.725 C 61.195 318.725,65.020 318.669,65.020 318.247 C 65.020 317.984,64.841 317.765,64.622 317.761 C 62.406 317.715,57.762 317.044,57.224 316.691 C 56.849 316.445,55.545 316.089,54.327 315.899 C 53.108 315.709,51.543 315.263,50.849 314.908 C 50.155 314.553,49.235 314.263,48.805 314.263 C 48.376 314.263,47.438 313.924,46.721 313.509 C 46.005 313.094,44.873 312.656,44.206 312.535 C 43.540 312.414,42.919 312.119,42.827 311.879 C 42.735 311.639,42.082 311.344,41.376 311.225 C 40.670 311.106,39.837 310.753,39.525 310.441 C 39.213 310.130,38.471 309.714,37.875 309.517 C 37.279 309.320,36.547 308.874,36.248 308.524 C 35.948 308.174,35.523 307.886,35.302 307.883 C 34.900 307.877,32.455 306.369,31.554 305.572 C 31.291 305.339,30.645 304.878,30.120 304.548 C 29.594 304.217,28.999 303.794,28.797 303.607 C 28.596 303.420,27.896 302.837,27.242 302.311 C 23.887 299.614,16.892 292.107,16.892 291.203 C 16.892 290.998,16.606 290.651,16.255 290.433 C 15.904 290.214,15.618 289.843,15.618 289.608 C 15.618 289.374,15.344 288.935,15.009 288.632 C 14.675 288.329,14.215 287.632,13.987 287.082 C 13.759 286.533,13.316 285.826,13.002 285.512 C 12.687 285.197,12.430 284.753,12.430 284.524 C 12.430 284.295,12.072 283.622,11.633 283.028 C 11.195 282.434,10.837 281.717,10.837 281.434 C 10.837 281.152,10.496 280.459,10.079 279.894 C 9.663 279.329,9.234 278.316,9.126 277.642 C 9.018 276.969,8.721 276.244,8.467 276.033 C 8.212 275.821,7.837 274.835,7.634 273.840 C 7.431 272.846,7.059 271.800,6.809 271.517 C 6.558 271.233,6.208 270.103,6.031 269.004 C 5.854 267.905,5.498 266.597,5.239 266.096 C 4.980 265.596,4.615 264.002,4.427 262.553 C 4.239 261.105,3.877 259.286,3.621 258.510 C 1.499 252.065,1.510 65.181,3.633 59.744 C 3.904 59.052,4.271 57.279,4.450 55.804 C 4.630 54.329,4.971 52.823,5.210 52.458 C 5.448 52.092,5.805 50.876,6.001 49.755 C 6.198 48.634,6.563 47.487,6.812 47.205 C 7.061 46.924,7.435 45.859,7.643 44.840 C 7.851 43.821,8.214 42.913,8.449 42.823 C 8.684 42.733,8.971 42.101,9.086 41.419 C 9.202 40.736,9.562 39.840,9.887 39.426 C 10.212 39.013,10.578 38.256,10.699 37.744 C 10.821 37.232,11.172 36.526,11.479 36.175 C 11.787 35.825,12.146 35.179,12.278 34.741 C 12.410 34.303,12.856 33.539,13.271 33.043 C 13.685 32.548,14.024 31.995,14.024 31.814 C 14.024 31.634,14.382 31.060,14.821 30.539 C 15.259 30.019,15.618 29.414,15.618 29.196 C 15.618 28.978,15.940 28.500,16.335 28.134 C 16.729 27.768,17.551 26.774,18.161 25.925 C 18.771 25.077,19.560 24.085,19.914 23.722 C 20.268 23.359,21.367 22.196,22.356 21.138 C 24.591 18.745,28.568 15.299,29.095 15.299 C 29.311 15.299,29.667 15.012,29.886 14.661 C 30.105 14.311,30.490 14.024,30.742 14.024 C 30.993 14.024,31.398 13.740,31.641 13.393 C 31.884 13.046,32.609 12.542,33.253 12.273 C 33.896 12.004,34.422 11.657,34.422 11.501 C 34.422 11.345,34.859 11.065,35.393 10.879 C 35.928 10.693,36.736 10.249,37.189 9.892 C 37.643 9.535,38.225 9.243,38.483 9.243 C 38.741 9.243,39.378 8.884,39.899 8.446 C 40.420 8.008,41.174 7.649,41.575 7.649 C 41.976 7.649,42.691 7.345,43.163 6.974 C 43.636 6.602,44.621 6.164,45.353 5.999 C 46.085 5.835,46.911 5.495,47.189 5.243 C 47.466 4.992,48.468 4.639,49.413 4.460 C 50.359 4.281,51.712 3.863,52.419 3.531 C 53.126 3.200,54.566 2.829,55.617 2.707 C 56.669 2.584,57.918 2.283,58.393 2.038 C 59.145 1.649,63.825 0.978,65.896 0.962 C 66.319 0.958,66.614 0.760,66.614 0.478 C 66.614 0.056,62.700 0.000,33.307 0.000 L 0.000 0.000 0.000 159.363 M333.705 0.478 C 333.705 0.760,334.000 0.958,334.422 0.962 C 336.510 0.978,341.177 1.650,341.940 2.045 C 342.423 2.294,343.822 2.638,345.050 2.808 C 346.277 2.978,347.847 3.420,348.537 3.790 C 349.227 4.160,350.240 4.462,350.789 4.462 C 351.338 4.462,352.153 4.750,352.600 5.102 C 353.048 5.455,353.892 5.833,354.476 5.944 C 355.686 6.174,356.607 6.601,357.227 7.222 C 357.463 7.457,358.075 7.649,358.589 7.649 C 359.102 7.649,359.792 7.920,360.122 8.250 C 360.453 8.580,361.224 9.016,361.837 9.218 C 362.450 9.420,363.206 9.867,363.517 10.211 C 363.828 10.555,364.330 10.837,364.632 10.837 C 364.934 10.837,365.368 11.062,365.597 11.338 C 365.826 11.614,366.561 12.119,367.230 12.460 C 367.899 12.801,368.446 13.229,368.446 13.410 C 368.446 13.590,368.876 13.888,369.402 14.072 C 369.928 14.255,370.359 14.530,370.359 14.682 C 370.359 14.835,370.711 15.144,371.142 15.370 C 373.824 16.776,382.057 25.667,385.020 30.359 C 385.546 31.191,386.406 32.543,386.932 33.361 C 387.458 34.180,387.888 35.023,387.888 35.235 C 387.888 35.446,388.103 35.797,388.364 36.014 C 388.626 36.231,388.992 36.973,389.178 37.664 C 389.364 38.354,389.773 39.176,390.088 39.490 C 390.403 39.805,390.752 40.639,390.865 41.344 C 390.978 42.049,391.279 42.799,391.533 43.011 C 391.788 43.223,392.163 44.209,392.366 45.204 C 392.569 46.198,392.943 47.246,393.196 47.532 C 393.449 47.818,393.808 49.030,393.994 50.226 C 394.181 51.422,394.540 52.716,394.792 53.101 C 395.045 53.487,395.383 55.000,395.543 56.463 C 395.704 57.926,396.066 59.841,396.348 60.717 C 398.213 66.507,398.232 131.495,396.370 136.262 C 396.098 136.959,395.731 138.721,395.554 140.177 C 395.377 141.632,395.012 143.289,394.741 143.859 C 394.471 144.428,394.114 145.731,393.947 146.754 C 393.781 147.777,393.419 148.863,393.144 149.167 C 392.869 149.471,392.527 150.456,392.385 151.356 C 392.243 152.256,391.898 153.245,391.619 153.553 C 391.341 153.861,390.978 154.712,390.814 155.444 C 390.649 156.176,390.211 157.161,389.839 157.633 C 389.467 158.106,389.163 158.732,389.163 159.025 C 389.163 159.318,388.805 160.043,388.367 160.637 C 387.928 161.231,387.570 161.861,387.570 162.037 C 387.570 162.350,387.330 162.739,384.829 166.483 C 384.145 167.507,383.305 168.798,382.962 169.352 C 382.619 169.906,382.081 170.546,381.767 170.775 C 381.452 171.004,381.195 171.339,381.195 171.518 C 381.195 171.698,380.514 172.548,379.681 173.408 C 378.849 174.267,377.995 175.152,377.784 175.373 C 377.573 175.595,377.215 175.952,376.987 176.166 C 376.760 176.381,376.430 176.713,376.255 176.906 C 375.021 178.259,370.758 182.025,370.293 182.172 C 369.978 182.272,369.721 182.490,369.721 182.656 C 369.721 182.822,369.183 183.207,368.526 183.511 C 367.869 183.815,367.143 184.315,366.914 184.622 C 366.685 184.928,366.302 185.179,366.062 185.179 C 365.823 185.179,365.212 185.529,364.704 185.955 C 364.197 186.382,363.407 186.825,362.950 186.940 C 362.492 187.055,362.042 187.348,361.948 187.591 C 361.855 187.833,361.138 188.194,360.353 188.391 C 359.569 188.588,358.857 188.934,358.771 189.158 C 358.685 189.382,357.894 189.739,357.012 189.951 C 356.131 190.162,355.252 190.525,355.060 190.757 C 354.867 190.989,353.964 191.353,353.052 191.566 C 352.140 191.779,351.168 192.151,350.890 192.392 C 350.613 192.633,349.551 192.985,348.530 193.174 C 347.508 193.362,346.360 193.722,345.978 193.972 C 345.596 194.222,344.077 194.575,342.602 194.755 C 341.127 194.935,339.471 195.291,338.923 195.546 C 338.374 195.801,335.721 196.223,333.026 196.484 C 330.332 196.745,327.102 197.106,325.850 197.285 C 321.218 197.950,114.232 197.556,113.557 196.881 C 112.673 195.996,112.673 130.378,113.557 129.493 C 114.100 128.950,118.530 128.917,210.609 128.765 L 307.092 128.606 309.201 127.574 C 310.361 127.006,311.490 126.325,311.710 126.060 C 311.930 125.795,312.273 125.578,312.472 125.578 C 313.138 125.578,316.812 121.024,316.814 120.195 C 316.815 119.913,317.137 119.179,317.531 118.566 L 318.247 117.450 318.337 99.010 L 318.426 80.569 317.460 78.586 C 316.929 77.495,316.494 76.431,316.494 76.220 C 316.494 76.009,316.284 75.756,316.028 75.658 C 315.772 75.559,315.471 75.191,315.359 74.839 C 315.096 74.009,311.526 70.438,310.959 70.438 C 310.720 70.438,310.131 70.129,309.650 69.750 C 307.218 67.838,312.163 67.921,200.383 67.904 C 89.506 67.887,92.756 67.836,90.976 69.616 C 90.754 69.838,90.105 70.213,89.535 70.449 C 88.320 70.953,85.251 73.920,84.944 74.889 C 84.827 75.257,84.402 75.914,84.000 76.348 C 83.597 76.782,83.175 77.720,83.061 78.432 C 82.947 79.144,82.606 80.104,82.303 80.566 C 81.786 81.356,81.753 86.035,81.753 159.030 L 81.753 236.653 82.470 238.338 C 82.865 239.265,83.187 240.355,83.187 240.759 C 83.187 241.164,83.461 241.743,83.796 242.045 C 84.130 242.348,84.587 243.037,84.810 243.576 C 85.033 244.115,85.709 245.001,86.312 245.545 C 86.915 246.089,87.730 246.857,88.123 247.251 C 88.516 247.645,88.981 247.968,89.155 247.968 C 89.330 247.968,90.008 248.331,90.662 248.775 C 93.951 251.007,81.350 250.837,243.161 250.837 C 383.179 250.837,388.126 250.856,388.636 251.420 C 389.120 251.954,389.163 254.768,389.163 285.364 L 389.163 318.725 394.582 318.725 L 400.000 318.725 400.000 159.363 L 400.000 0.000 366.853 0.000 C 337.601 0.000,333.705 0.056,333.705 0.478 " stroke="none" fill="#f9fafa" fill-rule="evenodd"></path><path id="path1" d="M76.813 0.412 C 76.813 1.144,73.917 1.643,67.943 1.943 C 63.676 2.157,61.980 2.357,61.654 2.683 C 61.196 3.141,60.297 3.327,56.777 3.688 C 55.508 3.818,54.544 4.102,54.199 4.447 C 53.857 4.788,52.890 5.077,51.657 5.206 C 50.454 5.332,49.365 5.652,48.901 6.017 C 48.480 6.348,47.456 6.722,46.626 6.846 C 45.748 6.978,44.952 7.308,44.722 7.637 C 44.504 7.948,43.772 8.290,43.093 8.399 C 42.415 8.507,41.599 8.885,41.279 9.238 C 40.960 9.591,40.355 9.880,39.935 9.880 C 39.516 9.880,38.857 10.218,38.471 10.630 C 38.085 11.043,37.231 11.480,36.574 11.601 C 35.831 11.738,35.378 12.000,35.378 12.293 C 35.378 12.553,34.984 12.914,34.502 13.097 C 34.020 13.279,33.339 13.687,32.988 14.003 C 32.637 14.319,31.956 14.671,31.474 14.785 C 30.992 14.899,30.598 15.208,30.598 15.472 C 30.598 15.736,30.235 16.090,29.793 16.258 C 29.350 16.426,28.902 16.787,28.798 17.059 C 28.693 17.331,28.231 17.754,27.770 17.998 C 26.620 18.608,23.525 21.637,20.921 24.701 C 19.729 26.104,18.550 27.366,18.301 27.506 C 18.052 27.646,17.849 27.964,17.849 28.212 C 17.849 28.460,17.567 28.814,17.222 28.998 C 16.877 29.183,16.451 29.869,16.274 30.523 C 16.097 31.178,15.662 31.894,15.307 32.114 C 14.952 32.335,14.661 32.796,14.661 33.139 C 14.661 33.482,14.391 33.907,14.061 34.084 C 13.731 34.260,13.367 34.907,13.251 35.520 C 13.136 36.133,12.783 36.818,12.466 37.043 C 12.149 37.267,11.788 37.996,11.664 38.664 C 11.540 39.331,11.164 40.112,10.829 40.399 C 10.492 40.688,10.125 41.553,10.007 42.336 C 9.891 43.114,9.529 44.017,9.204 44.342 C 8.842 44.704,8.530 45.635,8.400 46.740 C 8.277 47.787,7.955 48.778,7.635 49.098 C 7.287 49.446,6.961 50.558,6.755 52.102 C 6.575 53.450,6.214 54.792,5.954 55.085 C 5.644 55.434,5.363 56.912,5.142 59.370 C 4.933 61.684,4.585 63.579,4.234 64.311 C 3.341 66.174,3.349 252.442,4.241 253.757 C 4.670 254.388,4.903 255.693,5.150 258.857 C 5.334 261.195,5.591 263.179,5.722 263.267 C 6.255 263.623,6.618 264.814,6.819 266.862 C 6.961 268.305,7.224 269.216,7.610 269.602 C 7.957 269.949,8.272 270.900,8.400 271.985 C 8.530 273.090,8.842 274.021,9.204 274.383 C 9.529 274.708,9.900 275.671,10.027 276.522 C 10.167 277.452,10.491 278.232,10.838 278.475 C 11.157 278.698,11.515 279.457,11.634 280.162 C 11.764 280.934,12.091 281.571,12.457 281.767 C 12.825 281.964,13.143 282.589,13.266 283.357 C 13.381 284.075,13.646 284.622,13.881 284.622 C 14.108 284.622,14.455 285.111,14.652 285.709 C 14.849 286.307,15.211 286.873,15.456 286.967 C 15.700 287.061,16.075 287.719,16.288 288.429 C 16.500 289.140,16.872 289.721,17.112 289.721 C 17.353 289.721,17.644 289.972,17.759 290.279 C 17.875 290.586,18.336 291.211,18.785 291.669 C 19.940 292.845,21.355 294.852,21.355 295.313 C 21.355 295.527,21.652 295.780,22.016 295.875 C 22.379 295.971,22.751 296.333,22.842 296.680 C 22.933 297.027,23.291 297.386,23.639 297.477 C 23.986 297.568,24.348 297.939,24.443 298.303 C 24.538 298.667,24.799 298.964,25.023 298.964 C 25.247 298.964,25.863 299.359,26.391 299.841 C 26.919 300.323,27.823 301.076,28.399 301.514 C 28.975 301.952,29.835 302.705,30.309 303.187 C 30.784 303.669,31.322 304.064,31.504 304.064 C 31.687 304.064,32.024 304.331,32.253 304.658 C 32.482 304.985,33.116 305.351,33.661 305.471 C 34.207 305.591,34.959 306.040,35.333 306.470 C 35.706 306.899,36.243 307.251,36.526 307.251 C 36.808 307.251,37.466 307.610,37.986 308.048 C 38.507 308.486,39.204 308.845,39.535 308.845 C 39.866 308.845,40.286 309.123,40.468 309.463 C 40.687 309.873,41.296 310.155,42.274 310.302 C 43.086 310.424,44.016 310.789,44.341 311.114 C 44.666 311.439,45.543 311.797,46.290 311.909 C 47.038 312.022,47.936 312.371,48.287 312.684 C 48.637 312.996,49.641 313.347,50.518 313.462 C 52.300 313.696,53.865 314.218,53.865 314.577 C 53.865 314.708,55.160 314.959,56.743 315.136 C 58.496 315.332,59.836 315.650,60.169 315.950 C 60.572 316.313,61.982 316.528,65.498 316.764 C 70.458 317.096,72.351 317.514,72.351 318.278 C 72.351 318.661,94.984 318.725,230.114 318.725 L 387.877 318.725 387.962 285.657 C 388.009 267.470,388.000 252.518,387.942 252.430 C 387.883 252.343,321.718 252.199,240.907 252.112 C 105.375 251.965,93.956 251.912,93.688 251.431 C 93.523 251.137,92.781 250.818,91.979 250.698 C 91.200 250.581,90.211 250.209,89.781 249.871 C 89.351 249.532,88.624 249.113,88.165 248.939 C 87.706 248.764,87.331 248.399,87.331 248.127 C 87.331 247.856,86.972 247.497,86.534 247.331 C 86.096 247.164,85.737 246.805,85.737 246.534 C 85.737 246.262,85.378 245.904,84.940 245.737 C 84.502 245.570,84.143 245.240,84.143 245.004 C 84.143 244.767,83.802 244.253,83.385 243.861 C 82.968 243.469,82.544 242.640,82.444 242.018 C 82.343 241.397,82.006 240.702,81.695 240.475 C 80.722 239.764,80.688 237.036,80.682 159.044 C 80.677 82.616,80.721 78.962,81.663 78.274 C 81.946 78.066,82.281 77.348,82.407 76.677 C 82.533 76.007,82.916 75.225,83.259 74.940 C 83.602 74.655,84.010 74.100,84.165 73.705 C 84.320 73.311,84.655 72.988,84.911 72.988 C 85.166 72.988,85.469 72.692,85.584 72.331 C 85.699 71.970,86.138 71.517,86.562 71.324 C 86.985 71.131,87.331 70.774,87.331 70.530 C 87.331 70.286,87.749 69.940,88.261 69.762 C 88.773 69.584,89.267 69.241,89.359 69.002 C 89.536 68.540,91.464 67.893,92.669 67.890 C 93.064 67.889,93.673 67.602,94.024 67.251 C 94.659 66.616,95.086 66.614,200.144 66.614 C 305.174 66.614,307.251 66.632,307.251 67.591 C 307.251 67.722,307.952 67.925,308.809 68.043 C 309.881 68.190,310.576 68.498,311.038 69.029 C 311.407 69.453,311.868 69.801,312.063 69.801 C 312.565 69.801,316.175 73.553,316.175 74.075 C 316.175 74.313,316.442 74.577,316.768 74.662 C 317.094 74.747,317.458 75.207,317.577 75.683 C 317.697 76.159,318.076 76.850,318.419 77.219 C 318.763 77.587,319.053 78.113,319.064 78.387 C 319.074 78.661,319.239 79.960,319.429 81.275 C 320.498 88.666,319.726 118.738,318.438 119.849 C 318.127 120.117,317.769 120.762,317.641 121.284 C 317.403 122.248,317.266 122.424,314.780 124.940 C 312.730 127.015,311.430 128.127,311.057 128.127 C 310.877 128.127,310.437 128.401,310.078 128.735 C 309.630 129.153,308.710 129.415,307.143 129.572 C 305.888 129.697,304.578 129.997,304.232 130.238 C 303.702 130.609,288.889 130.677,209.530 130.677 C 130.660 130.677,115.398 130.747,115.097 131.110 C 114.835 131.427,114.760 140.162,114.819 163.540 L 114.900 195.538 224.382 195.538 L 333.865 195.538 335.299 194.853 C 336.309 194.370,337.664 194.104,339.884 193.954 C 342.156 193.800,343.267 193.577,343.868 193.157 C 344.326 192.836,345.558 192.482,346.605 192.371 C 347.777 192.247,348.757 191.943,349.155 191.581 C 349.510 191.257,350.518 190.891,351.394 190.768 C 352.271 190.644,353.275 190.288,353.625 189.975 C 353.976 189.663,354.790 189.327,355.434 189.229 C 356.078 189.132,356.903 188.754,357.267 188.390 C 357.631 188.027,358.266 187.729,358.679 187.729 C 359.091 187.729,359.816 187.371,360.289 186.932 C 360.761 186.494,361.420 186.135,361.753 186.135 C 362.086 186.135,362.728 185.792,363.181 185.372 C 363.634 184.952,364.502 184.516,365.110 184.402 C 365.782 184.275,366.215 184.009,366.215 183.721 C 366.215 183.460,366.466 183.156,366.773 183.044 C 367.080 182.932,367.802 182.435,368.378 181.938 C 368.953 181.442,369.706 181.036,370.051 181.036 C 370.400 181.036,370.677 180.821,370.677 180.550 C 370.677 180.283,371.027 179.931,371.455 179.768 C 371.882 179.606,372.389 179.179,372.581 178.820 C 372.774 178.461,373.144 178.167,373.406 178.167 C 373.667 178.167,374.017 177.809,374.183 177.371 C 374.350 176.932,374.708 176.574,374.980 176.574 C 375.252 176.574,375.610 176.215,375.777 175.777 C 375.944 175.339,376.302 174.980,376.574 174.980 C 376.845 174.980,377.204 174.622,377.371 174.183 C 377.537 173.745,377.869 173.386,378.108 173.386 C 378.347 173.386,378.708 173.024,378.910 172.581 C 379.112 172.138,379.494 171.692,379.758 171.590 C 380.023 171.489,380.239 171.226,380.239 171.006 C 380.239 170.602,381.547 168.727,382.742 167.417 C 383.098 167.026,383.630 166.201,383.923 165.584 C 384.215 164.967,384.582 164.462,384.738 164.462 C 384.893 164.462,385.020 164.240,385.020 163.970 C 385.020 163.699,385.391 163.106,385.843 162.653 C 386.296 162.201,386.747 161.335,386.846 160.730 C 386.944 160.124,387.294 159.462,387.624 159.257 C 387.959 159.049,388.309 158.353,388.417 157.677 C 388.524 157.014,388.865 156.292,389.176 156.075 C 389.502 155.847,389.834 155.054,389.962 154.200 C 390.084 153.386,390.445 152.440,390.764 152.098 C 391.082 151.756,391.445 150.776,391.569 149.921 C 391.794 148.368,392.220 147.241,392.701 146.923 C 392.841 146.831,393.049 145.755,393.162 144.533 C 393.285 143.210,393.600 141.981,393.939 141.497 C 394.354 140.904,394.599 139.589,394.845 136.644 C 395.065 134.007,395.383 132.186,395.759 131.401 C 396.652 129.538,396.652 67.434,395.759 65.571 C 395.380 64.781,395.068 62.975,394.849 60.312 C 394.623 57.559,394.363 56.082,394.040 55.718 C 393.773 55.417,393.424 54.013,393.248 52.530 C 393.040 50.784,392.737 49.663,392.360 49.243 C 392.038 48.885,391.694 47.828,391.575 46.830 C 391.443 45.722,391.147 44.870,390.789 44.564 C 390.473 44.293,390.119 43.469,390.001 42.732 C 389.883 41.995,389.513 41.098,389.178 40.739 C 388.843 40.380,388.474 39.519,388.357 38.826 C 388.239 38.132,387.950 37.491,387.713 37.400 C 387.476 37.309,387.111 36.717,386.903 36.085 C 386.694 35.453,386.257 34.650,385.931 34.300 C 385.605 33.951,385.339 33.476,385.339 33.245 C 385.339 33.014,384.987 32.519,384.558 32.145 C 384.128 31.772,383.678 31.020,383.559 30.474 C 383.439 29.929,383.073 29.295,382.746 29.066 C 382.419 28.837,382.151 28.516,382.151 28.353 C 382.151 27.598,371.241 16.706,369.964 16.186 C 369.655 16.060,369.402 15.740,369.402 15.475 C 369.402 15.209,369.008 14.895,368.526 14.777 C 367.635 14.559,366.478 13.802,365.064 12.513 C 364.633 12.121,363.891 11.704,363.415 11.588 C 362.939 11.472,362.144 11.040,361.649 10.629 C 361.153 10.217,360.472 9.880,360.135 9.880 C 359.798 9.880,359.219 9.578,358.849 9.208 C 358.480 8.838,357.613 8.460,356.925 8.368 C 356.236 8.275,355.495 7.946,355.277 7.636 C 355.050 7.311,354.255 6.978,353.403 6.850 C 352.589 6.728,351.647 6.371,351.309 6.056 C 350.956 5.728,349.773 5.340,348.536 5.147 C 347.350 4.963,346.143 4.598,345.856 4.338 C 345.540 4.052,344.327 3.782,342.786 3.655 C 341.101 3.516,339.955 3.245,339.399 2.856 C 338.708 2.370,337.530 2.209,332.706 1.940 C 326.523 1.595,324.462 1.226,324.462 0.463 C 324.462 0.059,308.711 0.000,200.637 0.000 C 99.614 0.000,76.813 0.076,76.813 0.412 " stroke="none" fill="#045363" fill-rule="evenodd"></path><path id="path2" d="M66.614 0.478 C 66.614 0.760,66.319 0.958,65.896 0.962 C 63.825 0.978,59.145 1.649,58.393 2.038 C 57.918 2.283,56.669 2.584,55.617 2.707 C 54.566 2.829,53.126 3.200,52.419 3.531 C 51.712 3.863,50.359 4.281,49.413 4.460 C 48.468 4.639,47.466 4.992,47.189 5.243 C 46.911 5.495,46.085 5.835,45.353 5.999 C 44.621 6.164,43.636 6.602,43.163 6.974 C 42.691 7.345,41.976 7.649,41.575 7.649 C 41.174 7.649,40.420 8.008,39.899 8.446 C 39.378 8.884,38.741 9.243,38.483 9.243 C 38.225 9.243,37.643 9.535,37.189 9.892 C 36.736 10.249,35.928 10.693,35.393 10.879 C 34.859 11.065,34.422 11.345,34.422 11.501 C 34.422 11.657,33.896 12.004,33.253 12.273 C 32.609 12.542,31.884 13.046,31.641 13.393 C 31.398 13.740,30.993 14.024,30.742 14.024 C 30.490 14.024,30.105 14.311,29.886 14.661 C 29.667 15.012,29.311 15.299,29.095 15.299 C 28.568 15.299,24.591 18.745,22.356 21.138 C 21.367 22.196,20.268 23.359,19.914 23.722 C 19.560 24.085,18.771 25.077,18.161 25.925 C 17.551 26.774,16.729 27.768,16.335 28.134 C 15.940 28.500,15.618 28.978,15.618 29.196 C 15.618 29.414,15.259 30.019,14.821 30.539 C 14.382 31.060,14.024 31.634,14.024 31.814 C 14.024 31.995,13.685 32.548,13.271 33.043 C 12.856 33.539,12.410 34.303,12.278 34.741 C 12.146 35.179,11.787 35.825,11.479 36.175 C 11.172 36.526,10.821 37.232,10.699 37.744 C 10.578 38.256,10.212 39.013,9.887 39.426 C 9.562 39.840,9.202 40.736,9.086 41.419 C 8.971 42.101,8.684 42.733,8.449 42.823 C 8.214 42.913,7.851 43.821,7.643 44.840 C 7.435 45.859,7.061 46.924,6.812 47.205 C 6.563 47.487,6.198 48.634,6.001 49.755 C 5.805 50.876,5.448 52.092,5.210 52.458 C 4.971 52.823,4.630 54.329,4.450 55.804 C 4.271 57.279,3.904 59.052,3.633 59.744 C 1.510 65.181,1.499 252.065,3.621 258.510 C 3.877 259.286,4.239 261.105,4.427 262.553 C 4.615 264.002,4.980 265.596,5.239 266.096 C 5.498 266.597,5.854 267.905,6.031 269.004 C 6.208 270.103,6.558 271.233,6.809 271.517 C 7.059 271.800,7.431 272.846,7.634 273.840 C 7.837 274.835,8.212 275.821,8.467 276.033 C 8.721 276.244,9.018 276.969,9.126 277.642 C 9.234 278.316,9.663 279.329,10.079 279.894 C 10.496 280.459,10.837 281.152,10.837 281.434 C 10.837 281.717,11.195 282.434,11.633 283.028 C 12.072 283.622,12.430 284.295,12.430 284.524 C 12.430 284.753,12.687 285.197,13.002 285.512 C 13.316 285.826,13.759 286.533,13.987 287.082 C 14.215 287.632,14.675 288.329,15.009 288.632 C 15.344 288.935,15.618 289.374,15.618 289.608 C 15.618 289.843,15.904 290.214,16.255 290.433 C 16.606 290.651,16.892 290.998,16.892 291.203 C 16.892 292.107,23.887 299.614,27.242 302.311 C 27.896 302.837,28.596 303.420,28.797 303.607 C 28.999 303.794,29.594 304.217,30.120 304.548 C 30.645 304.878,31.291 305.339,31.554 305.572 C 32.455 306.369,34.900 307.877,35.302 307.883 C 35.523 307.886,35.948 308.174,36.248 308.524 C 36.547 308.874,37.279 309.320,37.875 309.517 C 38.471 309.714,39.213 310.130,39.525 310.441 C 39.837 310.753,40.670 311.106,41.376 311.225 C 42.082 311.344,42.735 311.639,42.827 311.879 C 42.919 312.119,43.540 312.414,44.206 312.535 C 44.873 312.656,46.005 313.094,46.721 313.509 C 47.438 313.924,48.376 314.263,48.805 314.263 C 49.235 314.263,50.155 314.553,50.849 314.908 C 51.543 315.263,53.108 315.709,54.327 315.899 C 55.545 316.089,56.849 316.445,57.224 316.691 C 57.762 317.044,62.406 317.715,64.622 317.761 C 64.841 317.765,65.020 317.984,65.020 318.247 C 65.020 318.601,65.392 318.725,66.454 318.725 C 67.460 318.725,67.888 318.594,67.888 318.286 C 67.888 317.835,64.283 317.131,61.969 317.131 C 61.357 317.131,60.027 316.852,59.013 316.510 C 57.999 316.169,56.294 315.749,55.225 315.576 C 54.156 315.404,52.874 315.056,52.377 314.802 C 51.881 314.548,50.757 314.186,49.880 313.997 C 49.004 313.808,47.719 313.360,47.024 313.002 C 46.330 312.644,45.541 312.350,45.271 312.349 C 45.002 312.348,44.207 311.994,43.506 311.562 C 42.805 311.130,41.928 310.772,41.557 310.767 C 41.186 310.761,40.538 310.486,40.117 310.155 C 39.696 309.824,38.852 309.321,38.242 309.038 C 37.631 308.755,36.486 308.095,35.697 307.570 C 34.908 307.046,33.896 306.436,33.448 306.217 C 32.535 305.769,31.852 305.256,27.638 301.850 C 23.850 298.788,21.274 296.206,19.033 293.227 C 18.044 291.912,16.961 290.550,16.625 290.199 C 16.289 289.849,15.961 289.418,15.895 289.243 C 15.595 288.438,13.625 285.271,13.211 284.927 C 12.957 284.716,12.749 284.294,12.749 283.988 C 12.749 283.683,12.457 283.061,12.100 282.608 C 11.743 282.154,11.290 281.310,11.093 280.732 C 10.896 280.154,10.471 279.339,10.148 278.921 C 9.826 278.503,9.562 277.857,9.562 277.484 C 9.562 277.112,9.223 276.163,8.808 275.376 C 8.394 274.589,7.953 273.385,7.829 272.702 C 7.705 272.019,7.402 271.153,7.156 270.778 C 6.910 270.402,6.498 268.994,6.240 267.649 C 5.983 266.304,5.602 264.885,5.394 264.497 C 5.186 264.108,4.887 262.636,4.729 261.225 C 4.571 259.814,4.222 257.809,3.952 256.769 C 2.972 252.986,2.882 244.808,2.880 158.884 C 2.878 72.475,2.964 64.732,3.960 61.355 C 4.219 60.478,4.577 58.579,4.756 57.133 C 4.935 55.688,5.282 54.111,5.527 53.627 C 5.772 53.144,6.131 51.833,6.325 50.714 C 6.518 49.594,6.885 48.360,7.140 47.971 C 7.395 47.583,7.701 46.706,7.821 46.023 C 7.941 45.340,8.382 44.182,8.801 43.449 C 9.219 42.717,9.562 41.877,9.562 41.584 C 9.562 41.098,10.192 39.708,11.580 37.131 C 11.864 36.606,12.366 35.600,12.697 34.896 C 13.028 34.192,13.534 33.422,13.821 33.184 C 14.108 32.945,14.345 32.589,14.348 32.391 C 14.355 31.981,15.908 29.575,16.974 28.323 C 17.367 27.861,17.976 27.103,18.327 26.638 C 22.213 21.487,26.357 17.582,31.957 13.796 C 33.050 13.057,34.303 12.197,34.741 11.886 C 35.179 11.575,36.644 10.776,37.997 10.110 C 39.349 9.444,40.539 8.765,40.640 8.602 C 40.741 8.438,41.422 8.143,42.154 7.946 C 42.885 7.749,43.831 7.315,44.255 6.981 C 44.679 6.648,45.332 6.375,45.705 6.375 C 46.078 6.375,46.917 6.089,47.568 5.740 C 48.219 5.391,49.436 4.955,50.273 4.772 C 51.109 4.589,52.510 4.170,53.386 3.841 C 54.263 3.511,55.841 3.096,56.892 2.917 C 57.944 2.738,59.665 2.373,60.717 2.105 C 61.769 1.837,64.530 1.451,66.853 1.247 C 71.727 0.820,73.036 0.000,68.845 0.000 C 67.074 0.000,66.614 0.099,66.614 0.478 M330.199 0.441 C 330.199 0.907,330.977 1.045,336.574 1.576 C 338.239 1.733,340.104 2.074,340.717 2.332 C 341.331 2.591,342.886 2.964,344.174 3.162 C 345.462 3.359,346.896 3.716,347.361 3.953 C 347.827 4.190,348.924 4.539,349.801 4.728 C 350.677 4.917,351.963 5.365,352.657 5.723 C 353.351 6.081,354.115 6.375,354.353 6.375 C 354.592 6.375,355.386 6.719,356.119 7.140 C 356.851 7.561,357.915 8.002,358.482 8.121 C 359.050 8.239,359.604 8.480,359.713 8.656 C 359.822 8.833,360.505 9.258,361.230 9.602 C 362.524 10.214,363.923 11.028,365.768 12.242 C 366.277 12.577,367.267 13.220,367.968 13.670 C 372.129 16.343,377.961 21.850,381.514 26.463 C 381.952 27.031,382.705 27.963,383.187 28.532 C 383.669 29.101,384.064 29.669,384.064 29.794 C 384.064 29.919,384.386 30.474,384.780 31.026 C 385.174 31.579,385.712 32.424,385.975 32.902 C 386.239 33.381,386.992 34.712,387.649 35.861 C 388.307 37.010,388.845 38.141,388.845 38.374 C 388.845 38.608,389.118 39.146,389.451 39.570 C 389.785 39.994,390.221 40.948,390.421 41.689 C 390.621 42.431,391.049 43.501,391.373 44.069 C 391.696 44.636,392.059 45.658,392.179 46.341 C 392.299 47.024,392.609 47.907,392.868 48.302 C 393.127 48.698,393.491 50.004,393.677 51.204 C 393.863 52.404,394.220 53.785,394.470 54.271 C 394.721 54.758,395.067 56.408,395.240 57.937 C 395.412 59.466,395.779 61.566,396.055 62.603 C 397.612 68.458,397.584 129.320,396.022 134.580 C 395.751 135.494,395.440 137.249,395.332 138.480 C 395.224 139.710,394.928 141.219,394.675 141.833 C 394.422 142.446,394.007 144.018,393.753 145.326 C 393.499 146.634,393.096 148.003,392.858 148.367 C 392.619 148.731,392.256 149.837,392.051 150.825 C 391.846 151.812,391.475 152.789,391.226 152.996 C 390.977 153.202,390.685 153.894,390.576 154.534 C 390.468 155.174,390.128 156.056,389.821 156.494 C 389.515 156.932,389.091 157.817,388.879 158.461 C 388.667 159.104,388.295 159.795,388.052 159.997 C 387.809 160.198,387.521 160.773,387.410 161.275 C 387.300 161.777,386.982 162.376,386.703 162.607 C 386.424 162.839,385.997 163.458,385.753 163.984 C 385.280 165.007,384.046 166.866,383.320 167.649 C 383.076 167.912,382.694 168.486,382.471 168.924 C 381.442 170.942,371.784 181.005,370.199 181.711 C 369.849 181.867,368.916 182.493,368.127 183.103 C 367.339 183.713,366.141 184.537,365.466 184.935 C 362.631 186.604,361.229 187.395,360.478 187.750 C 360.040 187.956,358.836 188.538,357.804 189.043 C 356.771 189.547,355.677 189.960,355.373 189.960 C 355.068 189.960,354.651 190.163,354.446 190.410 C 354.240 190.658,353.326 191.038,352.414 191.255 C 351.503 191.473,350.468 191.838,350.115 192.067 C 349.762 192.297,348.687 192.643,347.725 192.837 C 346.763 193.030,345.304 193.466,344.483 193.806 C 343.661 194.145,342.429 194.422,341.745 194.422 C 341.060 194.422,339.366 194.721,337.979 195.086 C 332.130 196.626,331.609 196.633,219.522 196.644 C 114.842 196.653,114.740 196.653,114.098 196.010 C 113.415 195.327,113.212 130.506,113.891 129.827 C 114.037 129.681,157.495 129.490,210.465 129.402 C 263.434 129.315,307.060 129.121,307.410 128.973 C 311.932 127.054,316.489 123.314,316.969 121.128 C 317.083 120.612,317.463 119.824,317.813 119.378 C 318.879 118.024,319.108 113.498,318.992 96.133 L 318.884 80.159 317.682 77.769 C 314.992 72.420,312.074 69.845,306.614 68.002 C 304.102 67.154,98.565 66.905,95.617 67.746 C 94.653 68.021,93.291 68.360,92.590 68.500 C 89.353 69.147,82.869 75.100,82.869 77.425 C 82.869 77.628,82.546 78.398,82.151 79.136 L 81.434 80.478 81.351 157.601 C 81.266 236.298,81.275 236.936,82.523 240.378 C 84.078 244.663,89.727 250.193,92.558 250.201 C 92.926 250.202,93.657 250.453,94.183 250.759 C 95.088 251.285,102.973 251.319,241.579 251.396 C 322.121 251.441,388.138 251.597,388.284 251.742 C 388.430 251.888,388.541 267.019,388.532 285.366 C 388.520 307.786,388.621 318.725,388.839 318.725 C 389.518 318.725,389.262 251.981,388.580 251.364 C 388.040 250.875,377.482 250.837,243.106 250.837 C 81.357 250.837,93.951 251.007,90.662 248.775 C 90.008 248.331,89.330 247.968,89.155 247.968 C 88.981 247.968,88.516 247.645,88.123 247.251 C 87.730 246.857,86.915 246.089,86.312 245.545 C 85.709 245.001,85.033 244.115,84.810 243.576 C 84.587 243.037,84.130 242.348,83.796 242.045 C 83.461 241.743,83.187 241.164,83.187 240.759 C 83.187 240.355,82.865 239.265,82.470 238.338 L 81.753 236.653 81.753 159.030 C 81.753 86.035,81.786 81.356,82.303 80.566 C 82.606 80.104,82.947 79.144,83.061 78.432 C 83.175 77.720,83.597 76.782,84.000 76.348 C 84.402 75.914,84.827 75.257,84.944 74.889 C 85.251 73.920,88.320 70.953,89.535 70.449 C 90.105 70.213,90.754 69.838,90.976 69.616 C 92.756 67.836,89.506 67.887,200.383 67.904 C 312.163 67.921,307.218 67.838,309.650 69.750 C 310.131 70.129,310.720 70.438,310.959 70.438 C 311.526 70.438,315.096 74.009,315.359 74.839 C 315.471 75.191,315.772 75.559,316.028 75.658 C 316.284 75.756,316.494 76.009,316.494 76.220 C 316.494 76.431,316.929 77.495,317.460 78.586 L 318.426 80.569 318.337 99.010 L 318.247 117.450 317.531 118.566 C 317.137 119.179,316.815 119.913,316.814 120.195 C 316.812 121.024,313.138 125.578,312.472 125.578 C 312.273 125.578,311.930 125.795,311.710 126.060 C 311.490 126.325,310.361 127.006,309.201 127.574 L 307.092 128.606 210.609 128.765 C 118.530 128.917,114.100 128.950,113.557 129.493 C 112.673 130.378,112.673 195.996,113.557 196.881 C 114.232 197.556,321.218 197.950,325.850 197.285 C 327.102 197.106,330.332 196.745,333.026 196.484 C 335.721 196.223,338.374 195.801,338.923 195.546 C 339.471 195.291,341.127 194.935,342.602 194.755 C 344.077 194.575,345.596 194.222,345.978 193.972 C 346.360 193.722,347.508 193.362,348.530 193.174 C 349.551 192.985,350.613 192.633,350.890 192.392 C 351.168 192.151,352.140 191.779,353.052 191.566 C 353.964 191.353,354.867 190.989,355.060 190.757 C 355.252 190.525,356.131 190.162,357.012 189.951 C 357.894 189.739,358.685 189.382,358.771 189.158 C 358.857 188.934,359.569 188.588,360.353 188.391 C 361.138 188.194,361.855 187.833,361.948 187.591 C 362.042 187.348,362.492 187.055,362.950 186.940 C 363.407 186.825,364.197 186.382,364.704 185.955 C 365.212 185.529,365.823 185.179,366.062 185.179 C 366.302 185.179,366.685 184.928,366.914 184.622 C 367.143 184.315,367.869 183.815,368.526 183.511 C 369.183 183.207,369.721 182.822,369.721 182.656 C 369.721 182.490,369.978 182.272,370.293 182.172 C 370.843 181.998,375.034 178.239,376.963 176.191 C 377.178 175.963,377.501 175.633,377.682 175.458 C 379.419 173.775,381.195 171.783,381.195 171.518 C 381.195 171.339,381.452 171.004,381.767 170.775 C 382.081 170.546,382.619 169.906,382.962 169.352 C 383.305 168.798,384.145 167.507,384.829 166.483 C 387.330 162.739,387.570 162.350,387.570 162.037 C 387.570 161.861,387.928 161.231,388.367 160.637 C 388.805 160.043,389.163 159.318,389.163 159.025 C 389.163 158.732,389.467 158.106,389.839 157.633 C 390.211 157.161,390.649 156.176,390.814 155.444 C 390.978 154.712,391.341 153.861,391.619 153.553 C 391.898 153.245,392.243 152.256,392.385 151.356 C 392.527 150.456,392.869 149.471,393.144 149.167 C 393.419 148.863,393.781 147.777,393.947 146.754 C 394.114 145.731,394.471 144.428,394.741 143.859 C 395.012 143.289,395.377 141.632,395.554 140.177 C 395.731 138.721,396.098 136.959,396.370 136.262 C 398.232 131.495,398.213 66.507,396.348 60.717 C 396.066 59.841,395.704 57.926,395.543 56.463 C 395.383 55.000,395.045 53.487,394.792 53.101 C 394.540 52.716,394.181 51.422,393.994 50.226 C 393.808 49.030,393.449 47.818,393.196 47.532 C 392.943 47.246,392.569 46.198,392.366 45.204 C 392.163 44.209,391.788 43.223,391.533 43.011 C 391.279 42.799,390.978 42.049,390.865 41.344 C 390.752 40.639,390.403 39.805,390.088 39.490 C 389.773 39.176,389.364 38.354,389.178 37.664 C 388.992 36.973,388.626 36.231,388.364 36.014 C 388.103 35.797,387.888 35.446,387.888 35.235 C 387.888 35.023,387.458 34.180,386.932 33.361 C 386.406 32.543,385.546 31.191,385.020 30.359 C 382.057 25.667,373.824 16.776,371.142 15.370 C 370.711 15.144,370.359 14.835,370.359 14.682 C 370.359 14.530,369.928 14.255,369.402 14.072 C 368.876 13.888,368.446 13.590,368.446 13.410 C 368.446 13.229,367.899 12.801,367.230 12.460 C 366.561 12.119,365.826 11.614,365.597 11.338 C 365.368 11.062,364.934 10.837,364.632 10.837 C 364.330 10.837,363.828 10.555,363.517 10.211 C 363.206 9.867,362.450 9.420,361.837 9.218 C 361.224 9.016,360.453 8.580,360.122 8.250 C 359.792 7.920,359.102 7.649,358.589 7.649 C 358.075 7.649,357.463 7.457,357.227 7.222 C 356.607 6.601,355.686 6.174,354.476 5.944 C 353.892 5.833,353.048 5.455,352.600 5.102 C 352.153 4.750,351.338 4.462,350.789 4.462 C 350.240 4.462,349.227 4.160,348.537 3.790 C 347.847 3.420,346.277 2.978,345.050 2.808 C 343.822 2.638,342.423 2.294,341.940 2.045 C 341.177 1.650,336.510 0.978,334.422 0.962 C 334.000 0.958,333.705 0.760,333.705 0.478 C 333.705 0.111,333.298 0.000,331.952 0.000 C 330.671 0.000,330.199 0.119,330.199 0.441 " stroke="none" fill="#84a4ac" fill-rule="evenodd"></path><path id="path3" d="M72.351 0.464 C 72.351 1.036,71.475 1.191,66.135 1.567 C 63.857 1.727,61.347 2.087,60.558 2.366 C 59.769 2.646,58.055 3.028,56.750 3.216 C 55.444 3.404,53.866 3.812,53.244 4.124 C 52.621 4.435,51.412 4.782,50.556 4.895 C 49.701 5.007,48.553 5.367,48.006 5.695 C 47.459 6.023,46.534 6.380,45.950 6.489 C 45.366 6.598,44.522 6.976,44.075 7.328 C 43.627 7.680,43.067 7.968,42.830 7.968 C 42.313 7.968,38.715 9.785,37.646 10.586 C 37.228 10.899,36.673 11.155,36.413 11.155 C 36.153 11.155,35.451 11.586,34.852 12.112 C 34.253 12.637,33.575 13.068,33.345 13.068 C 33.115 13.068,32.668 13.355,32.351 13.705 C 32.033 14.056,31.651 14.343,31.501 14.343 C 31.025 14.343,27.063 17.596,24.320 20.239 C 21.949 22.523,20.625 24.005,18.389 26.875 C 18.004 27.369,17.402 28.079,17.052 28.452 C 16.433 29.110,16.230 29.433,14.764 32.091 C 14.383 32.783,13.854 33.529,13.590 33.749 C 13.325 33.968,13.020 34.553,12.911 35.049 C 12.802 35.544,12.437 36.200,12.100 36.505 C 11.762 36.810,11.397 37.537,11.287 38.121 C 11.178 38.705,10.832 39.479,10.518 39.841 C 10.204 40.202,9.849 41.024,9.728 41.666 C 9.608 42.309,9.238 43.180,8.906 43.601 C 8.575 44.023,8.218 44.891,8.112 45.530 C 8.007 46.170,7.573 47.500,7.148 48.486 C 6.722 49.472,6.371 50.763,6.368 51.355 C 6.364 51.946,6.068 53.075,5.711 53.863 C 5.353 54.651,4.982 56.228,4.885 57.369 C 4.789 58.509,4.403 60.518,4.028 61.833 L 3.347 64.223 3.251 156.972 C 3.155 249.100,3.205 254.493,4.166 256.296 C 4.319 256.582,4.580 258.266,4.747 260.038 C 4.915 261.827,5.285 263.723,5.579 264.300 C 5.870 264.871,6.240 266.241,6.402 267.345 C 6.563 268.448,6.981 269.912,7.331 270.599 C 7.682 271.285,7.968 272.190,7.968 272.609 C 7.968 273.028,8.310 274.014,8.728 274.801 C 9.146 275.587,9.586 276.677,9.706 277.223 C 9.826 277.770,10.183 278.547,10.498 278.949 C 10.814 279.352,11.171 280.133,11.291 280.684 C 11.412 281.236,11.781 281.932,12.112 282.231 C 12.442 282.530,12.802 283.181,12.911 283.676 C 13.020 284.172,13.327 284.759,13.594 284.980 C 13.860 285.201,14.297 285.928,14.564 286.595 C 14.831 287.263,15.167 287.809,15.312 287.809 C 15.456 287.809,15.677 288.131,15.802 288.524 C 15.927 288.918,16.797 290.145,17.735 291.252 C 18.674 292.358,19.442 293.378,19.442 293.517 C 19.442 294.176,26.538 300.940,29.801 303.391 C 30.502 303.917,31.434 304.622,31.873 304.957 C 32.311 305.291,33.100 305.811,33.625 306.111 C 34.151 306.412,35.155 307.006,35.857 307.431 C 36.558 307.857,37.722 308.491,38.444 308.840 C 39.166 309.189,39.924 309.676,40.129 309.923 C 40.333 310.170,41.026 310.470,41.668 310.590 C 42.310 310.711,43.180 311.081,43.601 311.412 C 44.023 311.744,44.891 312.108,45.530 312.222 C 46.170 312.335,47.124 312.686,47.649 313.000 C 48.175 313.315,49.179 313.674,49.880 313.798 C 50.582 313.923,51.755 314.293,52.489 314.620 C 53.222 314.948,54.728 315.348,55.835 315.509 C 56.943 315.671,58.379 316.029,59.027 316.305 C 59.675 316.581,61.883 316.954,63.933 317.134 C 68.377 317.524,69.163 317.696,69.163 318.282 C 69.163 318.601,69.608 318.725,70.757 318.725 C 71.912 318.725,72.351 318.602,72.351 318.278 C 72.351 317.514,70.458 317.096,65.498 316.764 C 61.982 316.528,60.572 316.313,60.169 315.950 C 59.836 315.650,58.496 315.332,56.743 315.136 C 55.160 314.959,53.865 314.708,53.865 314.577 C 53.865 314.218,52.300 313.696,50.518 313.462 C 49.641 313.347,48.637 312.996,48.287 312.684 C 47.936 312.371,47.038 312.022,46.290 311.909 C 45.543 311.797,44.666 311.439,44.341 311.114 C 44.016 310.789,43.086 310.424,42.274 310.302 C 41.296 310.155,40.687 309.873,40.468 309.463 C 40.286 309.123,39.866 308.845,39.535 308.845 C 39.204 308.845,38.507 308.486,37.986 308.048 C 37.466 307.610,36.808 307.251,36.526 307.251 C 36.243 307.251,35.706 306.899,35.333 306.470 C 34.959 306.040,34.207 305.591,33.661 305.471 C 33.116 305.351,32.482 304.985,32.253 304.658 C 32.024 304.331,31.687 304.064,31.504 304.064 C 31.322 304.064,30.784 303.669,30.309 303.187 C 29.835 302.705,28.975 301.952,28.399 301.514 C 27.823 301.076,26.919 300.323,26.391 299.841 C 25.863 299.359,25.247 298.964,25.023 298.964 C 24.799 298.964,24.538 298.667,24.443 298.303 C 24.348 297.939,23.986 297.568,23.639 297.477 C 23.291 297.386,22.933 297.027,22.842 296.680 C 22.751 296.333,22.379 295.971,22.016 295.875 C 21.652 295.780,21.355 295.527,21.355 295.313 C 21.355 294.852,19.940 292.845,18.785 291.669 C 18.336 291.211,17.875 290.586,17.759 290.279 C 17.644 289.972,17.353 289.721,17.112 289.721 C 16.872 289.721,16.500 289.140,16.288 288.429 C 16.075 287.719,15.700 287.061,15.456 286.967 C 15.211 286.873,14.849 286.307,14.652 285.709 C 14.455 285.111,14.108 284.622,13.881 284.622 C 13.646 284.622,13.381 284.075,13.266 283.357 C 13.143 282.589,12.825 281.964,12.457 281.767 C 12.091 281.571,11.764 280.934,11.634 280.162 C 11.515 279.457,11.157 278.698,10.838 278.475 C 10.491 278.232,10.167 277.452,10.027 276.522 C 9.900 275.671,9.529 274.708,9.204 274.383 C 8.842 274.021,8.530 273.090,8.400 271.985 C 8.272 270.900,7.957 269.949,7.610 269.602 C 7.224 269.216,6.961 268.305,6.819 266.862 C 6.618 264.814,6.255 263.623,5.722 263.267 C 5.591 263.179,5.334 261.195,5.150 258.857 C 4.903 255.693,4.670 254.388,4.241 253.757 C 3.349 252.442,3.341 66.174,4.234 64.311 C 4.585 63.579,4.933 61.684,5.142 59.370 C 5.363 56.912,5.644 55.434,5.954 55.085 C 6.214 54.792,6.575 53.450,6.755 52.102 C 6.961 50.558,7.287 49.446,7.635 49.098 C 7.955 48.778,8.277 47.787,8.400 46.740 C 8.530 45.635,8.842 44.704,9.204 44.342 C 9.529 44.017,9.891 43.114,10.007 42.336 C 10.125 41.553,10.492 40.688,10.829 40.399 C 11.164 40.112,11.540 39.331,11.664 38.664 C 11.788 37.996,12.149 37.267,12.466 37.043 C 12.783 36.818,13.136 36.133,13.251 35.520 C 13.367 34.907,13.731 34.260,14.061 34.084 C 14.391 33.907,14.661 33.482,14.661 33.139 C 14.661 32.796,14.952 32.335,15.307 32.114 C 15.662 31.894,16.097 31.178,16.274 30.523 C 16.451 29.869,16.877 29.183,17.222 28.998 C 17.567 28.814,17.849 28.460,17.849 28.212 C 17.849 27.964,18.052 27.646,18.301 27.506 C 18.550 27.366,19.729 26.104,20.921 24.701 C 23.525 21.637,26.620 18.608,27.770 17.998 C 28.231 17.754,28.693 17.331,28.798 17.059 C 28.902 16.787,29.350 16.426,29.793 16.258 C 30.235 16.090,30.598 15.736,30.598 15.472 C 30.598 15.208,30.992 14.899,31.474 14.785 C 31.956 14.671,32.637 14.319,32.988 14.003 C 33.339 13.687,34.020 13.279,34.502 13.097 C 34.984 12.914,35.378 12.553,35.378 12.293 C 35.378 12.000,35.831 11.738,36.574 11.601 C 37.231 11.480,38.085 11.043,38.471 10.630 C 38.857 10.218,39.516 9.880,39.935 9.880 C 40.355 9.880,40.960 9.591,41.279 9.238 C 41.599 8.885,42.415 8.507,43.093 8.399 C 43.772 8.290,44.504 7.948,44.722 7.637 C 44.952 7.308,45.748 6.978,46.626 6.846 C 47.456 6.722,48.480 6.348,48.901 6.017 C 49.365 5.652,50.454 5.332,51.657 5.206 C 52.890 5.077,53.857 4.788,54.199 4.447 C 54.544 4.102,55.508 3.818,56.777 3.688 C 60.297 3.327,61.196 3.141,61.654 2.683 C 61.980 2.357,63.676 2.157,67.943 1.943 C 73.917 1.643,76.813 1.144,76.813 0.412 C 76.813 0.114,76.193 0.000,74.582 0.000 C 72.842 0.000,72.351 0.102,72.351 0.464 M324.462 0.463 C 324.462 1.226,326.523 1.595,332.706 1.940 C 337.530 2.209,338.708 2.370,339.399 2.856 C 339.955 3.245,341.101 3.516,342.786 3.655 C 344.327 3.782,345.540 4.052,345.856 4.338 C 346.143 4.598,347.350 4.963,348.536 5.147 C 349.773 5.340,350.956 5.728,351.309 6.056 C 351.647 6.371,352.589 6.728,353.403 6.850 C 354.255 6.978,355.050 7.311,355.277 7.636 C 355.495 7.946,356.236 8.275,356.925 8.368 C 357.613 8.460,358.480 8.838,358.849 9.208 C 359.219 9.578,359.798 9.880,360.135 9.880 C 360.472 9.880,361.153 10.217,361.649 10.629 C 362.144 11.040,362.939 11.472,363.415 11.588 C 363.891 11.704,364.633 12.121,365.064 12.513 C 366.478 13.802,367.635 14.559,368.526 14.777 C 369.008 14.895,369.402 15.209,369.402 15.475 C 369.402 15.740,369.655 16.060,369.964 16.186 C 371.241 16.706,382.151 27.598,382.151 28.353 C 382.151 28.516,382.419 28.837,382.746 29.066 C 383.073 29.295,383.439 29.929,383.559 30.474 C 383.678 31.020,384.128 31.772,384.558 32.145 C 384.987 32.519,385.339 33.014,385.339 33.245 C 385.339 33.476,385.605 33.951,385.931 34.300 C 386.257 34.650,386.694 35.453,386.903 36.085 C 387.111 36.717,387.476 37.309,387.713 37.400 C 387.950 37.491,388.239 38.132,388.357 38.826 C 388.474 39.519,388.843 40.380,389.178 40.739 C 389.513 41.098,389.883 41.995,390.001 42.732 C 390.119 43.469,390.473 44.293,390.789 44.564 C 391.147 44.870,391.443 45.722,391.575 46.830 C 391.694 47.828,392.038 48.885,392.360 49.243 C 392.737 49.663,393.040 50.784,393.248 52.530 C 393.424 54.013,393.773 55.417,394.040 55.718 C 394.363 56.082,394.623 57.559,394.849 60.312 C 395.068 62.975,395.380 64.781,395.759 65.571 C 396.652 67.434,396.652 129.538,395.759 131.401 C 395.383 132.186,395.065 134.007,394.845 136.644 C 394.599 139.589,394.354 140.904,393.939 141.497 C 393.600 141.981,393.285 143.210,393.162 144.533 C 393.049 145.755,392.841 146.831,392.701 146.923 C 392.220 147.241,391.794 148.368,391.569 149.921 C 391.445 150.776,391.082 151.756,390.764 152.098 C 390.445 152.440,390.084 153.386,389.962 154.200 C 389.834 155.054,389.502 155.847,389.176 156.075 C 388.865 156.292,388.524 157.014,388.417 157.677 C 388.309 158.353,387.959 159.049,387.624 159.257 C 387.294 159.462,386.944 160.124,386.846 160.730 C 386.747 161.335,386.296 162.201,385.843 162.653 C 385.391 163.106,385.020 163.699,385.020 163.970 C 385.020 164.240,384.893 164.462,384.738 164.462 C 384.582 164.462,384.215 164.967,383.923 165.584 C 383.630 166.201,383.098 167.026,382.742 167.417 C 381.547 168.727,380.239 170.602,380.239 171.006 C 380.239 171.226,380.023 171.489,379.758 171.590 C 379.494 171.692,379.112 172.138,378.910 172.581 C 378.708 173.024,378.347 173.386,378.108 173.386 C 377.869 173.386,377.537 173.745,377.371 174.183 C 377.204 174.622,376.845 174.980,376.574 174.980 C 376.302 174.980,375.944 175.339,375.777 175.777 C 375.610 176.215,375.252 176.574,374.980 176.574 C 374.708 176.574,374.350 176.932,374.183 177.371 C 374.017 177.809,373.667 178.167,373.406 178.167 C 373.144 178.167,372.774 178.461,372.581 178.820 C 372.389 179.179,371.882 179.606,371.455 179.768 C 371.027 179.931,370.677 180.283,370.677 180.550 C 370.677 180.821,370.400 181.036,370.051 181.036 C 369.706 181.036,368.953 181.442,368.378 181.938 C 367.802 182.435,367.080 182.932,366.773 183.044 C 366.466 183.156,366.215 183.460,366.215 183.721 C 366.215 184.009,365.782 184.275,365.110 184.402 C 364.502 184.516,363.634 184.952,363.181 185.372 C 362.728 185.792,362.086 186.135,361.753 186.135 C 361.420 186.135,360.761 186.494,360.289 186.932 C 359.816 187.371,359.091 187.729,358.679 187.729 C 358.266 187.729,357.631 188.027,357.267 188.390 C 356.903 188.754,356.078 189.132,355.434 189.229 C 354.790 189.327,353.976 189.663,353.625 189.975 C 353.275 190.288,352.271 190.644,351.394 190.768 C 350.518 190.891,349.510 191.257,349.155 191.581 C 348.757 191.943,347.777 192.247,346.605 192.371 C 345.558 192.482,344.326 192.836,343.868 193.157 C 343.267 193.577,342.156 193.800,339.884 193.954 C 337.664 194.104,336.309 194.370,335.299 194.853 L 333.865 195.538 224.382 195.538 L 114.900 195.538 114.819 163.540 C 114.760 140.162,114.835 131.427,115.097 131.110 C 115.398 130.747,130.660 130.677,209.530 130.677 C 288.889 130.677,303.702 130.609,304.232 130.238 C 304.578 129.997,305.888 129.697,307.143 129.572 C 308.710 129.415,309.630 129.153,310.078 128.735 C 310.437 128.401,310.877 128.127,311.057 128.127 C 311.430 128.127,312.730 127.015,314.780 124.940 C 317.266 122.424,317.403 122.248,317.641 121.284 C 317.769 120.762,318.127 120.117,318.438 119.849 C 319.726 118.738,320.498 88.666,319.429 81.275 C 319.239 79.960,319.074 78.661,319.064 78.387 C 319.053 78.113,318.763 77.587,318.419 77.219 C 318.076 76.850,317.697 76.159,317.577 75.683 C 317.458 75.207,317.094 74.747,316.768 74.662 C 316.442 74.577,316.175 74.313,316.175 74.075 C 316.175 73.553,312.565 69.801,312.063 69.801 C 311.868 69.801,311.407 69.453,311.038 69.029 C 310.576 68.498,309.881 68.190,308.809 68.043 C 307.952 67.925,307.251 67.722,307.251 67.591 C 307.251 66.632,305.174 66.614,200.144 66.614 C 95.086 66.614,94.659 66.616,94.024 67.251 C 93.673 67.602,93.064 67.889,92.669 67.890 C 91.464 67.893,89.536 68.540,89.359 69.002 C 89.267 69.241,88.773 69.584,88.261 69.762 C 87.749 69.940,87.331 70.299,87.331 70.560 C 87.331 70.820,87.035 71.127,86.674 71.241 C 86.313 71.356,85.859 71.796,85.666 72.219 C 85.474 72.642,85.120 72.988,84.881 72.988 C 84.642 72.988,84.320 73.311,84.165 73.705 C 84.010 74.100,83.602 74.655,83.259 74.940 C 82.916 75.225,82.533 76.007,82.407 76.677 C 82.281 77.348,81.946 78.066,81.663 78.274 C 80.721 78.962,80.677 82.616,80.682 159.044 C 80.688 237.036,80.722 239.764,81.695 240.475 C 82.006 240.702,82.343 241.397,82.444 242.018 C 82.544 242.640,82.968 243.469,83.385 243.861 C 83.802 244.253,84.143 244.767,84.143 245.004 C 84.143 245.240,84.502 245.570,84.940 245.737 C 85.378 245.904,85.737 246.262,85.737 246.534 C 85.737 246.805,86.096 247.164,86.534 247.331 C 86.972 247.497,87.331 247.856,87.331 248.127 C 87.331 248.399,87.706 248.764,88.165 248.939 C 88.624 249.113,89.345 249.528,89.768 249.860 C 90.191 250.193,91.142 250.565,91.882 250.687 C 92.622 250.809,93.484 251.180,93.797 251.510 C 94.354 252.098,97.718 252.112,240.291 252.112 C 320.549 252.112,386.627 252.194,387.131 252.295 L 388.048 252.478 387.961 285.602 C 387.902 308.111,387.979 318.725,388.201 318.725 C 388.424 318.725,388.503 308.024,388.448 285.339 L 388.367 251.952 241.722 251.793 C 120.591 251.661,94.989 251.560,94.569 251.211 C 94.289 250.979,93.320 250.593,92.416 250.355 C 91.512 250.116,90.536 249.714,90.247 249.460 C 89.958 249.207,89.426 248.910,89.065 248.800 C 87.338 248.276,83.883 244.054,82.326 240.565 L 81.434 238.566 81.353 159.585 L 81.272 80.603 82.070 78.916 C 82.509 77.988,82.869 77.058,82.869 76.848 C 82.869 75.690,87.312 70.807,89.301 69.779 C 89.947 69.445,90.554 69.044,90.652 68.886 C 90.749 68.728,91.512 68.500,92.347 68.378 C 93.182 68.257,94.223 67.918,94.661 67.625 C 95.881 66.809,304.240 66.800,305.976 67.616 C 306.590 67.904,307.594 68.242,308.207 68.367 C 310.069 68.746,315.538 72.834,315.538 73.847 C 315.538 74.021,315.806 74.407,316.133 74.703 C 316.461 75.000,317.214 76.198,317.807 77.366 L 318.884 79.489 318.884 98.841 L 318.884 118.194 318.160 119.174 C 317.761 119.713,317.350 120.582,317.245 121.106 C 316.953 122.566,312.553 126.819,310.072 128.039 C 306.534 129.779,309.996 129.721,208.961 129.721 C 118.183 129.721,114.821 129.742,114.312 130.304 C 113.474 131.230,113.504 195.254,114.343 195.891 C 114.804 196.241,133.100 196.316,219.920 196.323 C 325.545 196.332,333.307 196.258,336.418 195.202 C 337.213 194.932,339.063 194.574,340.529 194.408 C 341.995 194.241,343.820 193.821,344.585 193.474 C 345.350 193.127,346.406 192.838,346.932 192.833 C 347.458 192.827,348.606 192.470,349.482 192.039 C 350.359 191.608,351.368 191.251,351.725 191.245 C 352.083 191.240,352.943 190.937,353.638 190.573 C 354.332 190.209,355.564 189.706,356.376 189.456 C 357.188 189.206,358.030 188.787,358.248 188.525 C 358.466 188.262,358.877 188.047,359.163 188.047 C 359.448 188.046,360.183 187.729,360.797 187.342 C 361.410 186.956,362.414 186.377,363.028 186.057 C 365.211 184.916,366.101 184.366,367.821 183.098 C 368.778 182.391,369.992 181.542,370.518 181.210 C 372.715 179.827,381.672 170.326,382.507 168.493 C 382.718 168.029,383.014 167.649,383.164 167.649 C 383.314 167.649,383.676 167.147,383.969 166.534 C 384.261 165.920,384.602 165.418,384.726 165.418 C 384.849 165.418,385.166 164.880,385.429 164.223 C 385.692 163.566,386.210 162.755,386.579 162.421 C 386.949 162.087,387.251 161.577,387.251 161.287 C 387.251 160.998,387.610 160.275,388.048 159.681 C 388.486 159.087,388.845 158.362,388.845 158.069 C 388.845 157.776,389.133 157.170,389.485 156.722 C 389.837 156.275,390.214 155.431,390.323 154.847 C 390.433 154.263,390.778 153.355,391.091 152.829 C 391.404 152.303,391.763 151.299,391.889 150.598 C 392.015 149.896,392.380 148.801,392.701 148.163 C 393.021 147.526,393.431 146.080,393.611 144.950 C 393.792 143.821,394.154 142.466,394.417 141.939 C 394.680 141.412,395.030 139.703,395.195 138.140 C 395.361 136.577,395.756 134.367,396.075 133.227 C 397.054 129.720,396.958 67.016,395.966 63.108 C 395.589 61.618,395.183 59.329,395.064 58.022 C 394.946 56.715,394.632 55.226,394.367 54.713 C 394.101 54.200,393.755 52.868,393.597 51.752 C 393.439 50.637,393.022 49.188,392.671 48.532 C 392.319 47.877,392.032 46.974,392.032 46.526 C 392.032 46.079,391.734 45.144,391.370 44.450 C 391.005 43.755,390.503 42.523,390.253 41.711 C 390.003 40.900,389.584 40.058,389.322 39.840 C 389.059 39.622,388.843 39.210,388.840 38.925 C 388.837 38.640,388.627 38.048,388.373 37.610 C 388.118 37.171,387.623 36.202,387.272 35.456 C 386.921 34.709,386.480 33.921,386.291 33.703 C 386.103 33.485,385.461 32.518,384.864 31.554 C 383.521 29.383,382.458 27.831,381.833 27.126 C 381.570 26.830,380.781 25.880,380.080 25.016 C 377.645 22.013,369.384 14.343,368.586 14.343 C 368.472 14.343,367.953 13.984,367.432 13.546 C 366.911 13.108,366.306 12.749,366.087 12.749 C 365.868 12.749,365.352 12.390,364.940 11.952 C 364.529 11.514,364.021 11.155,363.812 11.155 C 363.603 11.155,363.079 10.877,362.647 10.538 C 362.215 10.198,361.485 9.825,361.024 9.710 C 360.563 9.594,360.017 9.297,359.812 9.049 C 359.607 8.802,358.680 8.379,357.754 8.109 C 356.827 7.840,355.899 7.415,355.692 7.165 C 355.484 6.915,354.791 6.617,354.151 6.504 C 353.511 6.390,352.551 6.034,352.017 5.712 C 351.483 5.391,350.407 5.030,349.627 4.910 C 348.846 4.789,347.695 4.435,347.068 4.121 C 346.442 3.807,345.007 3.449,343.881 3.325 C 342.754 3.201,341.164 2.840,340.347 2.522 C 339.530 2.204,337.737 1.858,336.363 1.754 C 331.316 1.370,328.606 0.912,328.606 0.445 C 328.606 0.110,328.095 0.000,326.534 0.000 C 324.935 0.000,324.462 0.106,324.462 0.463 " stroke="none" fill="#507986" fill-rule="evenodd"></path><path id="path4" d="M71.076 0.478 C 71.076 0.821,70.691 0.970,69.721 1.004 C 68.680 1.041,68.581 1.084,69.293 1.189 C 70.682 1.395,72.351 0.999,72.351 0.464 C 72.351 0.209,72.064 0.000,71.713 0.000 C 71.359 0.000,71.076 0.212,71.076 0.478 M328.606 0.448 C 328.606 0.910,331.642 1.532,332.026 1.148 C 332.131 1.043,331.764 0.956,331.208 0.956 C 330.524 0.956,330.199 0.802,330.199 0.478 C 330.199 0.181,329.898 0.000,329.402 0.000 C 328.930 0.000,328.606 0.183,328.606 0.448 M65.896 1.500 C 66.291 1.576,66.936 1.576,67.331 1.500 C 67.725 1.424,67.402 1.362,66.614 1.362 C 65.825 1.362,65.502 1.424,65.896 1.500 M332.988 1.500 C 333.382 1.576,334.028 1.576,334.422 1.500 C 334.817 1.424,334.494 1.362,333.705 1.362 C 332.916 1.362,332.594 1.424,332.988 1.500 M337.291 1.813 C 337.598 1.893,338.100 1.893,338.406 1.813 C 338.713 1.733,338.462 1.668,337.849 1.668 C 337.235 1.668,336.984 1.733,337.291 1.813 M59.442 2.379 C 58.168 2.963,58.798 2.976,60.398 2.400 C 61.100 2.147,61.386 1.941,61.036 1.941 C 60.685 1.941,59.968 2.138,59.442 2.379 M340.398 2.520 C 341.187 2.868,342.191 3.150,342.629 3.148 C 343.168 3.145,342.961 3.006,341.992 2.718 C 339.354 1.934,338.953 1.884,340.398 2.520 M53.463 3.695 C 53.359 3.799,52.726 4.079,52.056 4.318 C 51.378 4.560,51.120 4.753,51.474 4.754 C 52.134 4.754,54.610 3.543,53.997 3.519 C 53.807 3.512,53.567 3.591,53.463 3.695 M347.092 4.111 C 347.705 4.465,348.494 4.754,348.845 4.754 C 349.242 4.753,349.061 4.594,348.367 4.332 C 346.186 3.509,345.990 3.475,347.092 4.111 M352.032 5.737 C 352.558 6.085,353.198 6.371,353.454 6.372 C 353.710 6.374,353.357 6.088,352.669 5.737 C 351.077 4.925,350.806 4.925,352.032 5.737 M355.972 7.312 C 356.385 7.673,356.875 7.968,357.061 7.968 C 357.452 7.968,357.434 7.952,356.175 7.215 L 355.219 6.655 355.972 7.312 M40.752 8.624 L 40.000 9.281 40.956 8.721 C 42.215 7.984,42.233 7.968,41.841 7.968 C 41.656 7.968,41.166 8.263,40.752 8.624 M359.609 8.924 C 360.055 9.275,360.524 9.562,360.651 9.562 C 360.778 9.562,360.518 9.275,360.072 8.924 C 359.627 8.574,359.158 8.287,359.030 8.287 C 358.903 8.287,359.163 8.574,359.609 8.924 M37.131 10.540 C 36.606 10.876,36.339 11.153,36.538 11.154 C 36.738 11.155,37.240 10.873,37.654 10.529 C 38.602 9.739,38.374 9.744,37.131 10.540 M35.203 11.500 C 35.086 11.689,34.540 12.119,33.989 12.455 C 33.439 12.791,33.165 13.066,33.381 13.067 C 33.789 13.068,36.026 11.181,35.636 11.165 C 35.515 11.160,35.320 11.310,35.203 11.500 M365.010 11.963 C 365.487 12.464,365.934 12.810,366.004 12.732 C 366.074 12.654,365.684 12.243,365.137 11.820 L 364.143 11.051 365.010 11.963 M371.286 16.362 C 371.752 16.942,373.546 18.308,373.546 18.083 C 373.546 18.013,372.936 17.471,372.191 16.879 C 371.446 16.287,371.039 16.054,371.286 16.362 M24.214 20.000 L 22.151 22.151 24.303 20.089 C 26.301 18.173,26.600 17.849,26.365 17.849 C 26.316 17.849,25.348 18.817,24.214 20.000 M376.262 20.888 C 377.661 22.297,379.358 24.089,380.034 24.872 C 380.709 25.655,380.975 25.865,380.623 25.339 C 379.913 24.276,375.336 19.492,374.350 18.781 C 374.004 18.531,374.864 19.479,376.262 20.888 M19.794 24.712 C 19.250 25.332,18.805 25.934,18.805 26.051 C 18.805 26.168,18.913 26.127,19.046 25.960 C 19.179 25.794,19.708 25.191,20.221 24.622 C 20.735 24.052,21.071 23.586,20.969 23.586 C 20.867 23.586,20.338 24.093,19.794 24.712 M383.135 28.882 C 383.558 29.429,383.968 29.819,384.047 29.749 C 384.125 29.679,383.779 29.232,383.277 28.755 L 382.366 27.888 383.135 28.882 M15.053 31.035 C 14.662 31.605,14.343 32.190,14.343 32.335 C 14.343 32.480,14.708 32.060,15.155 31.402 C 15.602 30.743,15.922 30.158,15.865 30.102 C 15.809 30.045,15.443 30.465,15.053 31.035 M384.065 30.297 C 384.064 30.394,384.422 30.960,384.861 31.554 C 385.299 32.148,385.652 32.498,385.646 32.333 C 385.634 32.013,384.068 29.996,384.065 30.297 M387.251 35.609 C 387.251 35.794,387.546 36.284,387.907 36.698 L 388.564 37.450 388.004 36.494 C 387.267 35.236,387.251 35.217,387.251 35.609 M388.845 39.030 C 388.845 39.158,389.131 39.627,389.482 40.072 C 389.833 40.518,390.120 40.778,390.120 40.651 C 390.120 40.524,389.833 40.055,389.482 39.609 C 389.131 39.163,388.845 38.903,388.845 39.030 M392.371 47.968 C 392.371 48.143,392.581 48.565,392.839 48.906 C 393.096 49.246,393.307 49.381,393.307 49.206 C 393.307 49.030,393.096 48.608,392.839 48.268 C 392.581 47.928,392.371 47.793,392.371 47.968 M5.470 53.719 C 4.936 54.891,5.038 55.141,5.615 54.075 C 5.885 53.578,6.046 53.111,5.973 53.038 C 5.900 52.965,5.674 53.272,5.470 53.719 M393.967 53.705 C 393.967 53.880,394.172 54.382,394.422 54.821 C 394.673 55.259,394.878 55.474,394.878 55.299 C 394.878 55.124,394.673 54.622,394.422 54.183 C 394.172 53.745,393.967 53.530,393.967 53.705 M395.293 59.920 C 395.293 60.534,395.359 60.785,395.439 60.478 C 395.519 60.171,395.519 59.669,395.439 59.363 C 395.359 59.056,395.293 59.307,395.293 59.920 M4.007 61.059 C 3.890 61.526,3.855 61.969,3.930 62.044 C 4.005 62.120,4.163 61.799,4.280 61.332 C 4.397 60.865,4.432 60.421,4.357 60.346 C 4.281 60.271,4.124 60.592,4.007 61.059 M395.583 61.833 C 395.583 62.096,395.706 62.598,395.857 62.948 C 396.029 63.350,396.130 63.409,396.130 63.108 C 396.130 62.845,396.007 62.343,395.857 61.992 C 395.684 61.590,395.583 61.531,395.583 61.833 M148.606 67.171 C 176.960 67.216,223.359 67.216,251.713 67.171 C 280.068 67.126,256.869 67.090,200.159 67.090 C 143.450 67.090,120.251 67.126,148.606 67.171 M94.824 67.565 C 94.702 67.761,95.024 67.804,95.681 67.679 C 97.091 67.410,97.212 67.251,96.008 67.251 C 95.463 67.251,94.930 67.392,94.824 67.565 M303.745 67.375 C 303.745 67.444,304.237 67.557,304.838 67.628 C 305.439 67.698,305.861 67.642,305.776 67.503 C 305.621 67.254,303.745 67.136,303.745 67.375 M308.871 68.622 C 308.944 68.675,309.434 68.971,309.960 69.279 L 310.916 69.839 310.164 69.182 C 309.750 68.821,309.260 68.526,309.075 68.526 C 308.890 68.526,308.798 68.569,308.871 68.622 M3.026 158.884 C 3.026 207.793,3.063 227.753,3.108 203.241 C 3.153 178.729,3.153 138.713,3.108 114.317 C 3.063 89.921,3.026 109.976,3.026 158.884 M396.965 98.805 C 396.965 113.267,397.004 119.183,397.052 111.952 C 397.099 104.721,397.099 92.888,397.052 85.657 C 397.004 78.426,396.965 84.343,396.965 98.805 M316.203 75.097 C 316.626 75.644,317.036 76.034,317.115 75.964 C 317.193 75.894,316.847 75.447,316.345 74.970 L 315.433 74.104 316.203 75.097 M83.566 75.525 C 83.182 76.044,82.869 76.574,82.869 76.702 C 82.869 76.831,83.227 76.451,83.665 75.857 C 84.104 75.263,84.462 74.733,84.462 74.679 C 84.462 74.419,84.203 74.663,83.566 75.525 M317.452 77.144 C 317.451 77.238,317.737 77.878,318.088 78.566 C 318.438 79.253,318.724 79.606,318.723 79.350 C 318.722 79.094,318.436 78.454,318.088 77.928 C 317.739 77.402,317.453 77.049,317.452 77.144 M318.805 82.072 C 318.809 82.773,318.874 83.022,318.951 82.626 C 319.027 82.229,319.024 81.656,318.944 81.351 C 318.864 81.046,318.802 81.371,318.805 82.072 M318.799 115.060 C 318.799 115.673,318.865 115.924,318.945 115.618 C 319.025 115.311,319.025 114.809,318.945 114.502 C 318.865 114.195,318.799 114.446,318.799 115.060 M316.838 121.414 C 316.824 121.665,316.494 122.239,316.105 122.689 L 315.396 123.506 316.302 122.664 C 316.800 122.201,317.130 121.627,317.035 121.389 C 316.896 121.040,316.858 121.044,316.838 121.414 M311.934 126.703 C 311.443 127.136,311.167 127.490,311.321 127.490 C 311.476 127.490,311.939 127.131,312.351 126.693 C 313.303 125.679,313.093 125.684,311.934 126.703 M309.531 128.002 C 309.129 128.283,308.416 128.629,307.946 128.771 C 307.305 128.964,307.251 129.033,307.729 129.046 C 308.080 129.056,308.940 128.710,309.641 128.279 C 310.343 127.847,310.769 127.493,310.589 127.492 C 310.409 127.491,309.933 127.720,309.531 128.002 M396.574 129.880 C 396.578 130.582,396.643 130.831,396.719 130.435 C 396.796 130.038,396.793 129.464,396.713 129.160 C 396.633 128.855,396.571 129.179,396.574 129.880 M114.343 129.622 C 114.036 129.702,113.785 129.995,113.785 130.272 C 113.785 130.723,113.846 130.721,114.367 130.249 C 114.906 129.762,122.080 129.716,209.586 129.641 L 304.223 129.561 209.562 129.519 C 157.498 129.495,114.649 129.542,114.343 129.622 M113.620 163.187 C 113.620 180.980,113.658 188.259,113.705 179.363 C 113.752 170.466,113.752 155.908,113.705 147.012 C 113.658 138.116,113.620 145.394,113.620 163.187 M395.902 133.751 C 395.676 134.723,395.550 135.577,395.623 135.649 C 395.695 135.721,395.944 134.990,396.175 134.024 C 396.407 133.058,396.533 132.203,396.455 132.125 C 396.377 132.047,396.128 132.779,395.902 133.751 M386.296 162.708 C 385.885 163.145,385.609 163.557,385.683 163.622 C 385.756 163.687,386.150 163.329,386.558 162.827 C 387.471 161.701,387.310 161.629,386.296 162.708 M376.414 175.777 C 375.640 176.566,375.078 177.211,375.166 177.211 C 375.254 177.211,375.959 176.566,376.733 175.777 C 377.507 174.988,378.069 174.343,377.981 174.343 C 377.894 174.343,377.189 174.988,376.414 175.777 M370.899 180.887 C 370.407 181.319,370.131 181.673,370.285 181.673 C 370.440 181.673,370.903 181.315,371.315 180.876 C 372.267 179.863,372.057 179.868,370.899 180.887 M368.606 182.510 C 368.032 182.998,367.915 183.191,368.313 182.994 C 368.897 182.704,369.993 181.655,369.680 181.685 C 369.615 181.691,369.131 182.062,368.606 182.510 M363.698 185.685 C 363.102 186.108,362.752 186.454,362.919 186.454 C 363.086 186.454,363.709 186.096,364.303 185.657 C 365.686 184.637,365.137 184.662,363.698 185.685 M360.829 187.278 C 360.234 187.702,359.883 188.048,360.050 188.048 C 360.217 188.048,360.840 187.689,361.434 187.251 C 362.817 186.231,362.269 186.256,360.829 187.278 M349.501 192.042 C 349.161 192.299,349.026 192.510,349.201 192.510 C 349.376 192.510,349.798 192.299,350.138 192.042 C 350.479 191.785,350.614 191.574,350.438 191.574 C 350.263 191.574,349.841 191.785,349.501 192.042 M344.223 193.625 C 343.785 193.876,343.570 194.081,343.745 194.081 C 343.920 194.081,344.422 193.876,344.861 193.625 C 345.299 193.375,345.514 193.170,345.339 193.170 C 345.163 193.170,344.661 193.375,344.223 193.625 M336.892 195.074 C 336.543 195.311,336.672 195.340,337.371 195.184 C 338.542 194.922,338.797 194.739,337.981 194.746 C 337.645 194.749,337.155 194.896,336.892 195.074 M114.244 196.185 C 114.786 196.595,128.012 196.644,220.380 196.574 L 325.896 196.495 220.414 196.414 C 150.731 196.361,114.823 196.226,114.613 196.015 C 114.438 195.840,114.144 195.702,113.960 195.707 C 113.776 195.713,113.904 195.928,114.244 196.185 M333.147 195.917 C 333.454 195.997,333.956 195.997,334.263 195.917 C 334.570 195.837,334.319 195.771,333.705 195.771 C 333.092 195.771,332.841 195.837,333.147 195.917 M327.729 196.244 C 328.211 196.317,329.000 196.317,329.482 196.244 C 329.964 196.171,329.570 196.111,328.606 196.111 C 327.641 196.111,327.247 196.171,327.729 196.244 M81.331 236.972 C 81.307 237.992,82.488 241.169,82.536 240.218 C 82.544 240.075,82.377 239.645,82.166 239.262 C 81.955 238.879,81.687 237.920,81.571 237.131 L 81.360 235.697 81.331 236.972 M88.037 248.048 C 88.531 248.530,89.111 248.920,89.328 248.915 C 89.544 248.909,89.434 248.746,89.084 248.552 C 88.733 248.358,88.152 247.968,87.793 247.686 C 87.434 247.403,87.544 247.566,88.037 248.048 M94.277 251.018 C 94.669 251.292,95.310 251.455,95.702 251.380 C 96.320 251.260,96.301 251.236,95.557 251.199 C 95.085 251.175,94.610 251.012,94.502 250.837 C 94.394 250.661,94.138 250.518,93.934 250.518 C 93.730 250.518,93.884 250.743,94.277 251.018 M3.261 252.430 C 3.261 253.044,3.327 253.295,3.407 252.988 C 3.487 252.681,3.487 252.179,3.407 251.873 C 3.327 251.566,3.261 251.817,3.261 252.430 M149.482 251.712 C 291.167 251.929,388.451 251.929,388.317 251.713 C 388.236 251.582,322.596 251.510,242.451 251.553 C 162.306 251.596,120.470 251.668,149.482 251.712 M3.861 256.255 C 3.876 256.518,4.003 257.092,4.143 257.530 L 4.399 258.327 4.426 257.530 C 4.440 257.092,4.313 256.518,4.143 256.255 C 3.869 255.830,3.837 255.830,3.861 256.255 M5.710 265.346 C 5.880 265.868,6.094 266.582,6.187 266.932 C 6.279 267.283,6.292 267.008,6.217 266.322 C 6.141 265.636,5.926 264.922,5.740 264.736 C 5.501 264.497,5.492 264.676,5.710 265.346 M9.574 277.646 C 9.567 277.929,9.827 278.503,10.152 278.921 C 10.476 279.339,10.823 279.896,10.923 280.159 C 11.072 280.549,11.110 280.538,11.130 280.098 C 11.144 279.802,10.998 279.462,10.805 279.343 C 10.613 279.224,10.260 278.678,10.021 278.129 C 9.782 277.580,9.581 277.363,9.574 277.646 M12.769 283.938 C 12.758 284.176,13.108 284.796,13.546 285.317 C 13.984 285.838,14.343 286.127,14.343 285.960 C 14.343 285.793,14.111 285.464,13.829 285.229 C 13.546 284.995,13.197 284.511,13.052 284.154 C 12.908 283.798,12.780 283.700,12.769 283.938 M18.163 292.114 C 19.432 293.643,19.539 293.741,19.192 293.064 C 19.012 292.712,18.528 292.139,18.117 291.792 C 17.397 291.182,17.398 291.194,18.163 292.114 M20.385 295.060 C 20.977 295.805,21.519 296.414,21.589 296.414 C 21.814 296.414,20.448 294.621,19.868 294.155 C 19.560 293.908,19.793 294.315,20.385 295.060 M24.861 299.579 C 25.474 300.126,26.406 300.870,26.932 301.233 C 27.739 301.790,27.714 301.738,26.773 300.899 C 26.159 300.353,25.227 299.608,24.701 299.245 C 23.895 298.688,23.920 298.740,24.861 299.579 M31.943 305.190 C 32.419 305.691,32.867 306.038,32.936 305.959 C 33.006 305.881,32.616 305.471,32.070 305.047 L 31.076 304.278 31.943 305.190 M36.972 308.367 C 37.566 308.805,38.188 309.163,38.353 309.163 C 38.519 309.163,38.126 308.805,37.481 308.367 C 36.835 307.928,36.213 307.570,36.099 307.570 C 35.985 307.570,36.378 307.928,36.972 308.367 M47.012 312.988 C 48.605 313.800,48.875 313.800,47.649 312.988 C 47.124 312.640,46.484 312.354,46.227 312.353 C 45.971 312.352,46.324 312.637,47.012 312.988 M64.462 317.351 C 64.769 317.431,65.271 317.431,65.578 317.351 C 65.884 317.271,65.633 317.205,65.020 317.205 C 64.406 317.205,64.155 317.271,64.462 317.351 M67.012 317.678 C 67.499 317.752,67.888 318.014,67.888 318.268 C 67.888 318.519,68.175 318.725,68.526 318.725 C 68.876 318.725,69.163 318.527,69.163 318.284 C 69.163 317.793,68.146 317.436,66.932 317.502 C 66.171 317.544,66.175 317.552,67.012 317.678 " stroke="none" fill="#7c9ca4" fill-rule="evenodd"></path></g></svg>