<svg id="svg" version="1.1" xmlns="http://www.w3.org/2000/svg" xmlns:xlink="http://www.w3.org/1999/xlink" width="400" height="400" viewBox="0, 0, 400,400"><g id="svgg"><path id="path0" d="M188.659 107.405 C 187.591 107.698,184.862 108.138,182.594 108.382 C 180.326 108.626,177.960 109.078,177.335 109.385 C 176.711 109.692,174.897 110.121,173.305 110.338 C 171.713 110.555,170.139 111.004,169.809 111.334 C 169.478 111.665,168.535 112.157,167.713 112.429 C 166.892 112.700,165.675 113.254,165.010 113.659 C 164.344 114.065,163.499 114.398,163.131 114.399 C 162.763 114.399,161.953 114.825,161.331 115.345 C 160.709 115.865,159.795 116.417,159.300 116.572 C 158.805 116.727,158.400 116.994,158.400 117.166 C 158.400 117.338,157.635 117.817,156.700 118.230 C 155.765 118.644,154.765 119.301,154.477 119.691 C 154.190 120.081,153.740 120.404,153.477 120.409 C 153.215 120.413,152.460 121.073,151.800 121.874 C 151.140 122.675,150.195 123.760,149.700 124.284 C 149.205 124.808,148.797 125.363,148.794 125.518 C 148.790 125.673,148.295 126.377,147.694 127.083 C 147.092 127.789,146.150 129.121,145.600 130.044 C 145.050 130.967,144.108 132.460,143.507 133.361 C 142.906 134.262,142.411 135.367,142.407 135.815 C 142.403 136.264,142.036 137.344,141.592 138.215 C 141.147 139.087,140.598 140.970,140.370 142.400 C 140.142 143.830,139.651 145.450,139.278 146.000 C 138.684 146.877,138.600 148.283,138.600 157.400 C 138.600 166.517,138.684 167.923,139.278 168.800 C 139.651 169.350,140.156 171.057,140.401 172.593 C 140.645 174.130,141.090 175.660,141.389 175.993 C 141.688 176.327,142.058 177.276,142.211 178.101 C 142.364 178.927,143.009 180.257,143.645 181.056 C 144.280 181.856,144.800 182.755,144.800 183.055 C 144.800 183.355,144.976 183.600,145.192 183.600 C 145.407 183.600,145.928 184.275,146.349 185.100 C 146.770 185.925,147.494 186.943,147.957 187.362 C 148.421 187.781,148.800 188.269,148.800 188.446 C 148.800 188.623,149.515 189.497,150.388 190.388 C 151.261 191.279,152.168 192.366,152.402 192.804 C 152.636 193.242,153.007 193.600,153.226 193.600 C 153.444 193.600,154.748 194.455,156.123 195.500 C 160.128 198.544,160.914 199.045,162.494 199.566 C 163.316 199.837,164.094 200.228,164.222 200.435 C 164.350 200.643,165.115 201.088,165.922 201.425 C 166.729 201.762,167.752 202.366,168.195 202.767 C 168.638 203.167,169.540 203.623,170.200 203.779 C 170.860 203.935,171.670 204.302,172.000 204.594 C 172.330 204.886,173.344 205.324,174.253 205.566 C 175.163 205.808,176.122 206.265,176.384 206.581 C 176.647 206.897,177.824 207.356,179.000 207.600 C 180.176 207.844,181.345 208.292,181.597 208.596 C 181.849 208.900,182.628 209.261,183.328 209.399 C 185.101 209.749,186.800 210.438,186.800 210.807 C 186.800 210.978,188.007 211.328,189.482 211.585 C 190.958 211.842,192.623 212.302,193.182 212.607 C 193.742 212.912,195.165 213.353,196.343 213.586 C 197.522 213.819,198.941 214.368,199.497 214.805 C 200.053 215.242,200.907 215.600,201.394 215.600 C 202.550 215.600,204.800 216.389,204.800 216.795 C 204.800 216.969,205.475 217.228,206.300 217.372 C 208.119 217.688,210.000 218.398,210.000 218.768 C 210.000 218.917,210.630 219.267,211.400 219.546 C 212.170 219.824,212.800 220.216,212.800 220.416 C 212.800 220.616,213.339 221.058,213.998 221.399 C 217.966 223.451,219.897 229.733,218.663 236.572 C 218.348 238.317,217.829 239.937,217.510 240.172 C 217.192 240.408,216.715 241.005,216.451 241.500 C 216.188 241.995,215.715 242.400,215.400 242.400 C 215.085 242.400,214.644 242.744,214.419 243.164 C 213.716 244.477,209.313 246.286,206.170 246.553 C 204.614 246.685,202.766 246.993,202.064 247.238 C 201.362 247.482,200.115 247.588,199.294 247.473 C 191.408 246.366,188.960 245.911,188.425 245.451 C 188.081 245.155,187.260 244.733,186.600 244.512 C 184.548 243.827,179.600 240.161,179.600 239.327 C 179.600 239.067,179.269 238.749,178.864 238.620 C 177.352 238.140,172.181 231.075,171.573 228.657 C 171.315 227.635,170.968 226.800,170.801 226.800 C 170.423 226.800,169.677 224.939,169.519 223.600 C 169.385 222.476,167.569 222.355,166.400 223.393 C 166.070 223.686,165.056 224.124,164.147 224.366 C 163.237 224.608,162.278 225.065,162.015 225.382 C 161.751 225.700,160.875 226.171,160.068 226.430 C 159.261 226.689,158.330 227.132,158.000 227.413 C 157.670 227.695,156.635 228.129,155.700 228.378 C 154.765 228.627,154.000 228.984,154.000 229.172 C 154.000 229.360,153.235 229.818,152.300 230.190 C 151.365 230.562,150.330 231.105,150.000 231.396 C 149.670 231.687,148.590 232.139,147.600 232.400 C 146.610 232.661,145.530 233.114,145.200 233.407 C 144.870 233.700,143.757 234.152,142.727 234.411 C 141.697 234.669,140.765 235.115,140.655 235.400 C 140.546 235.686,139.768 236.140,138.928 236.410 C 138.088 236.680,137.130 237.132,136.800 237.413 C 136.470 237.695,135.454 238.124,134.542 238.367 C 132.112 239.014,131.847 240.762,133.644 244.286 C 134.060 245.102,134.400 246.036,134.400 246.363 C 134.400 246.898,135.082 248.072,137.235 251.246 C 137.625 251.821,138.218 252.946,138.552 253.746 C 138.886 254.546,139.319 255.200,139.515 255.200 C 139.711 255.200,140.062 255.618,140.295 256.130 C 140.991 257.656,144.878 261.818,149.061 265.514 C 150.922 267.159,152.264 268.018,155.117 269.391 C 155.842 269.740,156.529 270.271,156.645 270.572 C 156.760 270.873,157.663 271.322,158.650 271.571 C 159.638 271.820,161.108 272.378,161.917 272.812 C 162.726 273.245,163.772 273.600,164.240 273.600 C 164.709 273.600,165.538 273.950,166.082 274.379 C 166.699 274.864,168.436 275.377,170.690 275.740 C 172.680 276.060,174.669 276.516,175.110 276.752 C 178.684 278.665,213.420 278.571,218.052 276.636 C 218.812 276.318,221.011 275.885,222.937 275.674 C 225.070 275.439,226.708 275.046,227.126 274.667 C 227.504 274.325,228.707 273.845,229.800 273.600 C 230.893 273.355,232.060 272.912,232.394 272.615 C 232.727 272.317,233.810 271.861,234.800 271.600 C 235.790 271.339,236.882 270.875,237.226 270.568 C 237.570 270.261,238.425 269.810,239.126 269.566 C 239.827 269.322,240.400 268.979,240.400 268.804 C 240.400 268.630,241.095 268.209,241.945 267.869 C 244.935 266.672,247.519 264.614,250.687 260.906 C 253.677 257.405,253.999 256.976,254.000 256.487 C 254.000 256.206,254.263 255.874,254.585 255.750 C 254.906 255.627,255.291 255.138,255.440 254.663 C 255.588 254.188,256.135 253.291,256.655 252.669 C 257.175 252.047,257.600 251.274,257.600 250.951 C 257.600 250.628,258.050 249.518,258.600 248.485 C 259.150 247.452,259.600 246.148,259.600 245.588 C 259.600 245.028,259.979 243.856,260.443 242.985 C 262.252 239.583,262.433 216.653,260.672 213.966 C 260.320 213.429,259.833 212.062,259.590 210.929 C 259.347 209.795,258.800 208.184,258.374 207.349 C 257.948 206.514,257.600 205.523,257.600 205.146 C 257.600 204.770,257.150 203.927,256.600 203.273 C 256.050 202.619,255.600 201.912,255.600 201.701 C 255.600 201.490,255.195 200.862,254.700 200.305 C 251.719 196.955,249.749 194.607,249.400 193.988 C 249.180 193.599,248.010 192.553,246.800 191.664 C 245.590 190.775,244.301 189.752,243.935 189.390 C 243.569 189.029,242.729 188.433,242.069 188.066 C 241.409 187.700,240.133 186.991,239.234 186.492 C 238.335 185.992,237.600 185.436,237.600 185.255 C 237.600 185.074,236.835 184.700,235.900 184.424 C 234.965 184.147,233.930 183.686,233.600 183.398 C 233.270 183.110,232.190 182.661,231.200 182.400 C 230.210 182.139,229.130 181.689,228.800 181.400 C 228.470 181.111,227.396 180.660,226.414 180.399 C 225.432 180.137,224.193 179.580,223.660 179.161 C 223.128 178.743,222.214 178.400,221.631 178.400 C 221.047 178.400,219.856 178.033,218.985 177.585 C 218.113 177.137,216.593 176.587,215.606 176.362 C 214.620 176.138,213.519 175.689,213.160 175.364 C 212.801 175.039,211.363 174.589,209.966 174.364 C 208.568 174.138,206.879 173.697,206.212 173.382 C 205.546 173.067,204.162 172.653,203.138 172.463 C 202.113 172.273,200.784 171.731,200.184 171.259 C 199.583 170.786,198.639 170.400,198.086 170.400 C 197.533 170.400,196.162 169.960,195.040 169.422 C 193.918 168.884,192.538 168.349,191.974 168.233 C 191.409 168.117,190.527 167.657,190.013 167.211 C 189.498 166.765,188.892 166.400,188.666 166.400 C 188.183 166.400,183.600 161.800,183.600 161.316 C 183.600 161.136,183.201 160.271,182.713 159.394 C 181.570 157.341,181.407 150.932,182.466 149.727 C 182.818 149.327,183.238 148.566,183.400 148.036 C 183.784 146.780,186.179 144.541,188.200 143.550 C 189.080 143.118,190.340 142.459,191.000 142.084 C 193.411 140.715,208.000 141.329,208.000 142.799 C 208.000 142.985,208.585 143.258,209.300 143.406 C 211.968 143.959,217.665 148.874,218.489 151.332 C 218.722 152.030,219.179 152.908,219.504 153.284 C 219.829 153.660,220.174 154.830,220.271 155.884 C 220.617 159.648,220.611 159.638,222.508 159.348 C 223.439 159.205,224.658 158.858,225.218 158.577 C 225.778 158.295,227.550 157.882,229.156 157.660 C 230.768 157.436,232.396 156.965,232.791 156.608 C 233.184 156.253,234.733 155.771,236.234 155.537 C 237.734 155.303,239.331 154.875,239.781 154.585 C 240.231 154.295,242.000 153.866,243.710 153.631 C 245.421 153.397,247.225 152.940,247.721 152.615 C 248.216 152.291,249.786 151.780,251.211 151.481 C 252.635 151.182,254.214 150.715,254.720 150.444 C 255.227 150.172,256.906 149.844,258.453 149.714 C 260.956 149.504,261.307 149.372,261.634 148.510 C 262.137 147.189,261.392 140.875,260.634 140.038 C 260.310 139.680,259.845 138.493,259.600 137.400 C 259.355 136.307,258.925 135.140,258.643 134.806 C 258.362 134.473,257.894 133.570,257.604 132.800 C 257.314 132.030,256.841 131.205,256.554 130.967 C 256.267 130.729,255.858 130.099,255.646 129.567 C 255.434 129.035,253.897 127.035,252.230 125.122 C 250.564 123.209,249.200 121.454,249.200 121.222 C 249.200 120.990,249.008 120.800,248.773 120.800 C 248.539 120.800,247.723 120.325,246.962 119.744 C 245.468 118.604,243.816 117.629,241.600 116.580 C 240.830 116.215,239.878 115.575,239.484 115.158 C 239.091 114.741,238.408 114.400,237.966 114.400 C 237.525 114.400,236.318 113.950,235.285 113.400 C 234.252 112.850,233.151 112.400,232.838 112.400 C 232.526 112.400,231.534 111.975,230.635 111.455 C 229.589 110.851,228.010 110.413,226.248 110.239 C 224.735 110.089,223.016 109.719,222.428 109.415 C 221.841 109.111,219.119 108.654,216.380 108.399 C 213.641 108.144,210.264 107.680,208.875 107.368 C 205.526 106.615,191.441 106.640,188.659 107.405 M64.100 110.663 C 63.702 110.825,63.600 127.674,63.600 193.026 L 63.600 275.185 64.500 275.403 C 64.995 275.523,73.950 275.572,84.400 275.511 L 103.400 275.400 103.400 193.000 L 103.400 110.600 84.000 110.530 C 73.330 110.491,64.375 110.551,64.100 110.663 M296.585 110.900 C 296.480 111.175,296.441 148.300,296.497 193.400 L 296.600 275.400 315.600 275.511 C 326.050 275.572,335.005 275.523,335.500 275.403 L 336.400 275.185 336.400 193.035 C 336.400 118.494,336.341 110.863,335.767 110.643 C 334.419 110.126,296.785 110.373,296.585 110.900 " stroke="none" fill="#fbfafa" fill-rule="evenodd"></path><path id="path1" d="M0.000 200.000 L 0.000 400.000 200.000 400.000 L 400.000 400.000 400.000 200.000 L 400.000 0.000 200.000 0.000 L 0.000 0.000 0.000 200.000 M215.654 106.467 C 216.337 106.915,218.215 107.264,221.363 107.530 C 224.433 107.789,226.288 108.130,226.728 108.514 C 227.097 108.838,228.300 109.230,229.400 109.385 C 230.500 109.541,231.760 109.993,232.200 110.391 C 232.640 110.788,233.630 111.234,234.400 111.382 C 236.288 111.743,238.000 112.426,238.000 112.817 C 238.000 112.993,238.518 113.250,239.151 113.389 C 239.784 113.528,240.899 114.082,241.628 114.621 C 242.358 115.159,243.183 115.600,243.462 115.600 C 243.741 115.600,244.291 115.945,244.684 116.368 C 245.078 116.790,245.899 117.260,246.509 117.413 C 247.119 117.566,247.839 118.002,248.109 118.382 C 248.379 118.762,249.005 119.288,249.500 119.551 C 249.995 119.813,250.400 120.210,250.400 120.432 C 250.400 120.653,251.345 121.799,252.500 122.978 C 255.184 125.717,256.285 127.201,256.619 128.534 C 256.766 129.120,257.137 129.600,257.443 129.600 C 257.750 129.600,258.000 129.749,258.000 129.931 C 258.000 130.114,258.521 131.059,259.158 132.031 C 259.795 133.004,260.444 134.584,260.600 135.542 C 260.757 136.501,261.202 137.602,261.590 137.990 C 262.004 138.404,262.416 139.664,262.589 141.047 C 262.750 142.341,263.134 143.885,263.441 144.480 C 265.057 147.604,264.070 150.072,260.993 150.605 C 260.117 150.756,258.680 151.204,257.800 151.598 C 256.920 151.993,254.979 152.431,253.488 152.571 C 251.634 152.744,250.540 153.060,250.032 153.568 C 249.551 154.049,248.390 154.413,246.744 154.598 C 245.345 154.756,243.914 155.138,243.565 155.446 C 243.216 155.754,241.462 156.190,239.667 156.415 C 237.873 156.640,235.818 157.162,235.102 157.574 C 234.386 157.987,232.990 158.447,232.000 158.596 C 231.010 158.746,229.480 159.195,228.600 159.595 C 223.816 161.768,219.200 160.867,219.200 157.760 C 219.200 157.066,218.936 156.279,218.613 156.010 C 218.289 155.742,217.816 154.460,217.560 153.161 C 217.260 151.634,216.899 150.800,216.539 150.800 C 216.233 150.800,215.779 150.353,215.531 149.808 C 215.282 149.262,214.755 148.713,214.360 148.587 C 213.964 148.462,213.530 148.008,213.394 147.580 C 213.257 147.151,212.913 146.800,212.629 146.800 C 212.344 146.800,211.460 146.358,210.664 145.818 C 209.868 145.277,208.448 144.634,207.508 144.389 C 206.569 144.143,205.567 143.641,205.283 143.272 C 204.511 142.269,193.093 142.266,192.317 143.268 C 192.033 143.636,191.119 144.118,190.286 144.340 C 188.848 144.723,188.277 145.133,185.614 147.692 C 183.428 149.792,183.428 160.711,185.613 161.404 C 186.023 161.534,186.467 161.983,186.600 162.400 C 186.733 162.817,187.183 163.267,187.600 163.400 C 188.017 163.533,188.462 163.964,188.587 164.359 C 188.715 164.762,189.526 165.291,190.429 165.561 C 191.316 165.827,192.136 166.290,192.251 166.589 C 192.366 166.888,193.343 167.255,194.422 167.403 C 195.502 167.552,196.793 167.990,197.292 168.379 C 197.792 168.767,198.857 169.205,199.659 169.353 C 200.462 169.500,201.552 169.962,202.083 170.379 C 202.655 170.829,204.225 171.300,205.949 171.539 C 207.545 171.761,209.260 172.209,209.759 172.536 C 210.258 172.863,211.509 173.257,212.538 173.412 C 213.567 173.566,214.833 174.025,215.351 174.433 C 215.869 174.840,217.082 175.292,218.046 175.438 C 219.011 175.583,220.430 176.032,221.200 176.436 C 221.970 176.839,223.374 177.365,224.321 177.605 C 225.267 177.846,226.138 178.294,226.256 178.602 C 226.374 178.910,227.267 179.281,228.240 179.427 C 229.213 179.573,230.432 180.025,230.949 180.432 C 231.466 180.838,232.624 181.336,233.521 181.538 C 234.418 181.739,235.637 182.286,236.230 182.752 C 236.823 183.218,237.532 183.600,237.805 183.600 C 238.078 183.600,238.528 183.872,238.804 184.205 C 239.080 184.537,240.092 185.157,241.053 185.582 C 242.014 186.007,242.800 186.545,242.800 186.778 C 242.800 187.010,243.041 187.200,243.336 187.200 C 243.973 187.200,246.470 188.960,248.016 190.500 C 248.624 191.105,249.319 191.600,249.560 191.600 C 249.802 191.600,250.000 191.782,250.000 192.004 C 250.000 192.226,250.543 192.991,251.207 193.704 C 253.180 195.822,253.745 196.503,255.208 198.525 C 255.974 199.584,256.993 200.946,257.474 201.552 C 257.955 202.158,258.476 203.163,258.632 203.785 C 258.788 204.407,259.222 205.222,259.595 205.595 C 259.987 205.987,260.391 207.260,260.549 208.602 C 260.718 210.044,261.072 211.110,261.479 211.408 C 261.921 211.731,262.298 213.051,262.633 215.444 C 262.907 217.400,263.322 219.720,263.556 220.600 C 264.195 223.005,264.124 234.928,263.461 236.515 C 263.165 237.224,262.792 239.128,262.633 240.746 C 262.343 243.684,261.758 245.600,261.150 245.600 C 260.972 245.600,260.705 246.527,260.554 247.659 C 260.404 248.792,259.966 250.034,259.581 250.419 C 259.196 250.804,258.759 251.677,258.609 252.359 C 258.459 253.041,258.022 253.824,257.637 254.100 C 257.252 254.375,256.725 255.216,256.465 255.970 C 255.999 257.321,255.668 257.771,253.500 259.993 C 252.895 260.613,252.400 261.234,252.400 261.372 C 252.400 261.631,248.051 265.928,246.230 267.468 C 245.666 267.945,244.651 268.457,243.975 268.605 C 243.299 268.754,242.649 269.127,242.532 269.434 C 242.414 269.741,241.571 270.212,240.659 270.479 C 239.746 270.747,238.775 271.274,238.500 271.651 C 238.224 272.028,237.421 272.464,236.715 272.619 C 236.009 272.774,234.974 273.221,234.416 273.613 C 233.857 274.005,232.690 274.447,231.821 274.596 C 230.953 274.744,229.830 275.190,229.327 275.586 C 228.823 275.982,227.386 276.434,226.134 276.591 C 224.881 276.747,223.440 277.149,222.930 277.483 C 222.325 277.879,220.230 278.221,216.902 278.468 C 214.007 278.683,211.021 279.140,210.000 279.523 C 207.271 280.549,183.990 280.539,182.200 279.511 C 181.365 279.032,179.446 278.711,175.898 278.456 C 172.660 278.224,170.469 277.876,169.898 277.505 C 169.404 277.184,168.309 276.792,167.464 276.636 C 165.647 276.298,164.000 275.597,164.000 275.160 C 164.000 274.989,163.145 274.732,162.100 274.589 C 161.055 274.445,159.723 273.992,159.140 273.582 C 158.557 273.171,157.608 272.717,157.031 272.572 C 156.454 272.427,155.761 271.993,155.491 271.608 C 155.221 271.223,154.415 270.779,153.700 270.622 C 152.986 270.465,152.176 270.033,151.900 269.662 C 151.625 269.291,150.950 268.780,150.400 268.527 C 148.149 267.490,141.312 260.696,139.505 257.700 C 139.074 256.985,138.561 256.400,138.366 256.400 C 138.171 256.400,137.766 255.815,137.467 255.100 C 137.168 254.385,136.626 253.553,136.262 253.251 C 135.898 252.949,135.600 252.363,135.600 251.948 C 135.600 251.534,135.167 250.818,134.637 250.357 C 134.107 249.897,133.557 248.898,133.415 248.138 C 133.272 247.377,132.821 246.421,132.413 246.013 C 131.928 245.528,131.577 244.387,131.398 242.715 C 131.011 239.108,131.200 238.302,132.600 237.588 C 133.260 237.252,134.250 236.680,134.800 236.318 C 135.350 235.956,136.489 235.533,137.332 235.379 C 138.174 235.225,138.955 234.860,139.067 234.569 C 139.179 234.277,139.930 233.824,140.735 233.561 C 141.541 233.299,142.603 232.771,143.095 232.388 C 143.588 232.005,144.813 231.569,145.819 231.418 C 146.824 231.267,147.745 230.889,147.864 230.576 C 147.984 230.264,148.829 229.809,149.741 229.565 C 150.654 229.322,151.707 228.796,152.082 228.397 C 152.458 227.998,153.331 227.547,154.023 227.395 C 154.715 227.243,155.623 226.777,156.041 226.359 C 156.458 225.942,157.314 225.600,157.942 225.600 C 158.594 225.600,159.529 225.186,160.124 224.636 C 160.696 224.105,161.731 223.547,162.423 223.395 C 163.115 223.243,164.023 222.777,164.441 222.359 C 164.858 221.942,165.605 221.599,166.100 221.598 C 166.595 221.596,167.492 221.339,168.093 221.025 C 169.251 220.421,170.800 221.603,170.800 223.091 C 170.800 223.411,171.145 224.113,171.567 224.649 C 171.989 225.185,172.452 226.322,172.596 227.176 C 172.740 228.030,173.205 229.043,173.629 229.426 C 174.053 229.810,174.400 230.334,174.400 230.590 C 174.400 230.846,174.940 231.661,175.600 232.400 C 176.260 233.139,176.800 234.072,176.800 234.472 C 176.800 234.872,177.074 235.200,177.409 235.200 C 177.743 235.200,178.221 235.647,178.469 236.192 C 178.718 236.738,179.245 237.287,179.640 237.413 C 180.036 237.538,180.462 237.964,180.587 238.360 C 180.713 238.755,181.262 239.282,181.808 239.531 C 182.353 239.779,182.800 240.158,182.800 240.373 C 182.800 240.587,183.610 241.121,184.600 241.559 C 185.590 241.997,186.400 242.537,186.400 242.759 C 186.400 242.982,187.075 243.268,187.900 243.396 C 188.725 243.524,190.203 244.027,191.184 244.514 C 193.620 245.723,206.590 245.877,207.877 244.712 C 208.295 244.333,209.573 243.807,210.717 243.543 C 212.107 243.222,213.000 242.754,213.408 242.132 C 213.744 241.619,214.284 241.200,214.609 241.200 C 214.934 241.200,215.200 240.944,215.200 240.631 C 215.200 240.318,215.695 239.473,216.300 238.754 C 217.867 236.892,218.019 227.649,216.500 226.585 C 216.005 226.238,215.600 225.758,215.600 225.518 C 215.600 224.965,213.229 222.647,212.300 222.292 C 211.915 222.145,211.600 221.758,211.600 221.431 C 211.600 221.068,211.053 220.734,210.197 220.573 C 209.425 220.428,208.381 219.986,207.878 219.590 C 207.375 219.195,205.892 218.674,204.582 218.434 C 203.272 218.193,202.017 217.750,201.793 217.449 C 201.569 217.148,200.630 216.774,199.705 216.618 C 198.780 216.461,197.583 215.987,197.045 215.564 C 196.506 215.140,195.196 214.689,194.133 214.560 C 191.731 214.271,189.600 213.641,189.600 213.221 C 189.600 213.046,188.720 212.786,187.644 212.644 C 186.568 212.501,185.253 212.042,184.723 211.625 C 184.192 211.207,183.047 210.736,182.179 210.578 C 181.310 210.420,179.791 209.866,178.803 209.346 C 177.815 208.826,176.725 208.400,176.381 208.400 C 176.037 208.400,175.145 207.950,174.400 207.400 C 173.655 206.850,172.564 206.400,171.976 206.400 C 171.389 206.400,170.479 206.065,169.954 205.655 C 169.429 205.245,168.589 204.781,168.087 204.624 C 167.585 204.467,166.704 203.902,166.129 203.369 C 165.554 202.836,164.784 202.400,164.419 202.400 C 164.054 202.400,163.145 201.950,162.400 201.400 C 161.655 200.850,160.765 200.400,160.422 200.400 C 160.080 200.399,159.277 199.949,158.638 199.400 C 157.999 198.850,157.238 198.400,156.947 198.400 C 156.656 198.400,156.124 197.950,155.763 197.400 C 155.403 196.850,154.869 196.400,154.577 196.400 C 154.284 196.400,153.810 196.069,153.523 195.663 C 153.235 195.258,152.595 194.712,152.100 194.449 C 151.605 194.187,151.200 193.708,151.200 193.386 C 151.200 193.064,150.936 192.800,150.614 192.800 C 150.292 192.800,149.813 192.395,149.551 191.900 C 149.288 191.405,148.742 190.765,148.337 190.477 C 147.931 190.190,147.600 189.767,147.600 189.538 C 147.600 189.309,147.105 188.628,146.500 188.025 C 144.749 186.279,143.611 184.657,143.605 183.897 C 143.602 183.511,143.159 182.811,142.620 182.342 C 142.081 181.874,141.517 180.932,141.367 180.251 C 141.218 179.569,140.843 178.827,140.535 178.602 C 140.227 178.377,139.767 176.934,139.513 175.396 C 139.259 173.858,138.815 172.362,138.526 172.072 C 136.970 170.508,136.765 145.675,138.286 143.101 C 138.774 142.276,139.286 140.656,139.425 139.501 C 139.564 138.345,140.007 136.930,140.410 136.355 C 140.813 135.780,141.268 134.644,141.420 133.832 C 141.590 132.926,142.066 132.113,142.649 131.731 C 143.172 131.388,143.600 130.832,143.600 130.495 C 143.600 129.714,146.315 125.600,146.831 125.600 C 147.045 125.600,147.393 125.145,147.604 124.590 C 147.815 124.034,148.261 123.475,148.594 123.347 C 148.927 123.219,149.200 122.932,149.200 122.710 C 149.200 122.215,152.169 119.200,152.657 119.200 C 152.850 119.200,153.232 118.840,153.507 118.400 C 153.782 117.960,154.277 117.600,154.607 117.600 C 154.938 117.600,155.515 117.241,155.891 116.802 C 156.266 116.364,157.210 115.796,157.987 115.541 C 158.764 115.286,159.621 114.766,159.891 114.384 C 160.161 114.003,160.881 113.567,161.491 113.415 C 162.101 113.262,162.902 112.865,163.271 112.533 C 163.641 112.200,164.717 111.754,165.663 111.541 C 166.609 111.329,167.687 110.828,168.060 110.428 C 168.433 110.027,169.607 109.572,170.669 109.415 C 171.731 109.257,172.896 108.864,173.258 108.540 C 173.666 108.176,175.494 107.794,178.058 107.539 C 180.336 107.311,182.413 106.950,182.674 106.735 C 183.825 105.788,186.243 105.646,200.018 105.721 C 212.906 105.791,214.757 105.879,215.654 106.467 M105.158 110.162 L 106.000 110.924 106.000 193.000 L 106.000 275.076 105.158 275.838 C 104.047 276.843,63.458 277.044,62.261 276.051 C 61.383 275.322,61.223 110.808,62.100 110.087 C 63.567 108.882,103.822 108.952,105.158 110.162 M337.739 109.949 C 338.759 110.796,338.759 275.204,337.739 276.051 C 336.542 277.044,295.953 276.843,294.842 275.838 L 294.000 275.076 294.000 193.000 C 294.000 102.739,293.806 110.088,296.200 109.479 C 298.237 108.961,337.078 109.400,337.739 109.949 " stroke="none" fill="#9c0404" fill-rule="evenodd"></path><path id="path2" d="M190.600 106.274 C 189.720 106.351,187.712 106.689,186.137 107.026 C 184.562 107.363,181.772 107.875,179.937 108.164 C 175.336 108.888,171.372 109.928,169.000 111.033 C 154.511 117.781,149.738 121.516,145.001 129.813 C 144.378 130.906,143.552 132.160,143.167 132.600 C 142.377 133.502,141.117 136.841,139.997 141.000 C 139.582 142.540,138.963 144.784,138.621 145.987 C 137.502 149.926,137.734 166.469,138.959 170.133 C 139.486 171.710,140.029 173.624,140.166 174.387 C 140.513 176.322,142.345 180.839,143.172 181.800 C 143.551 182.240,144.426 183.500,145.116 184.600 C 145.806 185.700,146.626 186.870,146.940 187.200 C 147.253 187.530,148.631 189.150,150.001 190.800 C 151.371 192.450,152.786 193.963,153.146 194.163 C 153.506 194.363,154.610 195.173,155.600 195.963 C 158.541 198.311,159.606 198.971,163.712 200.992 C 165.864 202.050,167.708 203.051,167.809 203.215 C 168.077 203.648,173.050 206.000,173.697 206.000 C 173.998 206.000,174.855 206.450,175.600 207.000 C 176.345 207.550,177.325 208.002,177.778 208.004 C 178.230 208.006,179.500 208.450,180.600 208.991 C 181.700 209.532,182.870 209.982,183.200 209.990 C 183.530 209.998,184.340 210.298,185.000 210.657 C 186.270 211.347,190.997 212.859,195.000 213.855 C 196.320 214.184,197.774 214.694,198.231 214.990 C 198.688 215.286,199.948 215.809,201.031 216.152 C 214.599 220.452,218.173 223.878,218.192 232.600 C 218.213 242.123,212.575 246.361,199.800 246.424 C 190.330 246.471,184.204 243.764,177.566 236.600 C 175.505 234.376,172.000 228.979,172.000 228.031 C 172.000 227.771,171.640 226.893,171.201 226.079 C 170.762 225.266,170.144 223.934,169.830 223.120 C 169.204 221.500,168.427 221.467,165.717 222.943 C 165.103 223.277,162.800 224.392,160.600 225.420 C 153.745 228.623,149.183 230.904,148.983 231.228 C 148.877 231.399,148.208 231.663,147.495 231.815 C 146.151 232.101,142.540 233.609,140.800 234.610 C 139.806 235.182,138.643 235.733,135.200 237.259 C 132.188 238.594,132.207 238.574,132.077 240.556 C 131.989 241.912,132.238 243.047,132.977 244.663 C 133.540 245.892,134.000 247.131,134.000 247.418 C 134.000 247.704,134.412 248.447,134.916 249.069 C 135.419 249.691,136.052 250.650,136.322 251.200 C 136.780 252.134,137.304 252.957,140.091 257.125 C 141.647 259.451,149.407 267.071,151.286 268.118 C 152.157 268.603,153.391 269.291,154.030 269.647 C 154.668 270.003,155.476 270.531,155.824 270.820 C 156.569 271.438,160.240 273.026,162.800 273.839 C 163.790 274.153,165.320 274.756,166.200 275.179 C 168.379 276.226,174.200 277.525,178.800 277.990 C 180.890 278.201,183.860 278.556,185.400 278.779 C 188.922 279.289,202.940 279.308,206.400 278.809 C 207.830 278.602,210.980 278.249,213.400 278.024 C 217.272 277.664,222.518 276.670,226.200 275.600 C 229.281 274.705,237.523 271.376,238.363 270.688 C 238.713 270.401,240.378 269.494,242.061 268.671 C 243.745 267.848,245.342 266.911,245.610 266.588 C 245.879 266.264,246.277 266.000,246.496 266.000 C 248.703 266.000,260.000 249.818,260.000 246.656 C 260.000 246.282,260.434 244.944,260.965 243.683 C 263.044 238.744,263.292 219.069,261.342 213.836 C 261.007 212.936,260.411 211.120,260.018 209.800 C 257.485 201.295,251.313 193.607,241.800 187.108 C 240.920 186.506,239.975 186.011,239.700 186.007 C 239.425 186.003,238.876 185.676,238.481 185.281 C 237.743 184.543,233.390 182.336,231.600 181.792 C 231.050 181.625,229.973 181.153,229.206 180.744 C 228.439 180.335,227.539 179.999,227.206 179.999 C 226.873 179.998,225.978 179.618,225.218 179.155 C 224.458 178.691,223.018 178.073,222.018 177.781 C 219.102 176.928,214.555 175.302,213.746 174.822 C 213.002 174.380,209.070 173.257,204.681 172.233 C 203.406 171.935,201.606 171.325,200.681 170.878 C 199.757 170.431,197.650 169.586,196.000 169.001 C 187.037 165.824,182.473 160.886,182.416 154.304 C 182.380 150.099,185.877 144.617,189.110 143.810 C 189.709 143.660,190.508 143.260,190.885 142.920 C 192.677 141.305,203.635 141.387,206.893 143.040 C 207.934 143.568,209.014 144.001,209.293 144.002 C 210.788 144.007,218.000 150.280,218.000 151.575 C 218.000 151.925,218.365 152.892,218.810 153.723 C 219.256 154.554,219.730 156.082,219.865 157.117 C 220.271 160.235,221.051 160.564,225.213 159.375 C 226.416 159.031,228.480 158.521,229.800 158.242 C 231.120 157.963,232.650 157.490,233.200 157.191 C 233.750 156.892,235.550 156.343,237.200 155.970 C 245.144 154.177,246.129 153.911,250.200 152.462 C 251.457 152.014,254.942 151.130,259.000 150.229 C 262.441 149.464,262.801 149.258,262.793 148.057 C 262.777 145.609,261.596 140.012,260.830 138.756 C 260.375 138.010,260.002 137.040,260.001 136.600 C 259.998 135.728,257.872 131.427,256.885 130.297 C 256.547 129.911,256.075 129.261,255.836 128.854 C 253.150 124.290,248.290 119.440,244.000 117.040 C 242.130 115.994,240.150 114.886,239.600 114.578 C 237.785 113.560,234.133 112.000,233.561 111.999 C 233.253 111.998,232.401 111.632,231.670 111.186 C 229.488 109.856,217.147 107.416,207.400 106.388 C 204.301 106.061,193.857 105.990,190.600 106.274 M208.875 107.368 C 210.264 107.680,213.641 108.144,216.380 108.399 C 219.119 108.654,221.841 109.111,222.428 109.415 C 223.016 109.719,224.735 110.089,226.248 110.239 C 228.010 110.413,229.589 110.851,230.635 111.455 C 231.534 111.975,232.526 112.400,232.838 112.400 C 233.151 112.400,234.252 112.850,235.285 113.400 C 236.318 113.950,237.525 114.400,237.966 114.400 C 238.408 114.400,239.091 114.741,239.484 115.158 C 239.878 115.575,240.830 116.215,241.600 116.580 C 243.816 117.629,245.468 118.604,246.962 119.744 C 247.723 120.325,248.539 120.800,248.773 120.800 C 249.008 120.800,249.200 120.990,249.200 121.222 C 249.200 121.454,250.564 123.209,252.230 125.122 C 253.897 127.035,255.434 129.035,255.646 129.567 C 255.858 130.099,256.267 130.729,256.554 130.967 C 256.841 131.205,257.314 132.030,257.604 132.800 C 257.894 133.570,258.362 134.473,258.643 134.806 C 258.925 135.140,259.355 136.307,259.600 137.400 C 259.845 138.493,260.310 139.680,260.634 140.038 C 261.392 140.875,262.137 147.189,261.634 148.510 C 261.307 149.372,260.956 149.504,258.453 149.714 C 256.906 149.844,255.227 150.172,254.720 150.444 C 254.214 150.715,252.635 151.182,251.211 151.481 C 249.786 151.780,248.216 152.291,247.721 152.615 C 247.225 152.940,245.421 153.397,243.710 153.631 C 242.000 153.866,240.231 154.295,239.781 154.585 C 239.331 154.875,237.734 155.303,236.234 155.537 C 234.733 155.771,233.184 156.253,232.791 156.608 C 232.396 156.965,230.768 157.436,229.156 157.660 C 227.550 157.882,225.778 158.295,225.218 158.577 C 224.658 158.858,223.439 159.205,222.508 159.348 C 220.611 159.638,220.617 159.648,220.271 155.884 C 220.174 154.830,219.829 153.660,219.504 153.284 C 219.179 152.908,218.722 152.030,218.489 151.332 C 217.665 148.874,211.968 143.959,209.300 143.406 C 208.585 143.258,208.000 142.985,208.000 142.799 C 208.000 141.329,193.411 140.715,191.000 142.084 C 190.340 142.459,189.080 143.118,188.200 143.550 C 186.179 144.541,183.784 146.780,183.400 148.036 C 183.238 148.566,182.818 149.327,182.466 149.727 C 181.407 150.932,181.570 157.341,182.713 159.394 C 183.201 160.271,183.600 161.136,183.600 161.316 C 183.600 161.800,188.183 166.400,188.666 166.400 C 188.892 166.400,189.498 166.765,190.013 167.211 C 190.527 167.657,191.409 168.117,191.974 168.233 C 192.538 168.349,193.918 168.884,195.040 169.422 C 196.162 169.960,197.533 170.400,198.086 170.400 C 198.639 170.400,199.583 170.786,200.184 171.259 C 200.784 171.731,202.113 172.273,203.138 172.463 C 204.162 172.653,205.546 173.067,206.212 173.382 C 206.879 173.697,208.568 174.138,209.966 174.364 C 211.363 174.589,212.801 175.039,213.160 175.364 C 213.519 175.689,214.620 176.138,215.606 176.362 C 216.593 176.587,218.113 177.137,218.985 177.585 C 219.856 178.033,221.047 178.400,221.631 178.400 C 222.214 178.400,223.128 178.743,223.660 179.161 C 224.193 179.580,225.432 180.137,226.414 180.399 C 227.396 180.660,228.470 181.111,228.800 181.400 C 229.130 181.689,230.210 182.139,231.200 182.400 C 232.190 182.661,233.270 183.110,233.600 183.398 C 233.930 183.686,234.965 184.147,235.900 184.424 C 236.835 184.700,237.600 185.074,237.600 185.255 C 237.600 185.436,238.335 185.992,239.234 186.492 C 240.133 186.991,241.409 187.700,242.069 188.066 C 242.729 188.433,243.569 189.029,243.935 189.390 C 244.301 189.752,245.590 190.775,246.800 191.664 C 248.010 192.553,249.180 193.599,249.400 193.988 C 249.749 194.607,251.719 196.955,254.700 200.305 C 255.195 200.862,255.600 201.490,255.600 201.701 C 255.600 201.912,256.050 202.619,256.600 203.273 C 257.150 203.927,257.600 204.770,257.600 205.146 C 257.600 205.523,257.948 206.514,258.374 207.349 C 258.800 208.184,259.347 209.795,259.590 210.929 C 259.833 212.062,260.320 213.429,260.672 213.966 C 262.433 216.653,262.252 239.583,260.443 242.985 C 259.979 243.856,259.600 245.028,259.600 245.588 C 259.600 246.148,259.150 247.452,258.600 248.485 C 258.050 249.518,257.600 250.628,257.600 250.951 C 257.600 251.274,257.175 252.047,256.655 252.669 C 256.135 253.291,255.588 254.188,255.440 254.663 C 255.291 255.138,254.906 255.627,254.585 255.750 C 254.263 255.874,254.000 256.206,254.000 256.487 C 253.999 256.976,253.677 257.405,250.687 260.906 C 247.519 264.614,244.935 266.672,241.945 267.869 C 241.095 268.209,240.400 268.630,240.400 268.804 C 240.400 268.979,239.827 269.322,239.126 269.566 C 238.425 269.810,237.570 270.261,237.226 270.568 C 236.882 270.875,235.790 271.339,234.800 271.600 C 233.810 271.861,232.727 272.317,232.394 272.615 C 232.060 272.912,230.893 273.355,229.800 273.600 C 228.707 273.845,227.504 274.325,227.126 274.667 C 226.708 275.046,225.070 275.439,222.937 275.674 C 221.011 275.885,218.812 276.318,218.052 276.636 C 213.420 278.571,178.684 278.665,175.110 276.752 C 174.669 276.516,172.680 276.060,170.690 275.740 C 168.436 275.377,166.699 274.864,166.082 274.379 C 165.538 273.950,164.709 273.600,164.240 273.600 C 163.772 273.600,162.726 273.245,161.917 272.812 C 161.108 272.378,159.638 271.820,158.650 271.571 C 157.663 271.322,156.760 270.873,156.645 270.572 C 156.529 270.271,155.842 269.740,155.117 269.391 C 152.264 268.018,150.922 267.159,149.061 265.514 C 144.878 261.818,140.991 257.656,140.295 256.130 C 140.062 255.618,139.711 255.200,139.515 255.200 C 139.319 255.200,138.886 254.546,138.552 253.746 C 138.218 252.946,137.625 251.821,137.235 251.246 C 135.082 248.072,134.400 246.898,134.400 246.363 C 134.400 246.036,134.060 245.102,133.644 244.286 C 131.847 240.762,132.112 239.014,134.542 238.367 C 135.454 238.124,136.470 237.695,136.800 237.413 C 137.130 237.132,138.088 236.680,138.928 236.410 C 139.768 236.140,140.546 235.686,140.655 235.400 C 140.765 235.115,141.697 234.669,142.727 234.411 C 143.757 234.152,144.870 233.700,145.200 233.407 C 145.530 233.114,146.610 232.661,147.600 232.400 C 148.590 232.139,149.670 231.687,150.000 231.396 C 150.330 231.105,151.365 230.562,152.300 230.190 C 153.235 229.818,154.000 229.360,154.000 229.172 C 154.000 228.984,154.765 228.627,155.700 228.378 C 156.635 228.129,157.670 227.695,158.000 227.413 C 158.330 227.132,159.261 226.689,160.068 226.430 C 160.875 226.171,161.751 225.700,162.015 225.382 C 162.278 225.065,163.237 224.608,164.147 224.366 C 165.056 224.124,166.070 223.686,166.400 223.393 C 167.569 222.355,169.385 222.476,169.519 223.600 C 169.677 224.939,170.423 226.800,170.801 226.800 C 170.968 226.800,171.315 227.635,171.573 228.657 C 172.181 231.075,177.352 238.140,178.864 238.620 C 179.269 238.749,179.600 239.067,179.600 239.327 C 179.600 240.161,184.548 243.827,186.600 244.512 C 187.260 244.733,188.081 245.155,188.425 245.451 C 188.960 245.911,191.408 246.366,199.294 247.473 C 200.115 247.588,201.362 247.482,202.064 247.238 C 202.766 246.993,204.614 246.685,206.170 246.553 C 209.313 246.286,213.716 244.477,214.419 243.164 C 214.644 242.744,215.085 242.400,215.400 242.400 C 215.715 242.400,216.188 241.995,216.451 241.500 C 216.715 241.005,217.192 240.408,217.510 240.172 C 217.829 239.937,218.348 238.317,218.663 236.572 C 219.897 229.733,217.966 223.451,213.998 221.399 C 213.339 221.058,212.800 220.616,212.800 220.416 C 212.800 220.216,212.170 219.824,211.400 219.546 C 210.630 219.267,210.000 218.917,210.000 218.768 C 210.000 218.398,208.119 217.688,206.300 217.372 C 205.475 217.228,204.800 216.969,204.800 216.795 C 204.800 216.389,202.550 215.600,201.394 215.600 C 200.907 215.600,200.053 215.242,199.497 214.805 C 198.941 214.368,197.522 213.819,196.343 213.586 C 195.165 213.353,193.742 212.912,193.182 212.607 C 192.623 212.302,190.958 211.842,189.482 211.585 C 188.007 211.328,186.800 210.978,186.800 210.807 C 186.800 210.438,185.101 209.749,183.328 209.399 C 182.628 209.261,181.849 208.900,181.597 208.596 C 181.345 208.292,180.176 207.844,179.000 207.600 C 177.824 207.356,176.647 206.897,176.384 206.581 C 176.122 206.265,175.163 205.808,174.253 205.566 C 173.344 205.324,172.330 204.886,172.000 204.594 C 171.670 204.302,170.860 203.935,170.200 203.779 C 169.540 203.623,168.638 203.167,168.195 202.767 C 167.752 202.366,166.729 201.762,165.922 201.425 C 165.115 201.088,164.350 200.643,164.222 200.435 C 164.094 200.228,163.316 199.837,162.494 199.566 C 160.914 199.045,160.128 198.544,156.123 195.500 C 154.748 194.455,153.444 193.600,153.226 193.600 C 153.007 193.600,152.636 193.242,152.402 192.804 C 152.168 192.366,151.261 191.279,150.388 190.388 C 149.515 189.497,148.800 188.623,148.800 188.446 C 148.800 188.269,148.421 187.781,147.957 187.362 C 147.494 186.943,146.770 185.925,146.349 185.100 C 145.928 184.275,145.407 183.600,145.192 183.600 C 144.976 183.600,144.800 183.355,144.800 183.055 C 144.800 182.755,144.280 181.856,143.645 181.056 C 143.009 180.257,142.364 178.927,142.211 178.101 C 142.058 177.276,141.688 176.327,141.389 175.993 C 141.090 175.660,140.645 174.130,140.401 172.593 C 140.156 171.057,139.651 169.350,139.278 168.800 C 138.684 167.923,138.600 166.517,138.600 157.400 C 138.600 148.283,138.684 146.877,139.278 146.000 C 139.651 145.450,140.142 143.830,140.370 142.400 C 140.598 140.970,141.147 139.087,141.592 138.215 C 142.036 137.344,142.403 136.264,142.407 135.815 C 142.411 135.367,142.906 134.262,143.507 133.361 C 144.108 132.460,145.050 130.967,145.600 130.044 C 146.150 129.121,147.092 127.789,147.694 127.083 C 148.295 126.377,148.790 125.673,148.794 125.518 C 148.797 125.363,149.205 124.808,149.700 124.284 C 150.195 123.760,151.140 122.675,151.800 121.874 C 152.460 121.073,153.215 120.413,153.477 120.409 C 153.740 120.404,154.190 120.081,154.477 119.691 C 154.765 119.301,155.765 118.644,156.700 118.230 C 157.635 117.817,158.400 117.338,158.400 117.166 C 158.400 116.994,158.805 116.727,159.300 116.572 C 159.795 116.417,160.709 115.865,161.331 115.345 C 161.953 114.825,162.763 114.399,163.131 114.399 C 163.499 114.398,164.344 114.065,165.010 113.659 C 165.675 113.254,166.892 112.700,167.713 112.429 C 168.535 112.157,169.478 111.665,169.809 111.334 C 170.139 111.004,171.713 110.555,173.305 110.338 C 174.897 110.121,176.711 109.692,177.335 109.385 C 177.960 109.078,180.326 108.626,182.594 108.382 C 184.862 108.138,187.591 107.698,188.659 107.405 C 191.441 106.640,205.526 106.615,208.875 107.368 M63.300 110.412 L 62.400 110.774 62.400 192.997 L 62.400 275.220 63.426 275.610 C 65.016 276.214,103.311 276.129,103.920 275.520 C 104.619 274.821,104.619 111.179,103.920 110.480 C 103.336 109.896,64.744 109.832,63.300 110.412 M296.080 110.480 C 295.381 111.179,295.381 274.821,296.080 275.520 C 296.689 276.129,334.984 276.214,336.574 275.610 L 337.600 275.220 337.600 193.000 L 337.600 110.780 336.574 110.390 C 334.984 109.786,296.689 109.871,296.080 110.480 M103.400 193.000 L 103.400 275.400 84.400 275.511 C 73.950 275.572,64.995 275.523,64.500 275.403 L 63.600 275.185 63.600 193.026 C 63.600 127.674,63.702 110.825,64.100 110.663 C 64.375 110.551,73.330 110.491,84.000 110.530 L 103.400 110.600 103.400 193.000 M335.767 110.643 C 336.341 110.863,336.400 118.494,336.400 193.035 L 336.400 275.185 335.500 275.403 C 335.005 275.523,326.050 275.572,315.600 275.511 L 296.600 275.400 296.497 193.400 C 296.441 148.300,296.480 111.175,296.585 110.900 C 296.785 110.373,334.419 110.126,335.767 110.643 " stroke="none" fill="#cc8484" fill-rule="evenodd"></path><path id="path3" d="M184.274 105.993 C 183.655 106.186,182.935 106.520,182.674 106.735 C 182.413 106.950,180.336 107.311,178.058 107.539 C 175.494 107.794,173.666 108.176,173.258 108.540 C 172.896 108.864,171.731 109.257,170.669 109.415 C 169.607 109.572,168.433 110.027,168.060 110.428 C 167.687 110.828,166.609 111.329,165.663 111.541 C 164.717 111.754,163.641 112.200,163.271 112.533 C 162.902 112.865,162.101 113.262,161.491 113.415 C 160.881 113.567,160.161 114.003,159.891 114.384 C 159.621 114.766,158.764 115.286,157.987 115.541 C 157.210 115.796,156.266 116.364,155.891 116.802 C 155.515 117.241,154.938 117.600,154.607 117.600 C 154.277 117.600,153.782 117.960,153.507 118.400 C 153.232 118.840,152.850 119.200,152.657 119.200 C 152.169 119.200,149.200 122.215,149.200 122.710 C 149.200 122.932,148.927 123.219,148.594 123.347 C 148.261 123.475,147.815 124.034,147.604 124.590 C 147.393 125.145,147.045 125.600,146.831 125.600 C 146.315 125.600,143.600 129.714,143.600 130.495 C 143.600 130.832,143.172 131.388,142.649 131.731 C 142.066 132.113,141.590 132.926,141.420 133.832 C 141.268 134.644,140.813 135.780,140.410 136.355 C 140.007 136.930,139.564 138.345,139.425 139.501 C 139.286 140.656,138.774 142.276,138.286 143.101 C 136.765 145.675,136.970 170.508,138.526 172.072 C 138.815 172.362,139.259 173.858,139.513 175.396 C 139.767 176.934,140.227 178.377,140.535 178.602 C 140.843 178.827,141.218 179.569,141.367 180.251 C 141.517 180.932,142.081 181.874,142.620 182.342 C 143.159 182.811,143.602 183.511,143.605 183.897 C 143.611 184.657,144.749 186.279,146.500 188.025 C 147.105 188.628,147.600 189.309,147.600 189.538 C 147.600 189.767,147.931 190.190,148.337 190.477 C 148.742 190.765,149.288 191.405,149.551 191.900 C 149.813 192.395,150.292 192.800,150.614 192.800 C 150.936 192.800,151.200 193.064,151.200 193.386 C 151.200 193.708,151.605 194.187,152.100 194.449 C 152.595 194.712,153.235 195.258,153.523 195.663 C 153.810 196.069,154.284 196.400,154.577 196.400 C 154.869 196.400,155.403 196.850,155.763 197.400 C 156.124 197.950,156.656 198.400,156.947 198.400 C 157.238 198.400,157.999 198.850,158.638 199.400 C 159.277 199.949,160.080 200.399,160.422 200.400 C 160.765 200.400,161.655 200.850,162.400 201.400 C 163.145 201.950,164.054 202.400,164.419 202.400 C 164.784 202.400,165.554 202.836,166.129 203.369 C 166.704 203.902,167.585 204.467,168.087 204.624 C 168.589 204.781,169.429 205.245,169.954 205.655 C 170.479 206.065,171.389 206.400,171.976 206.400 C 172.564 206.400,173.655 206.850,174.400 207.400 C 175.145 207.950,176.037 208.400,176.381 208.400 C 176.725 208.400,177.815 208.826,178.803 209.346 C 179.791 209.866,181.310 210.420,182.179 210.578 C 183.047 210.736,184.192 211.207,184.723 211.625 C 185.253 212.042,186.568 212.501,187.644 212.644 C 188.720 212.786,189.600 213.046,189.600 213.221 C 189.600 213.641,191.731 214.271,194.133 214.560 C 195.196 214.689,196.506 215.140,197.045 215.564 C 197.583 215.987,198.780 216.461,199.705 216.618 C 200.630 216.774,201.569 217.148,201.793 217.449 C 202.017 217.750,203.272 218.193,204.582 218.434 C 205.892 218.674,207.375 219.195,207.878 219.590 C 208.381 219.986,209.425 220.428,210.197 220.573 C 211.053 220.734,211.600 221.068,211.600 221.431 C 211.600 221.758,211.915 222.145,212.300 222.292 C 213.229 222.647,215.600 224.965,215.600 225.518 C 215.600 225.758,216.005 226.238,216.500 226.585 C 218.019 227.649,217.867 236.892,216.300 238.754 C 215.695 239.473,215.200 240.318,215.200 240.631 C 215.200 240.944,214.934 241.200,214.609 241.200 C 214.284 241.200,213.744 241.619,213.408 242.132 C 213.000 242.754,212.107 243.222,210.717 243.543 C 209.573 243.807,208.295 244.333,207.877 244.712 C 206.590 245.877,193.620 245.723,191.184 244.514 C 190.203 244.027,188.725 243.524,187.900 243.396 C 187.075 243.268,186.400 242.982,186.400 242.759 C 186.400 242.537,185.590 241.997,184.600 241.559 C 183.610 241.121,182.800 240.587,182.800 240.373 C 182.800 240.158,182.353 239.779,181.808 239.531 C 181.262 239.282,180.713 238.755,180.587 238.360 C 180.462 237.964,180.036 237.538,179.640 237.413 C 179.245 237.287,178.718 236.738,178.469 236.192 C 178.221 235.647,177.743 235.200,177.409 235.200 C 177.074 235.200,176.800 234.872,176.800 234.472 C 176.800 234.072,176.260 233.139,175.600 232.400 C 174.940 231.661,174.400 230.846,174.400 230.590 C 174.400 230.334,174.053 229.810,173.629 229.426 C 173.205 229.043,172.740 228.030,172.596 227.176 C 172.452 226.322,171.989 225.185,171.567 224.649 C 171.145 224.113,170.800 223.411,170.800 223.091 C 170.800 221.603,169.251 220.421,168.093 221.025 C 167.492 221.339,166.595 221.596,166.100 221.598 C 165.605 221.599,164.858 221.942,164.441 222.359 C 164.023 222.777,163.115 223.243,162.423 223.395 C 161.731 223.547,160.696 224.105,160.124 224.636 C 159.529 225.186,158.594 225.600,157.942 225.600 C 157.314 225.600,156.458 225.942,156.041 226.359 C 155.623 226.777,154.715 227.243,154.023 227.395 C 153.331 227.547,152.458 227.998,152.082 228.397 C 151.707 228.796,150.654 229.322,149.741 229.565 C 148.829 229.809,147.984 230.264,147.864 230.576 C 147.745 230.889,146.824 231.267,145.819 231.418 C 144.813 231.569,143.588 232.005,143.095 232.388 C 142.603 232.771,141.541 233.299,140.735 233.561 C 139.930 233.824,139.179 234.277,139.067 234.569 C 138.955 234.860,138.174 235.225,137.332 235.379 C 136.489 235.533,135.350 235.956,134.800 236.318 C 134.250 236.680,133.260 237.252,132.600 237.588 C 131.200 238.302,131.011 239.108,131.398 242.715 C 131.577 244.387,131.928 245.528,132.413 246.013 C 132.821 246.421,133.272 247.377,133.415 248.138 C 133.557 248.898,134.107 249.897,134.637 250.357 C 135.167 250.818,135.600 251.534,135.600 251.948 C 135.600 252.363,135.898 252.949,136.262 253.251 C 136.626 253.553,137.168 254.385,137.467 255.100 C 137.766 255.815,138.171 256.400,138.366 256.400 C 138.561 256.400,139.074 256.985,139.505 257.700 C 141.312 260.696,148.149 267.490,150.400 268.527 C 150.950 268.780,151.625 269.291,151.900 269.662 C 152.176 270.033,152.986 270.465,153.700 270.622 C 154.415 270.779,155.221 271.223,155.491 271.608 C 155.761 271.993,156.454 272.427,157.031 272.572 C 157.608 272.717,158.557 273.171,159.140 273.582 C 159.723 273.992,161.055 274.445,162.100 274.589 C 163.145 274.732,164.000 274.989,164.000 275.160 C 164.000 275.597,165.647 276.298,167.464 276.636 C 168.309 276.792,169.404 277.184,169.898 277.505 C 170.469 277.876,172.660 278.224,175.898 278.456 C 179.446 278.711,181.365 279.032,182.200 279.511 C 183.990 280.539,207.271 280.549,210.000 279.523 C 211.021 279.140,214.007 278.683,216.902 278.468 C 220.230 278.221,222.325 277.879,222.930 277.483 C 223.440 277.149,224.881 276.747,226.134 276.591 C 227.386 276.434,228.823 275.982,229.327 275.586 C 229.830 275.190,230.953 274.744,231.821 274.596 C 232.690 274.447,233.857 274.005,234.416 273.613 C 234.974 273.221,236.009 272.774,236.715 272.619 C 237.421 272.464,238.224 272.028,238.500 271.651 C 238.775 271.274,239.746 270.747,240.659 270.479 C 241.571 270.212,242.414 269.741,242.532 269.434 C 242.649 269.127,243.299 268.754,243.975 268.605 C 244.651 268.457,245.666 267.945,246.230 267.468 C 248.051 265.928,252.400 261.631,252.400 261.372 C 252.400 261.234,252.895 260.613,253.500 259.993 C 255.668 257.771,255.999 257.321,256.465 255.970 C 256.725 255.216,257.252 254.375,257.637 254.100 C 258.022 253.824,258.459 253.041,258.609 252.359 C 258.759 251.677,259.196 250.804,259.581 250.419 C 259.966 250.034,260.404 248.792,260.554 247.659 C 260.705 246.527,260.972 245.600,261.150 245.600 C 261.758 245.600,262.343 243.684,262.633 240.746 C 262.792 239.128,263.165 237.224,263.461 236.515 C 264.124 234.928,264.195 223.005,263.556 220.600 C 263.322 219.720,262.907 217.400,262.633 215.444 C 262.298 213.051,261.921 211.731,261.479 211.408 C 261.072 211.110,260.718 210.044,260.549 208.602 C 260.391 207.260,259.987 205.987,259.595 205.595 C 259.222 205.222,258.788 204.407,258.632 203.785 C 258.476 203.163,257.955 202.158,257.474 201.552 C 256.993 200.946,255.974 199.584,255.208 198.525 C 253.745 196.503,253.180 195.822,251.207 193.704 C 250.543 192.991,250.000 192.226,250.000 192.004 C 250.000 191.782,249.802 191.600,249.560 191.600 C 249.319 191.600,248.624 191.105,248.016 190.500 C 246.470 188.960,243.973 187.200,243.336 187.200 C 243.041 187.200,242.800 187.010,242.800 186.778 C 242.800 186.545,242.014 186.007,241.053 185.582 C 240.092 185.157,239.080 184.537,238.804 184.205 C 238.528 183.872,238.078 183.600,237.805 183.600 C 237.532 183.600,236.823 183.218,236.230 182.752 C 235.637 182.286,234.418 181.739,233.521 181.538 C 232.624 181.336,231.466 180.838,230.949 180.432 C 230.432 180.025,229.213 179.573,228.240 179.427 C 227.267 179.281,226.374 178.910,226.256 178.602 C 226.138 178.294,225.267 177.846,224.321 177.605 C 223.374 177.365,221.970 176.839,221.200 176.436 C 220.430 176.032,219.011 175.583,218.046 175.438 C 217.082 175.292,215.869 174.840,215.351 174.433 C 214.833 174.025,213.567 173.566,212.538 173.412 C 211.509 173.257,210.258 172.863,209.759 172.536 C 209.260 172.209,207.545 171.761,205.949 171.539 C 204.225 171.300,202.655 170.829,202.083 170.379 C 201.552 169.962,200.462 169.500,199.659 169.353 C 198.857 169.205,197.792 168.767,197.292 168.379 C 196.793 167.990,195.502 167.552,194.422 167.403 C 193.343 167.255,192.366 166.888,192.251 166.589 C 192.136 166.290,191.316 165.827,190.429 165.561 C 189.526 165.291,188.715 164.762,188.587 164.359 C 188.462 163.964,188.017 163.533,187.600 163.400 C 187.183 163.267,186.733 162.817,186.600 162.400 C 186.467 161.983,186.023 161.534,185.613 161.404 C 183.428 160.711,183.428 149.792,185.614 147.692 C 188.277 145.133,188.848 144.723,190.286 144.340 C 191.119 144.118,192.033 143.636,192.317 143.268 C 193.093 142.266,204.511 142.269,205.283 143.272 C 205.567 143.641,206.569 144.143,207.508 144.389 C 208.448 144.634,209.868 145.277,210.664 145.818 C 211.460 146.358,212.344 146.800,212.629 146.800 C 212.913 146.800,213.257 147.151,213.394 147.580 C 213.530 148.008,213.964 148.462,214.360 148.587 C 214.755 148.713,215.282 149.262,215.531 149.808 C 215.779 150.353,216.233 150.800,216.539 150.800 C 216.899 150.800,217.260 151.634,217.560 153.161 C 217.816 154.460,218.289 155.742,218.613 156.010 C 218.936 156.279,219.200 157.066,219.200 157.760 C 219.200 160.867,223.816 161.768,228.600 159.595 C 229.480 159.195,231.010 158.746,232.000 158.596 C 232.990 158.447,234.386 157.987,235.102 157.574 C 235.818 157.162,237.873 156.640,239.667 156.415 C 241.462 156.190,243.216 155.754,243.565 155.446 C 243.914 155.138,245.345 154.756,246.744 154.598 C 248.390 154.413,249.551 154.049,250.032 153.568 C 250.540 153.060,251.634 152.744,253.488 152.571 C 254.979 152.431,256.920 151.993,257.800 151.598 C 258.680 151.204,260.117 150.756,260.993 150.605 C 264.070 150.072,265.057 147.604,263.441 144.480 C 263.134 143.885,262.750 142.341,262.589 141.047 C 262.416 139.664,262.004 138.404,261.590 137.990 C 261.202 137.602,260.757 136.501,260.600 135.542 C 260.444 134.584,259.795 133.004,259.158 132.031 C 258.521 131.059,258.000 130.114,258.000 129.931 C 258.000 129.749,257.750 129.600,257.443 129.600 C 257.137 129.600,256.766 129.120,256.619 128.534 C 256.285 127.201,255.184 125.717,252.500 122.978 C 251.345 121.799,250.400 120.653,250.400 120.432 C 250.400 120.210,249.995 119.813,249.500 119.551 C 249.005 119.288,248.379 118.762,248.109 118.382 C 247.839 118.002,247.119 117.566,246.509 117.413 C 245.899 117.260,245.078 116.790,244.684 116.368 C 244.291 115.945,243.741 115.600,243.462 115.600 C 243.183 115.600,242.358 115.159,241.628 114.621 C 240.899 114.082,239.784 113.528,239.151 113.389 C 238.518 113.250,238.000 112.993,238.000 112.817 C 238.000 112.426,236.288 111.743,234.400 111.382 C 233.630 111.234,232.640 110.788,232.200 110.391 C 231.760 109.993,230.500 109.541,229.400 109.385 C 228.300 109.230,227.097 108.838,226.728 108.514 C 226.288 108.130,224.433 107.789,221.363 107.530 C 218.215 107.264,216.337 106.915,215.654 106.467 C 214.506 105.714,186.523 105.291,184.274 105.993 M214.800 107.141 C 216.890 107.608,219.236 107.992,220.013 107.995 C 220.790 107.998,222.410 108.270,223.613 108.600 C 224.816 108.930,226.757 109.392,227.926 109.625 C 229.095 109.859,230.877 110.489,231.886 111.025 C 232.894 111.561,233.940 112.000,234.210 112.000 C 234.806 112.000,239.990 114.468,242.200 115.804 C 243.080 116.336,244.683 117.245,245.763 117.824 C 248.492 119.288,256.000 127.290,256.000 128.734 C 256.000 128.936,256.262 129.319,256.582 129.585 C 257.416 130.278,260.000 135.092,260.000 135.954 C 260.000 136.354,260.422 137.474,260.937 138.443 C 261.463 139.433,262.168 141.942,262.543 144.164 C 263.355 148.970,263.061 149.765,260.316 150.190 C 259.372 150.335,257.520 150.787,256.200 151.192 C 254.880 151.598,252.990 152.045,252.000 152.185 C 251.010 152.325,249.785 152.712,249.278 153.044 C 248.771 153.375,247.007 153.905,245.357 154.221 C 243.707 154.536,242.033 154.968,241.637 155.180 C 241.240 155.393,239.699 155.760,238.213 155.998 C 236.726 156.235,234.855 156.761,234.055 157.167 C 233.255 157.572,231.792 158.039,230.805 158.203 C 229.818 158.368,228.288 158.758,227.405 159.070 C 222.306 160.872,220.177 160.481,219.767 157.667 C 219.617 156.640,219.184 155.170,218.804 154.400 C 218.424 153.630,218.004 152.544,217.871 151.986 C 217.370 149.895,211.579 144.812,208.944 144.150 C 208.328 143.996,207.188 143.494,206.412 143.035 C 205.149 142.288,204.365 142.200,198.995 142.200 L 192.990 142.200 190.195 143.552 C 183.617 146.736,181.332 152.069,183.627 158.881 C 184.469 161.378,188.451 166.000,189.761 166.000 C 190.059 166.000,190.528 166.272,190.803 166.604 C 191.079 166.936,192.316 167.498,193.552 167.852 C 194.789 168.207,195.980 168.636,196.200 168.807 C 196.420 168.978,197.530 169.392,198.666 169.727 C 199.802 170.062,201.152 170.611,201.666 170.946 C 202.180 171.282,203.770 171.825,205.200 172.154 C 210.018 173.260,213.448 174.282,214.427 174.904 C 214.962 175.243,216.030 175.650,216.800 175.806 C 217.570 175.963,218.955 176.430,219.878 176.845 C 220.801 177.260,221.811 177.600,222.122 177.600 C 222.433 177.600,223.699 178.140,224.936 178.800 C 226.173 179.460,227.437 180.000,227.744 180.000 C 228.865 180.000,237.686 184.140,238.401 185.002 C 238.674 185.331,239.111 185.600,239.371 185.600 C 239.797 185.600,241.991 186.985,246.000 189.785 C 248.118 191.264,249.715 192.791,251.440 194.984 C 252.298 196.075,253.270 197.278,253.600 197.658 C 255.706 200.084,257.856 203.352,258.370 204.909 C 258.639 205.723,259.013 206.485,259.202 206.601 C 259.391 206.718,259.758 207.832,260.016 209.077 C 260.274 210.322,260.816 211.983,261.219 212.770 C 263.624 217.460,263.483 238.500,261.008 244.381 C 260.454 245.698,259.999 247.096,259.999 247.488 C 259.998 247.880,259.660 248.752,259.248 249.428 C 258.837 250.103,258.362 251.093,258.192 251.628 C 258.023 252.162,257.461 253.157,256.942 253.838 C 256.424 254.519,256.000 255.206,256.000 255.364 C 256.000 257.205,245.557 268.000,243.777 268.000 C 243.521 268.000,242.675 268.432,241.897 268.960 C 241.119 269.488,240.059 270.049,239.541 270.206 C 239.024 270.363,238.240 270.809,237.800 271.197 C 237.360 271.584,236.280 272.131,235.400 272.411 C 234.520 272.692,233.440 273.146,233.000 273.421 C 232.560 273.696,231.570 274.047,230.800 274.200 C 230.030 274.353,228.953 274.763,228.407 275.110 C 226.877 276.081,219.693 277.535,210.800 278.671 C 199.165 280.158,189.842 279.891,174.800 277.638 C 171.508 277.145,166.407 275.729,164.615 274.812 C 163.744 274.365,162.754 273.994,162.415 273.987 C 162.077 273.981,160.900 273.532,159.800 272.991 C 158.700 272.450,157.603 272.006,157.362 272.004 C 157.121 272.002,156.598 271.640,156.200 271.200 C 155.802 270.760,155.273 270.400,155.025 270.400 C 153.200 270.400,145.661 264.165,141.795 259.459 C 140.918 258.391,139.733 256.951,139.163 256.259 C 138.270 255.175,136.718 252.648,134.582 248.800 C 133.051 246.044,131.909 242.682,131.857 240.780 C 131.793 238.466,131.563 238.698,135.800 236.800 C 137.340 236.110,138.870 235.374,139.200 235.165 C 139.530 234.955,140.430 234.517,141.200 234.191 C 141.970 233.865,143.266 233.238,144.079 232.799 C 144.893 232.360,145.773 232.000,146.035 232.000 C 146.460 232.000,152.074 229.352,153.600 228.432 C 153.930 228.233,155.190 227.629,156.400 227.090 C 159.679 225.628,161.331 224.847,162.000 224.443 C 166.638 221.644,169.320 221.113,169.968 222.867 C 170.474 224.238,171.154 225.756,172.999 229.631 C 175.433 234.743,184.675 243.927,187.449 243.990 C 187.696 243.995,188.688 244.350,189.654 244.777 C 195.805 247.497,210.401 246.136,213.881 242.516 C 214.365 242.012,214.933 241.600,215.141 241.600 C 215.595 241.600,217.250 239.008,217.695 237.600 C 218.175 236.082,218.097 229.444,217.576 227.513 C 216.660 224.109,210.920 219.562,205.400 217.867 C 201.720 216.737,198.878 215.669,197.935 215.061 C 197.421 214.730,196.280 214.338,195.400 214.189 C 193.324 213.838,187.845 212.138,185.800 211.210 C 184.920 210.811,183.390 210.210,182.400 209.875 C 177.518 208.225,175.803 207.546,175.228 207.036 C 174.883 206.730,173.970 206.298,173.200 206.076 C 172.430 205.854,170.810 205.122,169.600 204.450 C 168.390 203.777,166.472 202.781,165.337 202.235 C 164.202 201.689,163.169 201.073,163.041 200.866 C 162.912 200.658,162.362 200.377,161.818 200.240 C 158.048 199.294,148.842 190.847,144.990 184.800 C 144.360 183.810,143.539 182.640,143.166 182.200 C 142.219 181.083,140.451 176.662,139.806 173.800 C 139.508 172.480,138.937 170.680,138.537 169.800 C 137.188 166.836,137.453 147.967,138.900 143.933 C 139.505 142.246,140.000 140.504,140.000 140.063 C 140.000 138.882,142.363 133.133,143.242 132.174 C 143.659 131.720,144.003 131.180,144.006 130.974 C 144.023 129.924,151.497 120.557,153.200 119.452 C 153.750 119.095,155.010 118.265,156.000 117.608 C 156.990 116.951,158.070 116.293,158.400 116.147 C 158.730 116.001,159.540 115.500,160.200 115.034 C 160.860 114.567,162.570 113.677,164.000 113.055 C 165.430 112.433,167.500 111.497,168.600 110.974 C 170.755 109.949,174.086 108.981,177.600 108.358 C 180.080 107.918,187.380 106.509,188.600 106.235 C 191.253 105.639,211.159 106.328,214.800 107.141 M63.600 109.486 C 63.050 109.591,62.375 109.861,62.100 110.087 C 61.223 110.808,61.383 275.322,62.261 276.051 C 63.458 277.044,104.047 276.843,105.158 275.838 L 106.000 275.076 106.000 193.000 L 106.000 110.924 105.158 110.162 C 104.344 109.424,67.096 108.818,63.600 109.486 M296.200 109.479 C 293.806 110.088,294.000 102.739,294.000 193.000 L 294.000 275.076 294.842 275.838 C 295.953 276.843,336.542 277.044,337.739 276.051 C 338.759 275.204,338.759 110.796,337.739 109.949 C 337.078 109.400,298.237 108.961,296.200 109.479 M104.320 110.480 C 105.019 111.179,105.019 274.821,104.320 275.520 C 103.811 276.029,64.331 276.255,63.033 275.757 C 62.179 275.430,62.047 110.609,62.900 110.265 C 64.072 109.792,103.839 109.999,104.320 110.480 M336.967 110.243 C 337.938 110.615,337.938 275.385,336.967 275.757 C 335.669 276.255,296.189 276.029,295.680 275.520 C 294.981 274.821,294.981 111.179,295.680 110.480 C 296.189 109.971,335.669 109.745,336.967 110.243 " stroke="none" fill="#bc5757" fill-rule="evenodd"></path><path id="path4" d="M189.905 106.283 C 190.402 106.379,191.122 106.375,191.505 106.275 C 191.887 106.175,191.480 106.096,190.600 106.101 C 189.720 106.105,189.407 106.187,189.905 106.283 M206.105 106.287 C 206.714 106.379,207.614 106.377,208.105 106.282 C 208.597 106.187,208.100 106.111,207.000 106.114 C 205.900 106.117,205.497 106.195,206.105 106.287 M211.000 106.800 C 212.692 107.231,214.144 107.231,212.800 106.800 C 212.250 106.624,211.350 106.483,210.800 106.487 C 209.902 106.494,209.922 106.526,211.000 106.800 M103.900 110.399 C 104.297 110.844,104.400 127.934,104.400 193.000 C 104.400 258.066,104.297 275.156,103.900 275.601 C 103.475 276.078,103.504 276.082,104.100 275.632 C 104.763 275.130,104.800 270.724,104.800 193.000 C 104.800 115.276,104.763 110.870,104.100 110.368 C 103.504 109.918,103.475 109.922,103.900 110.399 M295.680 110.480 C 294.788 111.372,295.005 274.955,295.900 275.632 C 296.496 276.082,296.525 276.078,296.100 275.601 C 295.383 274.797,295.364 111.196,296.080 110.480 C 296.344 110.216,296.470 110.000,296.360 110.000 C 296.250 110.000,295.944 110.216,295.680 110.480 M251.800 123.600 C 252.883 124.700,253.860 125.600,253.970 125.600 C 254.080 125.600,253.283 124.700,252.200 123.600 C 251.117 122.500,250.140 121.600,250.030 121.600 C 249.920 121.600,250.717 122.500,251.800 123.600 M254.364 126.733 C 254.580 127.136,255.071 127.721,255.455 128.033 C 255.887 128.384,255.790 128.104,255.201 127.300 C 254.151 125.865,253.757 125.598,254.364 126.733 M144.555 129.812 C 144.190 130.369,143.964 130.898,144.053 130.987 C 144.142 131.076,144.518 130.620,144.889 129.974 C 145.714 128.536,145.469 128.417,144.555 129.812 M140.865 137.017 C 140.195 138.488,140.323 138.802,141.047 137.465 C 141.386 136.840,141.588 136.254,141.496 136.163 C 141.405 136.071,141.121 136.456,140.865 137.017 M197.700 141.887 C 198.305 141.978,199.295 141.978,199.900 141.887 C 200.505 141.795,200.010 141.720,198.800 141.720 C 197.590 141.720,197.095 141.795,197.700 141.887 M185.578 146.300 L 184.200 147.800 185.700 146.422 C 186.525 145.663,187.200 144.988,187.200 144.922 C 187.200 144.616,186.862 144.904,185.578 146.300 M216.834 150.247 C 217.365 150.933,217.880 151.423,217.979 151.335 C 218.077 151.247,217.643 150.686,217.013 150.088 L 215.869 149.000 216.834 150.247 M137.767 157.600 C 137.767 161.890,137.826 163.645,137.898 161.500 C 137.970 159.355,137.970 155.845,137.898 153.700 C 137.826 151.555,137.767 153.310,137.767 157.600 M182.524 154.200 C 182.526 155.520,182.601 156.012,182.690 155.293 C 182.779 154.574,182.777 153.494,182.686 152.893 C 182.595 152.292,182.522 152.880,182.524 154.200 M233.200 157.200 C 232.430 157.622,231.980 157.966,232.200 157.966 C 232.420 157.966,233.230 157.622,234.000 157.200 C 234.770 156.778,235.220 156.434,235.000 156.434 C 234.780 156.434,233.970 156.778,233.200 157.200 M200.710 170.801 C 202.408 171.837,202.964 171.836,201.400 170.800 C 200.740 170.363,200.020 170.005,199.800 170.004 C 199.580 170.004,199.989 170.362,200.710 170.801 M245.800 189.857 C 247.837 191.664,248.587 192.191,247.802 191.263 C 247.366 190.748,246.647 190.141,246.204 189.914 C 245.762 189.687,245.580 189.662,245.800 189.857 M163.544 201.176 C 164.064 201.629,164.679 202.000,164.911 202.000 C 165.403 202.000,165.379 201.980,163.800 201.055 L 162.600 200.353 163.544 201.176 M202.800 217.000 C 203.350 217.314,203.980 217.572,204.200 217.572 C 204.420 217.572,204.150 217.314,203.600 217.000 C 203.050 216.686,202.420 216.428,202.200 216.428 C 201.980 216.428,202.250 216.686,202.800 217.000 M262.501 222.200 C 262.505 223.080,262.587 223.393,262.683 222.895 C 262.779 222.398,262.775 221.678,262.675 221.295 C 262.575 220.913,262.496 221.320,262.501 222.200 M165.400 222.800 C 163.836 223.836,164.392 223.837,166.090 222.801 C 166.811 222.362,167.220 222.004,167.000 222.004 C 166.780 222.005,166.060 222.363,165.400 222.800 M214.800 223.400 C 215.546 224.170,216.247 224.800,216.357 224.800 C 216.467 224.800,215.946 224.170,215.200 223.400 C 214.454 222.630,213.753 222.000,213.643 222.000 C 213.533 222.000,214.054 222.630,214.800 223.400 M262.940 228.000 C 262.940 229.870,263.009 230.635,263.093 229.700 C 263.177 228.765,263.177 227.235,263.093 226.300 C 263.009 225.365,262.940 226.130,262.940 228.000 M218.101 231.400 C 218.105 232.280,218.187 232.593,218.283 232.095 C 218.379 231.598,218.375 230.878,218.275 230.495 C 218.175 230.113,218.096 230.520,218.101 231.400 M218.093 234.400 C 218.093 235.170,218.175 235.485,218.276 235.100 C 218.376 234.715,218.376 234.085,218.276 233.700 C 218.175 233.315,218.093 233.630,218.093 234.400 M262.493 234.800 C 262.493 235.570,262.575 235.885,262.676 235.500 C 262.776 235.115,262.776 234.485,262.676 234.100 C 262.575 233.715,262.493 234.030,262.493 234.800 M175.914 234.604 C 176.141 235.047,176.748 235.766,177.263 236.202 C 178.167 236.966,178.165 236.952,177.206 235.797 C 175.613 233.879,175.479 233.755,175.914 234.604 M132.080 238.480 C 131.816 238.744,131.629 239.599,131.664 240.380 L 131.728 241.800 131.897 240.402 C 131.989 239.632,132.253 238.777,132.482 238.502 C 133.012 237.862,132.714 237.846,132.080 238.480 M260.865 243.817 C 260.195 245.288,260.323 245.602,261.047 244.265 C 261.386 243.640,261.588 243.054,261.496 242.963 C 261.405 242.871,261.121 243.256,260.865 243.817 M209.200 245.000 C 208.650 245.314,208.380 245.572,208.600 245.572 C 208.820 245.572,209.450 245.314,210.000 245.000 C 210.550 244.686,210.820 244.428,210.600 244.428 C 210.380 244.428,209.750 244.686,209.200 245.000 M196.100 246.276 C 196.485 246.376,197.115 246.376,197.500 246.276 C 197.885 246.175,197.570 246.093,196.800 246.093 C 196.030 246.093,195.715 246.175,196.100 246.276 M202.100 246.276 C 202.485 246.376,203.115 246.376,203.500 246.276 C 203.885 246.175,203.570 246.093,202.800 246.093 C 202.030 246.093,201.715 246.175,202.100 246.276 M137.422 253.728 C 137.959 254.688,138.804 255.816,139.299 256.234 L 140.200 256.994 139.347 255.997 C 138.878 255.449,138.204 254.426,137.850 253.725 C 137.495 253.024,137.035 252.345,136.826 252.216 C 136.617 252.087,136.885 252.767,137.422 253.728 M255.196 256.097 C 254.026 257.856,253.936 258.182,254.946 257.000 C 255.837 255.957,256.237 255.200,255.896 255.200 C 255.839 255.200,255.524 255.604,255.196 256.097 M144.800 263.000 C 145.546 263.770,146.247 264.400,146.357 264.400 C 146.467 264.400,145.946 263.770,145.200 263.000 C 144.454 262.230,143.753 261.600,143.643 261.600 C 143.533 261.600,144.054 262.230,144.800 263.000 M227.000 275.414 C 226.340 275.717,226.081 275.972,226.424 275.982 C 226.766 275.992,227.396 275.736,227.824 275.413 C 228.772 274.696,228.569 274.696,227.000 275.414 M211.700 278.276 C 212.085 278.376,212.715 278.376,213.100 278.276 C 213.485 278.175,213.170 278.093,212.400 278.093 C 211.630 278.093,211.315 278.175,211.700 278.276 M186.242 279.277 C 187.099 279.429,191.490 279.554,196.000 279.554 C 200.510 279.554,204.901 279.429,205.758 279.277 C 206.615 279.125,202.224 279.000,196.000 279.000 C 189.776 279.000,185.385 279.125,186.242 279.277 " stroke="none" fill="#cc7c7c" fill-rule="evenodd"></path></g></svg>